<svg width="183" height="151" viewBox="0 0 183 151" fill="none" xmlns="http://www.w3.org/2000/svg">
<g clip-path="url(#clip0_4077_437)">
<g clip-path="url(#clip1_4077_437)">
<mask id="mask0_4077_437" style="mask-type:luminance" maskUnits="userSpaceOnUse" x="0" y="64" width="183" height="24">
<path d="M183 64.3484H0V87.6518H183V64.3484Z" fill="white"/>
</mask>
<g mask="url(#mask0_4077_437)">
<path d="M156.679 76.3836H164.682L160.644 70.0462L156.679 76.3836ZM143.466 86.317V83.5599L146.256 83.2428C147.221 83.1205 147.63 82.2375 147.749 82.0357L154.701 70.7316C155.267 69.8429 154.714 69.0623 153.987 68.9812L150.334 68.5518V65.7664H166.181C167.071 65.7664 167.635 66.3707 167.998 66.8953L177.254 81.0275C177.983 82.1551 178.548 83.0452 179.477 83.1675L182.39 83.4931V86.317H164.564V83.5315L166.827 83.2485C167.919 83.1291 168.809 82.6428 167.919 81.3104L167.071 80.0166H154.416L153.446 81.5934C152.843 82.5603 153.446 83.1291 154.377 83.2485L156.64 83.5315V86.317H143.466Z" fill="#979798"/>
<path d="M128.511 82.3572H123.256V69.6811H128.511C133.522 69.6811 135.626 70.8541 135.626 76.0199C135.626 81.2297 133.522 82.3572 128.511 82.3572ZM131.661 65.7666H111.28L111.276 68.5521L113.829 68.8151C114.786 68.9545 115.172 69.6413 115.172 70.5669V81.6321C115.172 82.3985 114.847 83.1293 114.001 83.2488L111.265 83.6042V86.3086L131.661 86.3172C141.039 86.3172 145.083 81.7543 145.083 75.7397C145.083 70.3295 141.039 65.7666 131.661 65.7666Z" fill="#979798"/>
<path d="M0.609863 86.3175H17.099V83.5703L14.2732 83.249C13.624 83.1679 12.9778 82.7655 12.9778 81.3878V78.0804H25.6702V81.2299C25.6702 82.1542 25.5079 83.0457 24.4175 83.1679L21.5462 83.4936V86.3175H38.0382V83.4936L35.127 83.1679C34.5632 83.0897 33.9155 82.6433 33.9155 81.4717V70.7719C33.9155 69.6813 34.3184 68.9547 35.1668 68.8751L38.0382 68.5523V65.7668H21.5462V68.5125L24.4175 68.8751C25.387 68.996 25.6702 69.7638 25.6702 70.7719V73.9612H12.9778V70.7321C12.9778 69.5206 13.4632 68.9547 14.3116 68.8751L17.099 68.5523V65.7668H0.648299V68.5523L3.39862 68.8751C4.49192 68.996 4.77236 69.8036 4.7325 70.8544V81.2683C4.7325 82.4399 4.40935 83.1295 3.35876 83.249L0.609863 83.5703V86.3175Z" fill="#979798"/>
<path d="M55.6619 68.9132C50.9755 68.9132 48.3063 70.6508 48.3063 75.9786C48.3063 81.3875 50.9755 83.1293 55.6619 83.1293C60.3511 83.1293 63.0203 81.3875 63.0203 75.9786C63.0203 70.6508 60.3511 68.9132 55.6619 68.9132ZM38.8496 75.9388C38.8496 69.4806 44.0641 64.9575 55.7032 64.9575C67.2653 64.9575 72.4797 69.4806 72.4797 75.9388C72.4797 82.5605 67.2653 87.0423 55.7032 87.0423C44.0641 87.0423 38.8496 82.5605 38.8496 75.9388Z" fill="#979798"/>
<path d="M73.3984 86.3175H86.5765V83.5703L83.7451 83.249C82.935 83.1679 82.4511 82.4883 82.4511 81.5512V71.0947L93.4078 85.5098C93.7683 85.9946 94.4558 86.3175 95.1021 86.3175H105.45V70.7321C105.45 70.0012 105.645 69.0002 106.704 68.8751L109.571 68.5523V65.7668H96.3961V68.5125L99.2672 68.8751C100.281 68.9974 100.519 69.8434 100.519 70.8117V80.9882L89.6457 66.6541C89.2427 66.1294 88.717 65.7668 87.9486 65.7668H73.3984V68.5523L76.1455 68.8751C77.114 69.0187 77.48 69.5107 77.48 70.8544V81.2683C77.48 82.5039 77.1421 83.0983 76.1044 83.249L73.3984 83.5703V86.3175Z" fill="#979798"/>
</g>
</g>
</g>
<defs>
<clipPath id="clip0_4077_437">
<rect width="182.4" height="151" fill="white" transform="translate(0.599609)"/>
</clipPath>
<clipPath id="clip1_4077_437">
<rect width="183" height="23.3034" fill="white" transform="translate(0 64.3484)"/>
</clipPath>
</defs>
</svg>
