<svg width="183" height="151" viewBox="0 0 183 151" fill="none" xmlns="http://www.w3.org/2000/svg">
<g clip-path="url(#clip0_4077_440)">
<g clip-path="url(#clip1_4077_440)">
<mask id="mask0_4077_440" style="mask-type:luminance" maskUnits="userSpaceOnUse" x="0" y="47" width="182" height="58">
<path d="M181.798 47H0.439941V105H181.798V47Z" fill="white"/>
</mask>
<g mask="url(#mask0_4077_440)">
<path d="M18.8622 57.481H6.32594V47H0.439941V73.8461H6.32594V62.7286H18.8622V73.8461H24.7458V47H18.8622V57.481Z" fill="#979798"/>
<path d="M146.678 48.5312C145.442 49.7946 145.392 51.638 145.361 52.7126V73.8461H151.236V65.2804H163.722V73.8461H169.624V47H151.279C149.536 47.0161 147.905 47.2691 146.678 48.5312ZM152.738 52.2456H163.723V60.0386H151.238V53.7788C151.262 53.4705 151.203 52.9117 151.463 52.5809C151.741 52.2321 152.184 52.2604 152.738 52.2456Z" fill="#979798"/>
<path d="M105.047 47H86.6682V73.8461H92.5543V52.2456H103.59C104.139 52.2604 104.588 52.2321 104.861 52.5803C105.124 52.9111 105.072 53.4699 105.091 53.7782V73.8454H110.971V52.7126C110.938 51.638 110.892 49.7946 109.662 48.5312C108.429 47.2691 106.8 47.0161 105.047 47Z" fill="#979798"/>
<path d="M75.576 67.0648C75.5548 67.3795 75.6082 67.9261 75.3487 68.2593C75.0699 68.6114 74.6222 68.5805 74.0763 68.5953H63.0429V47H57.1543V73.8461H75.5368C77.2852 73.8325 78.9153 73.5725 80.1453 72.3103C81.3804 71.0489 81.4273 69.2081 81.4607 68.1296V47H75.5773V67.0648H75.576Z" fill="#979798"/>
<path d="M140.48 52.7126C140.451 51.638 140.402 49.7946 139.173 48.5312C137.943 47.2691 136.31 47.0161 134.564 47H122.07H116.19V73.8461H134.564C136.31 73.8325 137.943 73.5725 139.173 72.3103C140.402 71.0489 140.451 69.2081 140.48 68.1296V52.7126ZM134.617 67.0648C134.596 67.3795 134.651 67.9261 134.393 68.2593C134.116 68.6114 133.664 68.5805 133.117 68.5953H122.07V52.2456H133.117C133.665 52.2604 134.117 52.2321 134.393 52.5803C134.65 52.9111 134.596 53.4699 134.617 53.7782V67.0648Z" fill="#979798"/>
<path d="M40.9555 58.7457L33.8164 47H26.825L37.8114 63.9251V73.8461H44.0956V63.9251L55.0802 47H48.0862L40.9555 58.7457Z" fill="#979798"/>
<path d="M181.798 47H175.521V73.8461H181.798V47Z" fill="#979798"/>
<path d="M181.798 80.8696H0.439941V84.9135H181.798V80.8696Z" fill="#979798"/>
<path d="M118.369 100.95C118.948 100.884 119.471 100.71 119.893 100.272C120.466 99.6882 120.493 98.8378 120.505 98.3388V95.1504C120.493 94.654 120.465 93.8003 119.893 93.2158C119.327 92.632 118.573 92.5138 117.766 92.5061H109.222V104.999H111.984V100.98H115.475L118.165 104.999H121.08L118.369 100.95ZM117.909 97.8647C117.896 97.9933 117.882 98.1275 117.807 98.2264C117.679 98.3882 117.469 98.3773 117.217 98.3773H111.985V95.1087H117.217C117.469 95.1158 117.679 95.1022 117.807 95.2654C117.882 95.363 117.896 95.5024 117.909 95.6244V97.8647Z" fill="#979798"/>
<path d="M84.9532 100.95C85.5332 100.884 86.0554 100.71 86.4805 100.272C87.0509 99.6882 87.0792 98.8378 87.0901 98.3388V95.1504C87.0792 94.654 87.0509 93.8003 86.4805 93.2158C85.9134 92.632 85.1569 92.5138 84.3475 92.5061H75.8076V104.999H78.5669V100.98H82.0597L84.7496 104.999H87.6618L84.9532 100.95ZM84.4895 97.8647C84.4799 97.9933 84.465 98.1275 84.3906 98.2264C84.2634 98.3882 84.0546 98.3773 83.8009 98.3773H78.5675V95.1087H83.8009C84.0546 95.1158 84.2634 95.1022 84.3906 95.2654C84.4657 95.363 84.4805 95.5024 84.4895 95.6244V97.8647Z" fill="#979798"/>
<path d="M49.2314 92.5068V95.2423H53.4994V105H56.2362V95.2423H60.5082V92.5068H49.2314Z" fill="#979798"/>
<path d="M20.7097 92.5068V105H23.444V97.096L26.1204 105H28.5374L31.2112 97.096V105H33.9449V92.5068H30.319L27.3273 101.305L24.3361 92.5068H20.7097Z" fill="#979798"/>
<path d="M150.268 105H153.001V101.419H158.786C159.597 101.415 160.352 101.295 160.916 100.711C161.489 100.122 161.515 99.2733 161.528 98.7793V95.1529C161.515 94.6545 161.489 93.8054 160.916 93.2183C160.351 92.637 159.597 92.515 158.786 92.5073H150.268V105ZM158.922 98.2989C158.916 98.4222 158.903 98.5616 158.828 98.6605C158.699 98.8198 158.49 98.8159 158.236 98.8159H153.001V95.1079H158.236C158.49 95.113 158.699 95.1028 158.828 95.2672C158.903 95.3636 158.917 95.4991 158.922 95.6249V98.2989Z" fill="#979798"/>
<path d="M98.3709 95.3952C98.4924 95.2372 98.7011 95.2456 98.9522 95.2398H106.816V92.5068H98.274C97.4646 92.5145 96.7119 92.6365 96.139 93.2178C95.5666 93.8049 95.5468 94.654 95.5339 95.1505V102.356C95.5474 102.854 95.5673 103.707 96.139 104.291C96.7125 104.872 97.4646 104.994 98.274 105H104.073C104.884 104.995 105.637 104.873 106.207 104.291C106.775 103.707 106.802 102.854 106.815 102.356V97.5122H100.921V99.9516H104.077V101.747C104.073 101.874 104.058 102.013 103.978 102.109C103.852 102.269 103.643 102.26 103.391 102.264H98.9516C98.6998 102.26 98.4917 102.269 98.3703 102.107C98.2926 102.013 98.274 101.874 98.2689 101.747V95.7575C98.274 95.6335 98.2932 95.4953 98.3709 95.3952Z" fill="#979798"/>
<path d="M145.137 101.852C145.128 101.997 145.152 102.251 145.034 102.408C144.901 102.57 144.696 102.557 144.44 102.563H139.316V92.5068H136.584V105H145.121C145.931 104.996 146.686 104.874 147.262 104.291C147.832 103.703 147.854 102.848 147.868 102.35V92.5068H145.137V101.852Z" fill="#979798"/>
<path d="M133.65 93.2183C133.084 92.637 132.325 92.515 131.518 92.5073H125.718C124.91 92.515 124.156 92.637 123.586 93.2183C123.015 93.8054 122.992 94.6545 122.977 95.1529V102.357C122.992 102.854 123.016 103.708 123.586 104.292C124.156 104.873 124.91 104.995 125.718 105.001H131.518C132.325 104.995 133.084 104.873 133.65 104.292C134.225 103.708 134.249 102.854 134.261 102.357V95.1522C134.248 94.6538 134.224 93.8048 133.65 93.2183ZM131.522 101.747C131.516 101.875 131.501 102.014 131.427 102.109C131.298 102.27 131.093 102.261 130.838 102.264H126.401C126.148 102.261 125.939 102.27 125.814 102.109C125.735 102.014 125.718 101.875 125.711 101.747V95.758C125.718 95.6333 125.735 95.4953 125.814 95.397C125.939 95.2365 126.148 95.2486 126.401 95.239H130.838C131.093 95.2486 131.298 95.2365 131.427 95.397C131.501 95.4946 131.518 95.6327 131.522 95.758V101.747Z" fill="#979798"/>
<path d="M72.8524 93.2183C72.2858 92.637 71.5273 92.515 70.7212 92.5073H64.9194C64.1133 92.515 63.3586 92.637 62.7882 93.2183C62.2172 93.8054 62.1947 94.6545 62.1799 95.1529V102.357C62.1941 102.854 62.2172 103.708 62.7882 104.292C63.3586 104.873 64.1133 104.995 64.9194 105.001H70.7212C71.5279 104.995 72.2858 104.873 72.8524 104.292C73.4272 103.708 73.4497 102.854 73.4606 102.357V95.1522C73.4497 94.6538 73.4272 93.8048 72.8524 93.2183ZM70.7238 101.747C70.7212 101.875 70.7033 102.014 70.6274 102.109C70.5015 102.27 70.2941 102.261 70.0385 102.264H65.6015C65.3496 102.261 65.1422 102.27 65.0169 102.109C64.9392 102.014 64.9194 101.875 64.9129 101.747V95.758C64.9194 95.6333 64.9392 95.4953 65.0169 95.397C65.1415 95.2365 65.3496 95.2486 65.6015 95.239H70.0385C70.2941 95.2486 70.5022 95.2365 70.6274 95.397C70.7038 95.4946 70.7212 95.6327 70.7238 95.758V101.747Z" fill="#979798"/>
<path d="M46.946 93.2183C46.3807 92.637 45.6222 92.515 44.8148 92.5073H39.0155C38.2062 92.515 37.4509 92.637 36.8843 93.2183C36.3121 93.8054 36.2883 94.6545 36.2722 95.1529V102.357C36.2883 102.854 36.3127 103.708 36.8843 104.292C37.4509 104.873 38.2069 104.995 39.0155 105.001H44.8148C45.6227 104.995 46.3807 104.873 46.946 104.292C47.522 103.708 47.5432 102.854 47.5567 102.357V95.1522C47.5432 94.6538 47.522 93.8048 46.946 93.2183ZM44.8186 101.747C44.8148 101.875 44.8013 102.014 44.7224 102.109C44.5964 102.27 44.3877 102.261 44.134 102.264H39.697C39.4439 102.261 39.2345 102.27 39.1118 102.109C39.0341 102.014 39.0155 101.875 39.0084 101.747V95.758C39.0155 95.6333 39.0341 95.4953 39.1118 95.397C39.2345 95.2365 39.4439 95.2486 39.697 95.239H44.134C44.387 95.2486 44.5964 95.2365 44.7224 95.397C44.8013 95.4946 44.8148 95.6327 44.8186 95.758V101.747Z" fill="#979798"/>
</g>
</g>
</g>
<defs>
<clipPath id="clip0_4077_440">
<rect width="182.4" height="151" fill="white"/>
</clipPath>
<clipPath id="clip1_4077_440">
<rect width="182.12" height="58" fill="white" transform="translate(0.439941 47)"/>
</clipPath>
</defs>
</svg>
