<svg width="184" height="151" viewBox="0 0 184 151" fill="none" xmlns="http://www.w3.org/2000/svg">
<g clip-path="url(#clip0_4077_433)">
<g clip-path="url(#clip1_4077_433)">
<mask id="mask0_4077_433" style="mask-type:luminance" maskUnits="userSpaceOnUse" x="0" y="60" width="184" height="31">
<path d="M183.177 60H0.82373V90.9219H183.177V60Z" fill="white"/>
</mask>
<g mask="url(#mask0_4077_433)">
<path d="M81.8967 74.4513C81.893 72.7459 81.893 71.0395 81.8967 69.3331C80.4298 69.3231 78.9666 69.3259 77.4998 69.3295C77.4961 67.4691 77.4925 65.6079 77.5071 63.7512C75.5687 63.7613 73.6262 63.7576 71.6886 63.7549V69.3259H69.276C69.2724 71.0331 69.276 72.7404 69.276 74.4513H71.6849V74.455H71.6886C71.6948 76.0129 71.6867 77.5725 71.6857 79.1313C71.6849 79.2607 71.6849 79.39 71.6849 79.5194C71.6849 79.6169 71.6838 79.7153 71.6838 79.8128H71.6849C71.6849 80.7211 71.6875 81.6294 71.6995 82.5377C71.7484 84.9938 72.6423 87.6249 74.7102 89.0679C76.5304 90.3698 78.7981 90.6131 80.9747 90.5839C79.1844 88.719 78.1103 85.9941 77.6785 83.8058L77.6657 83.7421L77.6573 83.6774C77.5994 83.1973 77.5264 82.4256 77.5344 81.6111C77.5209 81.4371 77.5107 81.264 77.5034 81.0937C77.4972 80.6509 77.4972 80.2081 77.4954 79.7663C77.487 77.9943 77.5053 76.2242 77.4998 74.455C78.963 74.4586 80.4298 74.4586 81.8967 74.4513Z" fill="#979798"/>
<path d="M68.1893 65.3514C68.1784 63.6414 68.1784 61.9323 68.1893 60.2223C65.3183 59.7404 62.0123 59.9308 59.7121 61.915C57.654 63.7644 57.2496 66.7052 57.3232 69.3299C57.3039 69.3299 57.2839 69.3299 57.2649 69.3299H54.8086C54.8115 71.0381 54.8115 72.7472 54.8086 74.4563H56.9323C57.0672 74.4554 57.2022 74.4545 57.3367 74.4545V74.4563H57.3488V77.2577H57.3397C57.344 81.4512 57.3459 85.6465 57.3367 89.84H60.0388C61.1067 89.84 62.1753 89.841 63.2431 89.8373C63.2402 85.5809 63.2377 81.3255 63.2439 77.071V74.4508H67.1834C67.1798 72.7408 67.1798 71.0335 67.1834 69.3263C67.1834 69.3263 63.3186 69.3263 63.2147 69.3263C63.2676 68.1729 63.1348 66.7936 64.0842 65.939C65.2275 64.9788 66.8209 65.2913 68.1893 65.3514Z" fill="#979798"/>
<path d="M46.7774 89.8396H49.4014C49.8978 89.8396 50.3942 89.8387 50.8916 89.8396H52.5499C52.5142 85.4466 52.5846 81.0536 52.5142 76.6597C52.4686 74.0814 51.4901 71.2217 49.0324 70.0119C45.5177 68.2636 41.3987 68.658 37.6488 69.2593C37.6353 71.1233 37.6451 72.9909 37.6426 74.8595C40.0551 74.3356 42.6861 73.7899 45.0749 74.6836C46.1862 75.0663 46.6016 76.2379 46.7737 77.2965C45.103 77.086 43.4075 76.6879 41.7222 77.0295C39.7243 77.2755 37.7447 78.254 36.6149 79.9667C34.7928 82.6925 35.313 86.815 38.0117 88.7855C40.5442 90.716 44.2237 90.5083 46.7985 88.7609C46.7949 89.0297 46.7847 89.5663 46.7774 89.8396ZM46.5341 85.401C45.0392 85.862 43.2146 86.3722 41.8425 85.3272C40.5898 84.4444 40.7521 82.3163 42.1095 81.6202C43.495 80.8887 45.1129 81.1447 46.5844 81.4371C46.7172 82.7563 46.7063 84.0855 46.5341 85.401Z" fill="#979798"/>
<path d="M16.5864 62.0239C18.9397 62.0376 21.2928 62.0276 23.646 62.0276C20.1987 66.6638 16.8288 71.3593 13.3605 75.9782C16.4489 80.5935 19.4881 85.2362 22.6011 89.8333C20.1604 89.8515 17.7188 89.8269 15.2809 89.8478C12.5624 85.7217 9.8366 81.5993 7.13081 77.4659C7.12443 81.592 7.12443 85.7181 7.13446 89.8442C5.03087 89.8333 2.92731 89.8405 0.82373 89.8405C0.831019 80.5717 0.831019 71.3028 0.82373 62.0339C2.92731 62.0239 5.02817 62.0339 7.13081 62.0239C7.12716 66.3996 7.12082 70.7753 7.13446 75.151C10.2721 70.7653 13.4416 66.4033 16.5864 62.0239Z" fill="#979798"/>
<path d="M24.0645 69.393C26.045 69.383 28.0284 69.393 30.0126 69.383C30.0053 70.6912 30.0026 71.9995 29.9807 73.305C30.9419 71.1376 33.0199 69.7274 35.3276 69.3547C35.3312 71.2961 35.3558 73.2412 35.303 75.1826C32.7739 75.4851 30.1748 77.3709 30.0828 80.1004C30.0126 83.3437 30.0691 86.5942 30.0654 89.8412C28.0639 89.8412 26.0623 89.8412 24.0645 89.8366C24.0681 83.0203 24.0681 76.2066 24.0645 69.393Z" fill="#979798"/>
<path d="M129.66 85.6848C128.83 86.0164 128.665 86.1822 127.67 86.5139C126.674 86.8464 125.512 86.8464 124.517 86.5139C121.364 85.1874 123.356 80.3753 123.356 80.3753C136.297 77.2231 134.472 70.2546 130.988 69.9221C128.83 69.9221 121.033 70.2546 117.382 79.2137C116.885 80.5411 113.4 89.9986 121.198 90.6618C122.858 90.6618 124.683 90.496 126.342 89.667C127.835 88.837 128.997 87.8412 129.992 86.5139C130.822 85.0207 129.66 85.6848 129.66 85.6848ZM127.835 72.4111C128.83 72.7427 126.342 77.7206 126.342 77.7206C125.347 78.0522 124.351 78.3847 123.688 78.3847C124.019 77.7206 125.844 71.4162 127.835 72.4111Z" fill="#979798"/>
<path d="M159.858 87.5095C159.692 87.3437 159.36 87.3437 159.194 87.1779C158.198 86.5137 159.028 84.6889 159.194 83.6932L162.181 73.0751C162.347 72.4109 163.508 68.9271 158.862 69.5904C154.88 70.2545 152.059 72.7426 152.059 72.7426C152.392 71.7477 152.723 70.2545 152.059 69.922C151.23 69.5904 146.418 71.0836 145.257 72.0793C144.925 72.0793 144.428 72.5767 144.925 73.0751C145.422 73.7383 145.589 74.2357 145.257 75.3973C144.593 77.3888 142.603 84.3573 142.104 85.6847C141.607 87.0121 140.943 89.501 142.104 90.3301C142.934 90.9942 146.418 89.501 146.916 89.1685C147.414 89.0027 147.911 88.6711 148.077 88.5053C148.741 87.8411 147.745 87.5095 148.741 84.0248C148.741 83.859 149.903 80.3752 150.732 77.3888C151.396 74.8999 153.718 73.7383 154.548 73.5725C155.875 73.4067 155.544 74.5682 155.378 75.3973C154.217 79.0478 152.889 84.5231 152.392 85.8505C151.893 87.1779 151.064 89.8326 152.392 90.3301C153.552 91.16 158.862 88.8369 159.36 88.5053C160.355 87.8411 160.355 87.5095 159.858 87.5095Z" fill="#979798"/>
<path d="M139.616 87.5096C139.284 87.3438 139.118 87.3438 138.952 87.178C137.957 86.5139 138.62 84.6891 138.952 83.6933L142.105 73.0752C142.27 71.9136 142.934 70.4204 142.105 69.9221C141.109 69.5905 136.297 71.0837 135.136 72.0794C134.969 72.0794 134.472 72.5769 134.969 73.0752C135.468 73.7384 135.468 74.2359 135.136 75.3974C134.638 77.389 132.315 84.5233 131.817 85.8506C131.32 87.178 130.656 89.8328 132.149 90.3302C133.311 91.1601 138.288 89.0028 138.952 88.5054C140.113 88.007 140.113 87.5096 139.616 87.5096Z" fill="#979798"/>
<path d="M138.62 67.4333C138.951 68.0965 141.938 66.77 143.432 65.9401C143.598 65.7743 144.261 65.276 144.427 64.7785C144.759 63.617 144.925 63.1195 145.091 62.2896C145.257 61.958 145.257 61.4605 144.759 61.2938C144.095 61.128 140.113 61.6263 139.117 63.2853C138.786 63.9486 137.624 67.1017 138.62 67.4333Z" fill="#979798"/>
<path d="M183.086 79.048C182.589 77.2232 179.601 76.7248 178.441 77.7206C177.777 78.3838 177.445 79.7112 177.611 80.0437C180.431 79.2138 180.929 81.7027 180.431 82.6975C179.436 84.1917 179.104 84.6891 177.777 84.6891H168.983C168.818 84.5233 168.651 84.3575 168.983 84.0249C169.481 83.3617 178.108 71.582 178.441 71.0837C178.607 70.7521 179.104 69.9221 177.943 69.9221H168.319C167.324 69.9221 166.826 70.2537 165.997 71.0837C165.333 71.9137 164.504 74.4017 164.005 76.0616C164.005 76.0616 164.005 76.7248 165.001 75.8958C165.167 75.7291 165.498 75.0658 165.997 75.0658H171.804C173.629 75.0658 164.005 84.1917 161.019 89.0028C160.522 89.8328 161.351 89.8328 161.849 89.8328H174.459C177.611 89.8328 177.113 90.3302 178.772 88.0071C178.772 88.0071 183.915 81.3711 183.086 79.048Z" fill="#979798"/>
<path d="M113.732 84.6891L117.217 71.2495C119.539 63.1194 120.866 62.7878 121.696 61.9579H116.221C114.23 61.9579 112.736 64.7784 112.405 66.6041L110.082 75.0658H105.104C105.104 75.0658 108.091 64.281 108.423 63.1194C108.588 62.622 108.588 61.9579 107.594 61.9579C107.427 61.9579 96.9744 61.6262 93.6556 62.7878C92.1625 63.2852 90.006 64.6126 89.3418 66.6041C88.8444 67.7657 88.1802 69.9221 89.6744 73.9043C89.8404 74.4017 90.1719 74.7342 90.3375 74.9C90.8349 75.2316 95.1487 74.5684 94.9831 74.5684C95.3157 74.5684 95.4813 74.4017 95.1487 73.7384C94.8172 72.9085 93.8222 71.4153 93.6556 69.9221C92.9925 64.1152 97.1403 63.2852 97.8037 63.1194C98.7994 62.9536 99.6295 62.9536 100.624 63.1194C100.957 63.1194 101.786 63.2852 101.952 63.6178C102.284 64.281 101.786 65.4426 101.454 66.7699C101.123 67.7657 98.3019 78.0522 97.4719 80.8727C96.9744 83.0301 94.8172 87.6755 92.6607 88.3396C92.1625 88.5054 91.4991 88.5054 90.8349 88.3396C90.1719 88.1738 89.5078 87.8413 89.0103 87.5096C87.6828 86.1823 86.8531 83.5275 86.6871 81.5369C86.5212 79.0479 87.0198 77.2232 86.5212 77.2232C85.6558 77.2232 82.7644 78.3656 81.5918 79.2074C81.59 79.2092 81.5882 79.2092 81.5864 79.211C81.1108 79.5508 81.0798 79.6164 81.0798 79.6164C81.0561 79.6401 81.0368 79.6638 81.024 79.6857C80.718 80.2077 80.7392 82.0635 80.8803 83.1959C81.3785 85.6849 82.706 88.5054 84.6966 89.8328C90.006 93.4824 99.2976 86.8464 100.292 86.1823C101.786 84.8549 102.782 83.0301 103.113 81.7027C103.611 80.0437 104.44 77.2232 104.44 77.2232H109.418C109.418 77.2232 107.427 84.6891 106.929 86.5139C106.432 88.0071 106.099 90.496 107.427 90.3302C112.405 90.3302 114.396 88.5054 114.562 88.3396C114.728 88.1738 114.728 87.8413 114.562 87.6755C114.23 87.5096 113.069 86.3481 113.732 84.6891Z" fill="#979798"/>
</g>
</g>
</g>
<defs>
<clipPath id="clip0_4077_433">
<rect width="182.4" height="151" fill="white" transform="translate(0.799805)"/>
</clipPath>
<clipPath id="clip1_4077_433">
<rect width="182.353" height="31" fill="white" transform="translate(0.82373 60)"/>
</clipPath>
</defs>
</svg>
