<svg width="183" height="151" viewBox="0 0 183 151" fill="none" xmlns="http://www.w3.org/2000/svg">
<g clip-path="url(#clip0_4077_435)">
<g clip-path="url(#clip1_4077_435)">
<mask id="mask0_4077_435" style="mask-type:luminance" maskUnits="userSpaceOnUse" x="0" y="46" width="183" height="60">
<path d="M182.337 46H0V105.674H182.337V46Z" fill="white"/>
</mask>
<g mask="url(#mask0_4077_435)">
<path d="M70.0194 98.0552C63.2347 93.6869 54.0269 92.9204 39.1772 97.0381C23.3464 100.756 18.0682 103.14 11.1365 98.3551C8.4734 96.0047 7.51864 92.2201 8.23159 86.7688C9.88515 77.8822 14.3538 69.3302 22.2911 59.844C26.7217 54.9093 30.8314 50.6745 36.2581 48.9739C40.4173 47.9071 40.0284 51.174 39.5252 51.6413C38.9942 51.6413 38.102 51.7249 37.4126 52.1745C36.8531 52.6083 35.317 54.0088 35.2346 55.8928C35.1155 58.7768 38.1018 58.1765 39.3898 56.593C40.778 54.8086 42.8298 51.3916 41.2159 48.2069C40.5394 47.0733 39.3706 46.2899 37.9194 46.0232C32.9503 45.7393 28.3224 48.1069 24.0514 50.7244C14.7108 57.2096 7.23876 66.196 3.01082 76.0326C0.573202 81.9676 -1.63125 90.4692 1.67315 97.3887C4.22929 102.19 9.53621 104.74 15.8676 104.207C20.3083 103.741 25.6778 102.306 29.2892 101.44C32.9007 100.572 51.3871 94.2211 57.4612 105.275C57.4612 105.275 59.481 101.356 64.5288 101.273C68.6787 100.89 74.6656 102.473 79.0255 105.674C77.5729 103.491 73.4548 100.273 70.0194 98.0552Z" fill="#979798"/>
<path d="M41.0623 60.961C37.6047 58.6937 30.6554 63.0284 25.0893 70.4636C19.9994 77.133 17.8015 84.8844 20.1934 88.4689C23.7514 92.6867 30.3566 86.5517 33.1655 83.268L33.5279 82.8842C35.438 80.8335 36.9139 78.3659 38.3423 75.9983C38.3423 75.9983 39.6551 73.831 39.7178 73.7308C40.5291 73.5813 41.5065 73.3478 42.6078 73.0309C42.5921 73.0806 38.3942 80.1329 38.8225 83.6334C38.9558 84.7013 38.854 88.6024 42.6648 89.7859C47.7438 90.6367 51.7994 86.7016 55.3773 83.2005C55.3773 83.2005 55.9871 82.6176 56.3319 82.2847C56.2446 82.634 56.1309 83.0999 56.1309 83.0999C54.6439 88.2682 56.6482 89.3526 57.902 89.7528C61.6912 90.8538 66.2179 85.3517 66.2326 85.3517C66.1151 87.0848 65.7719 88.5186 67.5998 89.669C69.3252 90.2864 71.0713 89.3454 72.3985 88.4617C77.1792 85.0941 81.0305 79.8234 84.1414 75.2673H82.1572C82.1337 75.2673 77.2607 82.3264 74.0965 83.8607C74.0914 83.8607 73.5158 84.1562 73.1839 83.9225C72.7731 83.5721 72.9352 82.844 73.1889 82.3283C73.2049 82.2946 85.4062 61.1435 85.4062 61.1435H79.6453C79.6453 61.1435 79.0159 62.1611 78.9647 62.2278C78.9259 62.1945 78.8336 62.0196 78.7696 61.9357C75.2003 57.0011 67.1175 64.5915 61.0323 73.3938C58.6895 76.7785 55.7067 80.5895 52.6138 83.3402C52.6138 83.3402 48.0318 87.5381 46.074 84.522C45.3583 83.2547 45.5785 81.4021 45.9822 80.1853C48.2617 73.7 52.1894 67.8142 56.6589 64.2628C57.9207 63.2798 59.2921 62.9955 59.9727 63.4124C60.6211 63.7965 60.7258 64.746 60.3155 65.3963C59.2746 65.3631 58.4406 65.6793 57.7626 66.3796C56.4269 67.7801 55.9629 69.1307 56.3875 70.398C58.4504 73.3321 62.5646 67.5302 62.3656 63.9958C62.2945 62.7285 61.618 61.5285 60.6086 60.9444C59.104 60.0446 56.8089 60.2776 55.3236 60.995C53.3352 61.7449 50.1875 64.3621 48.3503 66.3964C46.0373 68.9475 42.0706 71.7814 40.83 71.4641C41.2364 70.38 44.5871 63.5281 41.0623 60.961ZM68.8369 71.0974C69.9577 69.5471 73.2195 65.3956 74.0146 64.6957C76.6891 62.344 77.7581 63.3787 77.8506 64.1117C75.3546 68.5796 72.4087 73.6982 69.6391 78.2998C69.6447 78.2834 68.7723 79.6167 68.7723 79.6167C67.549 81.4836 66.3173 83.0842 64.3082 84.2011C64.0217 84.2849 63.5494 84.3183 63.2352 84.0842C62.8568 83.8341 62.7075 83.4172 62.7501 82.9834C62.8704 81.5502 64.3308 77.1662 68.8369 71.0974ZM37.4967 73.7813C37.4967 73.7813 37.4466 73.9319 37.4217 73.9811C37.4153 73.9811 34.91 78.0652 34.91 78.0652C33.398 80.0829 31.5101 82.6176 29.1502 83.8341C28.4507 84.0676 27.4839 84.2179 26.9911 83.6014C25.9465 82.3509 26.4849 80.6171 26.9223 79.2167L27.077 78.7164C28.3311 75.3158 30.3208 72.3142 32.2574 69.53C32.2816 69.5136 32.3359 69.497 32.3555 69.497C32.36 69.5136 32.3677 69.5136 32.3712 69.5471C33.5865 71.8808 35.8652 72.964 37.5694 73.4649C37.5796 73.4649 37.5906 73.4815 37.5906 73.5151C37.5908 73.5647 37.563 73.6319 37.4967 73.7813ZM39.8702 68.9637C39.8593 68.997 38.7543 71.5308 38.7543 71.5308C38.5946 71.6641 38.3421 71.5976 38.0526 71.5308L37.5567 71.4471C35.9993 70.9638 34.8245 69.9301 34.4624 68.6965C33.9627 66.2957 36.0147 64.4118 36.9189 63.7285C37.7863 63.1278 39.1349 62.8113 39.9181 63.4284C40.401 63.9954 40.5841 64.7287 40.5841 65.5294C40.5843 66.6128 40.2498 67.8297 39.8702 68.9637Z" fill="#979798"/>
<path d="M112.7 76.6988C112.145 75.4986 110.826 74.7316 109.421 74.8148C104.857 75.2319 100.393 78.9829 98.0492 84.3675C96.8193 87.1354 96.1481 89.4191 95.708 93.0534C97.127 91.42 100.021 88.7361 103.306 87.2688C103.306 87.2688 103.754 83.7846 106.032 80.6835C106.895 79.3993 108.621 77.3322 110.559 77.8822C112.252 78.4494 111.658 83.1342 109.407 87.6679C107.741 91.0027 105.193 94.338 102.615 96.6381C100.336 98.5722 96.9631 100.906 94.0125 99.1057C92.154 98.0059 91.2061 95.7046 91.4064 92.737C92.2945 84.3181 96.1287 77.1491 101.616 68.9801C107.274 61.3944 113.511 53.6088 121.913 49.4569C123.626 48.5901 125.214 48.3901 126.585 48.9236C126.585 48.9236 118.698 53.2582 114.939 61.2776C113.982 63.3118 112.652 66.0619 113.992 68.4962C114.691 69.7631 115.934 69.8632 116.935 69.7965C121.544 68.7292 124.52 64.4281 126.953 60.4939C128.363 57.5097 129.618 54.5421 129.618 51.241C129.618 50.841 129.597 50.3077 129.563 49.9072C131.764 48.7407 136.279 50.8075 136.279 50.8075C139.807 51.975 147.319 57.7271 149.853 58.8269C151.089 57.3933 153.12 55.2262 154.264 54.1423L152.608 53.1252C149.957 51.508 147.156 49.974 144.398 48.457C138.135 45.0398 133.037 46.2398 130.442 47.1736C129.423 47.5401 128.491 47.857 128.491 47.857C126.565 45.7564 123.407 45.956 121.08 46.5232C112.713 48.9238 104.943 54.7754 96.6139 64.9288C90.4902 72.8814 86.6917 79.7504 84.667 86.5355C83.1065 91.1032 82.6322 97.8221 86.4411 101.807C89.6797 105.19 93.974 104.457 97.0064 103.241C103.577 100.006 109.482 93.037 112.424 85.0179C113.135 82.6342 113.922 79.2666 112.7 76.6988ZM127.808 51.5748C126.938 61.5446 119.185 67.3968 117.266 67.863C116.103 68.096 114.119 67.5795 115.891 63.3955C118.498 57.7599 122.951 52.9755 127.729 50.5246C127.845 50.9415 127.842 51.2075 127.808 51.5748Z" fill="#979798"/>
<path d="M173.802 52.8414C169.632 55.2092 165.309 56.7425 160.074 56.2092C158.624 57.8435 157.212 59.5272 155.91 61.2607C163.256 63.128 171.043 58.9768 175.387 55.026C179.981 51.0413 182.337 46.0234 182.337 46.0234C182.337 46.0234 178.894 49.9576 173.802 52.8414Z" fill="#979798"/>
<path d="M91.8941 66.1553L94.9814 61.1436H89.5104L86.4243 66.1553H91.8941Z" fill="#979798"/>
<path d="M160.052 98.5195C159.465 98.9195 158.638 98.612 158.947 97.6953C159.716 95.3613 162.777 90.6047 162.777 90.6047L171.3 75.4954H165.462C165.184 75.951 164.591 76.9973 164.591 76.9973C164.321 76.5477 163.513 75.5475 163.18 75.3316C161.754 74.4306 159.662 74.8566 158.217 75.6734C151.941 79.3416 147.362 86.5892 143.75 92.2412C143.75 92.2412 139.947 98.5241 137.837 98.9913C136.19 99.1248 136.36 96.9064 136.43 96.3896C137.068 92.6545 138.547 89.1037 140.038 85.8859C143.069 83.7854 146.529 81.0347 149.673 78.0172C156.497 71.498 162.249 64.1123 163.091 62.4618C163.091 62.4618 162.181 62.6454 161.106 62.6786C155.856 69.9974 145.114 80.6344 141.857 82.2179C143.3 78.7495 152.621 62.1949 160.554 54.276L161.802 53.0752C163.731 51.1913 165.731 49.2575 167.29 48.9406C167.455 48.924 167.667 48.9406 167.85 49.3247C167.919 50.7915 167.373 51.8754 166.746 53.109L165.868 54.9097C165.868 54.9097 167.112 54.6762 167.929 54.4088C168.877 52.6258 169.927 50.6245 169.541 48.241C169.411 47.474 168.855 46.8906 168.129 46.7571C165.763 46.307 163.184 48.057 161.11 49.4746L161.026 49.5242C150.358 57.8769 141.352 69.914 133.477 86.3525C132.906 86.7853 130.701 87.3027 130.326 87.0524C131.104 85.4522 132.082 83.3011 132.573 80.967C132.657 80.3001 132.736 79.6168 132.736 78.9501C132.736 77.5151 132.392 76.1652 131.106 75.2319C129.598 74.4815 127.734 74.8319 126.477 75.3984C120.848 77.7325 116.641 83.5014 113.605 88.2522C111.972 91.2706 110.344 94.5034 109.894 98.2051C109.575 101.106 110.222 102.973 111.872 103.907C113.568 104.773 115.705 103.873 116.543 103.44C122.246 100.439 126.231 94.4206 129.372 88.9185C129.496 88.9021 131.212 88.8524 132.509 88.5185C132.526 88.5185 132.533 88.5185 132.562 88.5361C132.488 88.785 131.818 90.7863 131.818 90.7863C129.827 96.621 128.906 100.589 130.786 102.94C133.474 106.258 137.921 102.823 141.541 98.2879C140.764 103.723 143.582 104.573 145.73 104.157C148.198 103.49 150.948 100.856 152.224 99.5056C151.814 101.089 151.926 103.924 154.171 104.207C155.709 104.491 156.861 103.655 158.193 102.938C162.972 100.336 168.693 91.6692 170.178 89.1634H168.231C166.119 92.3529 163.433 96.5347 160.052 98.5195ZM117.154 97.9391C116.85 97.4889 116.75 96.9966 116.74 96.4645C116.682 93.1955 120.201 87.3412 122.685 84.1519C122.69 84.1519 122.69 84.1519 122.69 84.1519C123.731 86.43 126.088 87.8943 127.511 88.5114C125.744 92.4463 119.683 100.873 117.154 97.9391ZM128.509 86.7523C128.34 86.8697 125.368 85.8689 124.793 83.1182C124.306 80.7499 125.938 78.8995 127.516 77.9666C128.194 77.4329 129.215 77.2499 129.963 77.5156C130.658 77.983 130.846 78.8173 130.846 79.7162C130.846 80.2675 130.773 80.8338 130.709 81.3504C130.709 81.3504 130.697 81.4509 130.695 81.4675C130.2 83.3175 129.442 85.135 128.509 86.7523ZM152.349 96.8889C152.346 96.8889 151.785 97.3889 151.785 97.3889C150.982 98.1054 150.157 98.8724 149.161 98.4888C148.886 98.3887 148.692 98.0224 148.646 97.7382C148.601 95.6875 149.525 93.7874 150.421 91.9372L150.651 91.4533C153.228 87.1521 156.223 82.0839 160.623 78.5666C161.365 78.032 162.17 77.5828 163.018 77.9331C163.214 78.1161 163.442 78.4332 163.442 78.7495C163.442 78.8501 163.352 79.1165 163.301 79.1995C162.072 81.1843 160.902 83.2681 159.764 85.2684C157.539 89.2199 155.233 93.3039 152.349 96.8889Z" fill="#979798"/>
</g>
</g>
</g>
<defs>
<clipPath id="clip0_4077_435">
<rect width="182.4" height="151" fill="white" transform="translate(0.200195)"/>
</clipPath>
<clipPath id="clip1_4077_435">
<rect width="183" height="59.6739" fill="white" transform="translate(0 46)"/>
</clipPath>
</defs>
</svg>
