<svg width="183" height="151" viewBox="0 0 183 151" fill="none" xmlns="http://www.w3.org/2000/svg">
<g clip-path="url(#clip0_4077_431)">
<g clip-path="url(#clip1_4077_431)">
<mask id="mask0_4077_431" style="mask-type:luminance" maskUnits="userSpaceOnUse" x="1" y="38" width="182" height="74">
<path d="M183 38.918H1V111.851H183V38.918Z" fill="white"/>
</mask>
<g mask="url(#mask0_4077_431)">
<path d="M116.248 77.6189C107.975 77.9043 102.84 79.4258 102.84 84.8458C102.84 88.3642 105.693 92.1676 112.825 92.1676C122.429 92.1676 127.468 86.9377 127.468 78.3797V77.4289C124.14 77.4289 119.956 77.5239 116.248 77.6189ZM136.597 88.9346C136.597 91.5972 136.692 94.1645 136.882 96.5418H128.419C128.229 94.6399 128.134 92.643 128.134 90.8365C123.57 96.4468 118.055 98.0633 110.543 98.0633C99.227 98.0633 93.2363 92.1676 93.2363 85.2261C93.2363 75.2418 101.414 71.8186 115.582 71.4383C119.481 71.3432 123.855 71.3432 127.468 71.3432V70.3923C127.468 63.7361 123.19 60.9785 115.773 60.9785C110.257 60.9785 106.264 63.2606 105.788 67.1593H96.1844C97.2301 57.3651 107.5 54.8928 116.533 54.8928C127.373 54.8928 136.502 58.7915 136.502 70.2021V88.9346H136.597Z" fill="#979798"/>
<path d="M37.3239 72.7697C36.9436 64.2117 30.8579 61.0737 24.2017 61.0737C17.1651 60.9786 11.4598 64.592 10.5089 72.7697H37.3239ZM10.3187 78.8554C10.7941 87.128 16.4995 92.0726 24.3918 92.0726C29.8119 92.0726 34.6614 89.8857 36.278 85.0361H45.6919C43.79 94.7352 33.4253 98.0633 24.487 98.0633C8.22675 98.0633 1 89.1249 1 77.0485C1 63.7362 8.41694 54.988 24.582 54.988C37.4189 54.988 46.9281 61.7394 46.9281 76.3831V78.8554H10.3187Z" fill="#979798"/>
<path d="M70.3199 91.7875C78.7826 91.7875 84.5833 85.7018 84.5833 76.478C84.5833 67.2544 78.7826 61.1687 70.3199 61.1687C61.8569 61.1687 56.0566 67.2544 56.0566 76.478C56.0566 85.7018 61.8569 91.7875 70.3199 91.7875ZM46.9278 38.918H56.0566V61.8344C60.5258 56.5094 66.7065 54.988 72.7922 54.988C82.9667 54.988 94.2821 61.8344 94.2821 76.6684C94.2821 89.0298 85.3437 98.0632 72.6968 98.0632C66.0407 98.0632 59.86 95.686 55.9612 91.0268C55.9612 92.9283 55.8662 94.8302 55.6762 96.6367H46.6428C46.8328 93.784 46.9278 90.171 46.9278 87.2229V38.918Z" fill="#979798"/>
<path d="M183 56.5095L154.759 111.946H144.584L152.667 96.5418L131.462 56.5095H142.112L157.706 87.7938L173.301 56.5095H183Z" fill="#979798"/>
</g>
</g>
</g>
<defs>
<clipPath id="clip0_4077_431">
<rect width="182.4" height="151" fill="white" transform="translate(0.399902)"/>
</clipPath>
<clipPath id="clip1_4077_431">
<rect width="182" height="73.164" fill="white" transform="translate(1 38.918)"/>
</clipPath>
</defs>
</svg>
