<svg width="183" height="151" viewBox="0 0 183 151" fill="none" xmlns="http://www.w3.org/2000/svg">
<g clip-path="url(#clip0_4077_446)">
<g clip-path="url(#clip1_4077_446)">
<mask id="mask0_4077_446" style="mask-type:luminance" maskUnits="userSpaceOnUse" x="-1" y="53" width="184" height="45">
<path d="M183 53.9199H-1V97.8047H183V53.9199Z" fill="white"/>
</mask>
<g mask="url(#mask0_4077_446)">
<path d="M42.2142 94.8879H32.0096L28.8878 87.3582H11.8807L9.0365 94.8879H-1L14.3334 56.8584H25.3184L42.2142 94.8879ZM19.9657 65.9457L14.3898 80.7218H26.0997L19.9657 65.9457ZM79.2829 56.8584H87.5353V94.8879H78.0549V71.1336L67.795 83.0653H66.3458L56.0867 71.1336V94.8875H46.6063V56.8584H54.8587L67.0701 70.9657L79.2829 56.8584ZM111.556 56.8584C125.44 56.8584 132.576 65.5002 132.576 75.9275C132.576 86.8564 125.663 94.8879 110.496 94.8879H94.7713V56.8584H111.556ZM104.251 87.9178H110.439C119.974 87.9178 122.819 81.4482 122.819 75.8711C122.819 69.3465 119.305 63.8276 110.328 63.8276H104.251V87.9178ZM151.437 65.8755L139.483 53.9199H183V97.4381L171.047 85.484V65.8755H151.437ZM151.423 68.2712L139.116 80.5776V97.8043H156.341L168.647 85.498H151.423V68.2712Z" fill="#979798"/>
</g>
</g>
</g>
<defs>
<clipPath id="clip0_4077_446">
<rect width="182.4" height="151" fill="white" transform="translate(0.200195)"/>
</clipPath>
<clipPath id="clip1_4077_446">
<rect width="184" height="44.16" fill="white" transform="translate(-1 53.9199)"/>
</clipPath>
</defs>
</svg>
