<svg width="183" height="151" viewBox="0 0 183 151" fill="none" xmlns="http://www.w3.org/2000/svg">
<g clip-path="url(#clip0_4077_442)">
<g clip-path="url(#clip1_4077_442)">
<mask id="mask0_4077_442" style="mask-type:luminance" maskUnits="userSpaceOnUse" x="1" y="43" width="182" height="66">
<path d="M183 43.24H1V108.744H183V43.24Z" fill="white"/>
</mask>
<g mask="url(#mask0_4077_442)">
<path d="M92 43.24C41.7221 43.24 1 57.8795 1 75.9928C1 94.1006 41.7247 108.744 92 108.744C142.281 108.744 183 94.0999 183 75.9928C183 57.8788 142.282 43.24 92 43.24Z" fill="#979798"/>
<path d="M92.4608 105.872C44.0448 105.872 4.79712 92.3476 4.79712 75.6628C4.79712 58.9762 44.0456 45.4524 92.4608 45.4524C140.872 45.4524 180.118 58.9755 180.118 75.6628C180.118 92.3468 140.871 105.872 92.4608 105.872ZM92.4608 48.0698C45.7462 48.0698 7.87885 60.4214 7.87885 75.6628C7.87885 90.905 45.7447 103.258 92.4608 103.258C139.175 103.258 177.036 90.9043 177.036 75.6628C177.036 60.4214 139.172 48.0698 92.4608 48.0698Z" fill="#979798"/>
<path d="M69.5937 52.9758C68.3499 52.9798 67.0992 53.0282 65.8404 53.1312C57.4794 53.828 49.5209 58.4893 49.5063 65.5662C49.4972 69.1549 52.074 72.0627 56.0663 71.9348C60.7579 71.7772 64.609 68.0557 66.6252 63.3637C67.3904 61.5835 65.9737 60.844 65.2995 61.8689C64.1253 63.6595 62.4898 65.1 60.5654 66.0386C58.3577 67.1089 55.9983 66.8201 55.283 65.0454C54.2773 62.5415 56.3677 58.7948 61.1383 57.0317C68.0288 54.5058 75.2382 56.1767 82.1757 57.4672C82.2747 57.4672 82.6441 57.6701 82.3173 57.8387C81.0749 58.5093 79.8519 59.0548 77.9467 60.6781C76.5806 61.8365 74.7919 63.3788 73.4087 65.0586C72.0357 66.7143 71.0624 68.1911 69.7746 69.8282C69.5951 70.0649 69.3742 70.054 69.3771 70.054C66.2383 70.5788 63.1654 70.9304 60.3521 72.8675C59.77 73.2651 59.5174 73.9708 59.8701 74.5108C60.1875 74.9896 60.9126 75.0404 61.4164 74.6779C63.1643 73.3833 64.9636 72.7739 67.0275 72.7175C67.1174 72.723 67.1607 72.7375 67.1862 72.7925C67.2022 72.8235 67.1923 72.8887 67.1552 72.9368C64.0638 77.1831 63.2899 78.1428 60.9639 80.7753C59.7748 82.1283 58.6049 83.2702 57.2977 84.459C52.0176 89.3162 46.3384 89.2321 44.3008 86.1869C43.0832 84.3593 43.2437 82.4406 44.0416 80.8489C45.024 78.8994 47.0089 77.4706 48.66 76.6362C49.2726 76.3267 49.4492 75.5507 48.8355 74.8436C48.4456 74.3827 47.4996 74.3008 46.7952 74.4287C44.6324 74.8242 42.0767 76.4431 40.5668 78.3912C38.8651 80.5773 38.0148 83.2312 38.3006 86.2098C38.8131 91.5839 43.2823 94.6885 48.3561 94.6528C52.3932 94.6215 56.1963 93.4105 60.7721 88.811C65.0378 84.5212 68.9239 78.1138 72.5628 72.1719C72.6767 71.982 72.7579 71.8802 73.3108 71.8121C75.5935 71.5294 78.9634 71.2076 81.1234 71.0838C81.6035 71.0576 81.701 71.0629 81.8936 71.3003C82.4563 72.0033 83.3015 72.5999 83.9786 72.9632C84.3087 73.1406 84.4656 73.2292 84.7251 73.2333C85.0447 73.2402 85.2937 73.0698 85.455 72.8896C85.6839 72.6405 85.7472 72.3148 85.6235 72.105C85.4939 71.8849 83.9877 71.0583 83.9429 70.724C83.9101 70.5156 84.1402 70.4652 84.1402 70.4652C85.2478 70.1213 86.3999 69.4135 87.0981 68.0893C87.7838 66.7858 87.8945 65.0461 86.6398 64.0789C85.5387 63.2294 83.8748 63.3634 82.547 64.5431C81.2482 65.6885 80.8187 67.3548 80.9941 68.8152C81.0258 69.0683 81.0127 69.1535 80.6636 69.1824C78.6674 69.3406 76.7441 69.3955 74.6048 69.5076C74.4618 69.5179 74.4163 69.4243 74.4996 69.326C76.9628 65.0886 80.6411 62.0711 84.7091 59.0995C84.9788 58.8993 84.8962 58.5187 84.8853 58.2009C92.2304 59.7809 99.3288 62.7218 106.949 62.6592C110.101 62.6337 113.118 62.1591 116.001 60.5928C118.537 59.2232 119.566 57.9563 119.642 56.6396C119.701 55.7296 119.062 55.1543 118.152 55.3504C110.452 57.1017 103.107 57.0824 95.4471 56.1647C86.698 55.1132 78.3024 52.9485 69.5937 52.9758ZM84.9628 65.2562C85.1426 65.2658 85.3112 65.3255 85.4473 65.4411C85.8532 65.7843 85.661 66.6407 85.2511 67.2337C84.8034 67.8879 84.0437 68.4526 83.351 68.5902C83.2123 68.6156 83.0919 68.5565 83.0347 68.2518C82.9219 67.4449 83.1869 66.3643 84.0579 65.6028C84.3306 65.3642 84.6629 65.2403 84.9628 65.2562ZM146.771 65.4108C145.372 65.4108 143.536 65.4133 142.077 65.4133C141.729 65.4133 141.55 65.4553 141.385 65.7752C140.847 66.7967 134.286 76.5325 133.064 78.4235C132.859 78.711 132.608 78.6709 132.579 78.3428C132.455 77.2202 131.476 75.9298 129.933 75.312C128.757 74.8395 127.607 74.7543 126.412 74.9111C124.254 75.1979 122.332 76.3262 120.641 77.5967C118.094 79.5152 115.896 81.9987 113.059 83.8355C111.51 84.835 109.389 85.7068 107.97 84.4066C106.686 83.2276 106.83 80.6082 108.795 78.5831C109.002 78.3705 109.251 78.5479 109.211 78.7384C109.026 79.6546 109.254 80.5657 109.957 81.2048C110.814 81.9649 112.041 82.0515 113.09 81.5437C114.33 80.9362 115.058 79.7619 115.271 78.4288C115.599 76.3617 113.992 74.5383 111.982 74.3925C110.348 74.279 108.782 74.8416 107.256 76.0895C106.491 76.7175 106.055 77.1825 105.394 78.1139C105.232 78.3436 104.985 78.367 104.993 78.0279C105.069 75.3816 103.963 73.8924 101.753 73.8436C100.039 73.8037 98.2055 74.7239 96.7775 75.852C95.212 77.0971 93.843 78.7467 92.3757 80.297C92.1933 80.4885 92.0339 80.4794 91.9829 80.1088C91.9382 78.3553 91.493 76.6569 90.6733 75.4511C90.3835 75.0314 89.7731 74.8236 89.2602 75.107C89.0236 75.2356 88.1988 75.6107 87.5996 76.0887C87.3019 76.3316 87.1869 76.6829 87.3175 77.1335C88.1085 79.7521 87.9345 82.7307 86.8615 85.2471C85.8757 87.5501 83.96 89.6289 81.7094 90.3321C80.2261 90.7977 78.6838 90.5698 77.7298 89.2678C76.4194 87.4711 76.949 84.3469 78.9015 81.7512C80.6258 79.4676 83.1181 78.0161 85.6064 77.0812C85.8994 76.9698 85.9591 76.7844 85.8765 76.5381C85.7411 76.1322 85.5259 75.5816 85.4371 75.3291C85.2093 74.7286 84.5701 74.6303 83.7907 74.7149C81.9839 74.9233 80.3542 75.5362 78.7439 76.3899C74.5273 78.6255 72.4139 82.9524 71.4868 85.2678C71.0409 86.3787 70.6594 87.0736 70.1662 87.6884C69.5016 88.5158 68.6673 89.2685 67.1414 90.5953C67.0038 90.7173 66.9008 90.971 67.0162 91.2061C67.1723 91.5261 67.9655 92.6348 68.1897 92.7338C68.438 92.855 68.7259 92.6861 68.8416 92.6035C69.9092 91.8875 71.1865 90.7515 71.8119 89.9812C72.0306 89.7177 72.2567 89.8287 72.3728 90.2291C72.9563 92.2897 74.4836 93.9721 76.5963 94.6758C80.462 95.9669 84.4725 94.0984 87.4992 90.8454C89.4226 88.7782 90.1167 87.4485 90.8542 86.5444C92.1031 85.0112 94.5684 81.5816 97.5037 79.3797C98.5804 78.568 99.8552 77.9488 100.496 78.3595C101.01 78.6897 101.176 79.4565 100.35 80.9424C97.3581 86.354 92.9526 92.712 92.1449 94.255C91.9979 94.5225 92.1263 94.7325 92.4092 94.7325C93.9755 94.7256 95.5287 94.7289 96.9508 94.7289C97.1867 94.718 97.2933 94.6113 97.4116 94.4453C99.7085 90.8858 101.871 87.4959 104.187 83.9927C104.318 83.7863 104.437 83.9461 104.442 84.0364C104.49 84.8488 104.691 85.9612 105.178 86.6918C106.055 88.0411 107.296 88.621 108.673 88.6301C109.768 88.6425 110.322 88.4776 111.503 88.0408C112.329 87.7335 113.111 87.3179 113.828 86.805C114.174 86.5677 114.234 86.9655 114.226 87.027C113.694 89.8535 114.351 93.2016 117.187 94.5906C120.583 96.2482 124.313 93.9186 126.459 91.8158C126.668 91.6127 126.895 91.6342 126.916 92.0702C126.962 92.8736 127.328 93.8265 127.999 94.4938C129.797 96.281 133.427 95.573 137.069 92.7808C139.408 90.9943 141.854 88.4692 144.064 85.7956C144.146 85.6922 144.207 85.5252 144.049 85.3574C143.712 85.0086 143.225 84.6093 142.892 84.3018C142.74 84.174 142.516 84.2104 142.387 84.3076C140.122 86.4406 138.084 88.874 135.135 90.8858C134.141 91.5723 132.558 92.1267 131.846 91.1733C131.568 90.8035 131.6 90.2906 131.873 89.6187C132.734 87.4959 146.339 66.9845 147.045 65.7766L147.047 65.7752C147.168 65.5647 147.04 65.4108 146.771 65.4108ZM127.707 78.234C128.063 78.2309 128.397 78.2988 128.701 78.4434C130.377 79.2352 129.841 81.1564 129.092 82.6648C129.067 82.7122 129.051 82.7639 129.046 82.8174C129.041 82.8709 129.046 82.9247 129.062 82.9761C129.089 83.133 129.295 83.2847 129.499 83.3572C129.569 83.383 129.61 83.434 129.529 83.5992C128.95 84.827 128.419 85.535 127.693 86.6011C127.027 87.5869 126.276 88.3553 125.365 89.0953C123.993 90.22 122.088 91.4438 120.512 90.6212C119.812 90.2604 119.51 89.2911 119.524 88.5063C119.56 86.2983 120.549 84.0324 122.38 81.8051C124.194 79.594 126.164 78.2476 127.707 78.234Z" fill="#FDFDFD"/>
</g>
</g>
</g>
<defs>
<clipPath id="clip0_4077_442">
<rect width="182.4" height="151" fill="white" transform="translate(0.399902)"/>
</clipPath>
<clipPath id="clip1_4077_442">
<rect width="182" height="65.52" fill="white" transform="translate(1 43.24)"/>
</clipPath>
</defs>
</svg>
