<svg width="184" height="151" viewBox="0 0 184 151" fill="none" xmlns="http://www.w3.org/2000/svg">
<g clip-path="url(#clip0_4077_444)">
<mask id="mask0_4077_444" style="mask-type:luminance" maskUnits="userSpaceOnUse" x="1" y="36" width="182" height="79">
<path d="M183 36.7339H1V114.052H183V36.7339Z" fill="white"/>
</mask>
<g mask="url(#mask0_4077_444)">
<path d="M119.271 44.9897L104.552 59.708C104.366 59.9099 104.16 60.0884 103.935 60.2437C103.71 60.4067 103.473 60.5425 103.225 60.6512C102.977 60.7599 102.716 60.8453 102.445 60.9074C102.181 60.9617 101.913 60.9928 101.641 61.0006C101.117 61.0006 100.605 60.8958 100.128 60.6978C99.6501 60.4882 99.2195 60.1971 98.8584 59.8245C98.4857 59.4519 98.2061 59.021 98.0085 58.5436C97.8104 58.0546 97.7173 57.5422 97.7289 57.0299V49.0884C97.7173 49.6125 97.8104 50.1248 98.0085 50.6139C98.1945 51.0913 98.4857 51.5338 98.8468 51.9064C99.2078 52.279 99.6501 52.5818 100.128 52.7797C100.605 52.9893 101.117 53.0941 101.641 53.1057C101.913 53.098 102.181 53.063 102.445 53.0009C102.716 52.9388 102.977 52.8534 103.225 52.7448C103.473 52.6361 103.71 52.5002 103.935 52.3372C104.16 52.182 104.366 52.0073 104.552 51.8132L119.271 37.0599V44.9897ZM106.008 48.6809C106.02 48.1569 105.915 47.6446 105.729 47.1555C105.531 46.6665 105.239 46.224 104.879 45.8514C104.518 45.4787 104.075 45.176 103.598 44.978C103.108 44.7684 102.596 44.6636 102.072 44.6636C101.801 44.6714 101.529 44.7063 101.257 44.7684C100.993 44.8228 100.737 44.9082 100.488 45.0246C100.24 45.1333 100.004 45.2652 99.7782 45.4205C99.5533 45.5835 99.3473 45.7621 99.1613 45.9562L85.4676 59.708C85.2732 59.9099 85.0639 60.0884 84.8386 60.2437C84.6136 60.4067 84.373 60.5425 84.1168 60.6512C83.8605 60.7599 83.6006 60.8414 83.3367 60.8958C83.0648 60.9579 82.7893 60.9889 82.5097 60.9889C81.9859 60.9889 81.4734 60.8841 80.9962 60.6861C80.5186 60.4882 80.076 60.1855 79.7036 59.8245C79.3425 59.4519 79.0513 59.021 78.8533 58.532C78.644 58.0546 78.5392 57.5422 78.5392 57.0182V49.0884C78.5392 49.6125 78.6324 50.1364 78.83 50.6139C79.028 51.1029 79.3192 51.5454 79.692 51.918C80.0644 52.2906 80.4953 52.5934 80.9845 52.7913C81.4618 53.0009 81.9859 53.1057 82.5097 53.1057C82.7816 53.098 83.0532 53.0669 83.3251 53.0126C83.589 52.9505 83.8449 52.8651 84.0935 52.7564C84.3417 52.64 84.5787 52.5041 84.8036 52.3489C85.0289 52.1936 85.2346 52.015 85.421 51.8132L99.1845 38.0264C99.3706 37.8246 99.5726 37.646 99.7899 37.4908C100.015 37.3355 100.252 37.2035 100.5 37.0949C100.749 36.9784 101.005 36.8891 101.269 36.827C101.533 36.7727 101.801 36.7416 102.072 36.7339C102.596 36.7339 103.108 36.8387 103.586 37.0483C104.063 37.2579 104.494 37.549 104.855 37.9216C105.228 38.2942 105.507 38.7367 105.705 39.2141C105.892 39.7032 105.996 40.2155 105.985 40.7395V48.6809H106.008ZM86.9228 48.6809C86.9228 48.1685 86.8297 47.6446 86.632 47.1671C86.4456 46.6897 86.1544 46.2472 85.7934 45.8747C85.4326 45.502 85.0016 45.1993 84.5241 45.0013C84.0469 44.7917 83.5344 44.6869 83.0106 44.6753C82.7387 44.683 82.4671 44.7141 82.1956 44.7684C81.9313 44.8305 81.6754 44.9159 81.4268 45.0246C81.1705 45.1333 80.9339 45.2691 80.7166 45.4322C80.4913 45.5874 80.2857 45.766 80.0993 45.9678L65.0552 60.9889V53.1057L80.0876 38.0264C80.274 37.8246 80.4797 37.6421 80.705 37.4791C80.9299 37.3239 81.1669 37.1919 81.4152 37.0832C81.6714 36.9668 81.9313 36.8814 82.1956 36.827C82.4671 36.7649 82.7387 36.7339 83.0106 36.7339C83.5344 36.7339 84.0469 36.8503 84.5241 37.0599C85.0016 37.2579 85.4326 37.5606 85.7934 37.9332C86.1544 38.3059 86.4456 38.7367 86.632 39.2258C86.8297 39.7032 86.9228 40.2155 86.9228 40.7395V48.6809Z" fill="#979798"/>
<path fill-rule="evenodd" clip-rule="evenodd" d="M169.178 93.7676V92.8361C171.67 92.7313 172.439 92.6264 172.439 91.9978C172.415 91.8267 172.377 91.66 172.322 91.497C172.268 91.3339 172.198 91.1748 172.113 91.0194C172.027 90.872 171.93 90.7322 171.822 90.6004C171.713 90.4606 171.593 90.3365 171.46 90.2277L164.02 81.3898L162.937 82.3795V89.9831C162.937 92.3818 164.334 92.4867 166.512 92.7895V93.721H152.713V92.8361C154.891 92.6264 156.288 92.4168 156.288 90.0297V70.9914C156.288 68.8139 154.984 68.3947 153.365 68.2783C153.074 68.3598 152.795 68.4762 152.527 68.6276C152.271 68.779 152.026 68.9769 151.816 69.1982C151.607 69.4078 151.432 69.6639 151.293 69.9318C151.153 70.1996 151.048 70.4907 150.99 70.7818L142.757 94.3846H141.674L134.746 75.9869H134.525L127.072 94.3846H125.873L117.175 70.7818C116.465 68.8255 116.092 68.4995 114.369 68.1851V67.2536H126.386V68.1851C124.977 68.2899 123.789 68.3947 123.789 69.8502C123.789 69.9667 123.796 70.0831 123.812 70.1996C123.828 70.316 123.847 70.4325 123.87 70.5489C123.901 70.6653 123.936 70.7779 123.975 70.8866C124.014 70.9953 124.061 71.104 124.115 71.2126L128.994 85.337L133.861 73.3785L132.336 69.629C131.963 68.6742 131.357 68.2783 129.413 68.1735V67.2536H142.199V68.1851C140.463 68.2899 139.276 68.3947 139.276 69.7454C139.299 69.9318 139.326 70.1181 139.357 70.3044C139.396 70.4907 139.439 70.6731 139.485 70.8517C139.524 71.038 139.575 71.2204 139.637 71.399C139.691 71.5775 139.749 71.7521 139.811 71.9229L144.259 84.9646H144.376L148.801 71.6202C148.863 71.4882 148.917 71.3563 148.964 71.2243C149.01 71.0923 149.049 70.9526 149.08 70.8051C149.104 70.6653 149.119 70.5256 149.127 70.3859C149.142 70.2462 149.142 70.1025 149.127 69.955C149.127 68.2899 147.729 68.2899 146.32 68.1851V67.2536H166.454V68.1851C164.276 68.3947 162.879 68.4995 162.879 71.8298V80.202L171.763 71.69C172.846 70.5955 173.172 70.2345 173.172 69.5126C173.172 68.581 172.741 68.3714 169.702 68.1618V67.2536H181.661V68.1851C177.306 68.4995 175.373 70.3626 168.445 77.1281L181.009 91.9978C181.125 92.1452 181.257 92.2734 181.405 92.3818C181.552 92.4907 181.707 92.5839 181.87 92.6614C182.041 92.7313 182.22 92.7819 182.406 92.8128C182.585 92.8438 182.767 92.8514 182.953 92.8361V93.7676H169.178ZM38.0286 93.7676H24.4865V92.8361C26.8736 92.5216 28.0613 92.4168 28.0613 89.82V70.1647H27.9565L17.7794 93.7676H16.6848L6.51937 70.6886H6.42622V88.9002C6.42622 91.7066 7.19477 92.6381 10.5483 92.8594V93.7909H1V92.8361C4.2604 92.5216 4.6796 91.9046 4.6796 89.5758V71.0962C4.6796 69.0235 4.02751 68.4995 1.1048 68.2899V67.207H11.3984L19.5144 85.6864L27.7353 67.207H38.0286V68.2899C35.7581 68.4064 34.3492 68.4995 34.3492 71.9346V89.1914C34.3492 92.312 35.3273 92.4517 38.0286 92.8361V93.7676ZM65.1019 80.5631C65.1135 88.9002 59.0351 94.4894 50.7093 94.4894C42.3722 94.4894 36.2938 88.9002 36.2938 80.5631C36.2938 72.0394 42.8145 66.7412 50.6976 66.7412C58.5691 66.7412 65.1135 72.0277 65.1135 80.5631H65.1019ZM57.9522 80.5631C57.9522 74.9506 56.4266 67.9755 50.6976 67.9755C44.957 67.9755 43.4318 74.8341 43.4318 80.5631C43.4318 83.9982 43.7576 93.2434 50.6976 93.2434C57.626 93.2434 57.9522 83.9865 57.9522 80.5631ZM121.53 93.8142H108.209V92.8361C110.805 92.6264 111.562 92.6264 111.562 91.264C111.562 90.1811 110.258 87.3051 109.606 86.0708H100.407C100.221 86.4821 100.042 86.8975 99.8715 87.3168C99.7084 87.7281 99.5534 88.1474 99.4056 88.5744C99.2582 89.0014 99.1224 89.432 98.9983 89.8666C98.8741 90.2936 98.7613 90.7286 98.6605 91.1708C98.6605 92.6264 100.605 92.7196 102.026 92.8361V93.7676H80.3323V92.8361C82.4981 92.6264 84.012 92.4168 84.012 90.0297V80.9704H74.196V89.9831C74.196 92.3702 75.7095 92.5799 77.887 92.7895V93.721H64.1238V92.8361C66.3012 92.5216 67.5934 92.312 67.5934 90.0297V70.9914C67.5934 68.4879 65.7538 68.3947 64.1238 68.1851V67.2536H77.887V68.1851C76.0473 68.2899 74.196 68.3947 74.196 70.9914V79.1191H84.0586V70.9914C84.0586 68.3947 82.219 68.2783 80.3789 68.1851V67.2536H94.3405V68.1851C92.5009 68.2899 90.6492 68.4995 90.6492 70.9914V89.9831C90.6492 92.0561 91.8486 92.6847 93.4673 92.6847C94.5618 92.6847 95.7962 92.6847 97.6941 88.225L106.788 66.7063H107.883L117.082 87.2935C118.991 91.5319 119.574 92.906 121.53 92.8012V93.8142ZM109.071 84.5569L104.844 74.9856L101.059 84.5569H109.071ZM179.646 78.8046C178.319 78.8512 177.096 78.0828 176.549 76.8718C176.013 75.6491 176.27 74.2284 177.189 73.2737C178.109 72.3189 179.53 72.0277 180.753 72.5168C181.987 73.0175 182.79 74.2168 182.79 75.5443C182.802 75.9636 182.732 76.3826 182.581 76.7786C182.43 77.1746 182.197 77.5354 181.905 77.8382C181.614 78.1411 181.265 78.3857 180.869 78.5484C180.485 78.7115 180.066 78.8046 179.646 78.8046ZM179.646 72.7264C178.482 72.6449 177.376 73.2853 176.875 74.3333C176.363 75.3929 176.549 76.6505 177.353 77.5004C178.144 78.3624 179.379 78.6416 180.473 78.2226C181.568 77.7916 182.278 76.7437 182.29 75.5792C182.29 75.2181 182.232 74.8574 182.103 74.5196C181.975 74.1935 181.789 73.879 181.544 73.6231C181.3 73.3552 181.009 73.1455 180.683 72.9826C180.357 72.8312 180.008 72.7497 179.646 72.7264ZM178.133 73.8095H179.775C179.903 73.7862 180.031 73.7978 180.159 73.8211C180.287 73.8561 180.403 73.9139 180.508 73.9955C180.613 74.077 180.694 74.1702 180.753 74.2867C180.811 74.4032 180.857 74.5313 180.857 74.6594C180.857 74.7679 180.838 74.8767 180.799 74.9856C180.768 75.0864 180.718 75.1796 180.648 75.2647C180.586 75.3579 180.508 75.4355 180.415 75.4977C180.33 75.5676 180.237 75.6182 180.136 75.6491L180.659 76.3942C180.714 76.4641 180.768 76.534 180.823 76.6039C180.877 76.6738 180.935 76.7437 180.997 76.8136C181.051 76.8758 181.11 76.9377 181.172 76.9999C181.242 77.0618 181.308 77.1241 181.37 77.1863V77.2562H180.788C180.496 77.2562 180.252 76.6155 179.693 75.7423H179.215V76.6621C179.215 77.0698 179.215 77.0698 179.681 77.1048V77.2445H178.133V77.1164C178.599 77.1164 178.587 77.1164 178.587 76.6738V74.4032C178.587 73.9722 178.587 73.9838 178.133 73.9489V73.8095ZM179.215 75.5676H179.623C179.724 75.5599 179.821 75.5326 179.914 75.4861C180 75.4395 180.073 75.3736 180.136 75.288C180.198 75.2105 180.24 75.1213 180.263 75.0201C180.287 74.9193 180.287 74.8185 180.263 74.7176C180.279 74.6245 180.271 74.5313 180.24 74.4381C180.217 74.3526 180.174 74.275 180.112 74.2051C180.05 74.1352 179.973 74.081 179.879 74.0421C179.794 74.0111 179.705 73.9955 179.612 73.9955H179.215V75.5676ZM41.9762 105.074H42.9892V112.573H41.9762V105.074ZM46.6339 105.086H46.797L46.8203 105.214L51.1752 110.861C51.1752 110.768 51.1752 110.675 51.1752 110.593C51.1752 110.524 51.1752 110.43 51.1752 110.361V105.074H52.0601V112.573H51.5247C51.5014 112.581 51.4817 112.585 51.4664 112.585C51.4508 112.585 51.4351 112.585 51.4198 112.585C51.4042 112.585 51.3849 112.585 51.3616 112.585C51.3459 112.585 51.3303 112.581 51.315 112.573C51.2993 112.565 51.2837 112.558 51.2684 112.55C51.2528 112.542 51.2375 112.53 51.2218 112.515C51.2142 112.499 51.2025 112.488 51.1869 112.48C51.1712 112.464 51.1596 112.449 51.1519 112.434L46.8087 106.786C46.8087 106.871 46.8087 106.957 46.8087 107.042C46.8087 107.127 46.8087 107.205 46.8087 107.275V112.62H45.9584V105.121H46.6339V105.086ZM61.4921 108.824C61.4997 108.955 61.4957 109.088 61.4804 109.219C61.4728 109.344 61.4571 109.472 61.4338 109.604C61.4105 109.736 61.3832 109.864 61.3523 109.988C61.3133 110.112 61.2708 110.236 61.2242 110.361C61.1852 110.469 61.1386 110.578 61.0844 110.687C61.0302 110.788 60.9719 110.889 60.9097 110.99C60.8478 111.09 60.7815 111.188 60.712 111.281C60.6341 111.374 60.5566 111.459 60.4791 111.537C60.3935 111.622 60.3043 111.704 60.2112 111.781C60.118 111.851 60.0248 111.917 59.9316 111.979C59.8308 112.049 59.7299 112.111 59.6287 112.166C59.5203 112.212 59.4114 112.259 59.303 112.305C59.1788 112.352 59.0544 112.391 58.9302 112.422C58.8061 112.46 58.682 112.492 58.5575 112.515C58.4334 112.538 58.3052 112.554 58.1735 112.561C58.0494 112.569 57.9212 112.573 57.7891 112.573H54.9947V105.074H57.8007C57.9329 105.074 58.061 105.078 58.1851 105.086C58.3169 105.101 58.445 105.121 58.5691 105.144C58.6936 105.167 58.8178 105.195 58.9419 105.226C59.066 105.265 59.1905 105.303 59.3146 105.342C59.4231 105.389 59.5319 105.439 59.6404 105.493C59.7416 105.548 59.8424 105.606 59.9432 105.668C60.0364 105.73 60.1296 105.8 60.2228 105.878C60.316 105.947 60.4052 106.025 60.4907 106.11C60.5682 106.196 60.6458 106.285 60.7237 106.378C60.7932 106.472 60.8594 106.565 60.9213 106.658C60.9836 106.759 61.0418 106.864 61.096 106.972C61.1503 107.073 61.1969 107.182 61.2358 107.298C61.2824 107.415 61.3214 107.539 61.3523 107.671C61.3912 107.795 61.4182 107.919 61.4338 108.043C61.4571 108.175 61.4728 108.308 61.4804 108.439C61.4957 108.563 61.4997 108.692 61.4921 108.824ZM60.4092 108.824C60.4092 108.723 60.4092 108.618 60.4092 108.509C60.4012 108.408 60.3895 108.304 60.3742 108.195C60.3586 108.094 60.3393 107.993 60.316 107.892C60.285 107.791 60.2537 107.69 60.2228 107.589C60.1995 107.504 60.1686 107.419 60.1296 107.333C60.0907 107.256 60.0481 107.178 60.0015 107.1C59.9629 107.023 59.9163 106.945 59.8617 106.867C59.8075 106.798 59.7532 106.728 59.6986 106.658C59.6368 106.596 59.5745 106.537 59.5126 106.483C59.4427 106.429 59.3729 106.378 59.303 106.332C59.2331 106.278 59.1632 106.231 59.0933 106.192C59.0158 106.153 58.9379 106.118 58.8603 106.087C58.7752 106.056 58.6856 106.025 58.5924 105.994C58.5073 105.971 58.4181 105.951 58.3249 105.936C58.2317 105.92 58.1385 105.909 58.0454 105.901C57.9522 105.893 57.859 105.889 57.7658 105.889H56.0077V111.723H57.7891C57.8823 111.723 57.9755 111.719 58.0686 111.711C58.1618 111.711 58.255 111.7 58.3482 111.676C58.4334 111.661 58.5226 111.641 58.6157 111.618C58.7013 111.595 58.7905 111.568 58.8836 111.537C58.9612 111.498 59.0351 111.459 59.105 111.42C59.1825 111.382 59.2564 111.339 59.3263 111.292C59.3962 111.246 59.466 111.191 59.5359 111.129C59.5978 111.075 59.6561 111.017 59.7103 110.955C59.7725 110.892 59.8308 110.822 59.885 110.745C59.9396 110.675 59.9858 110.601 60.0248 110.524C60.0714 110.446 60.114 110.369 60.1529 110.291C60.1919 110.213 60.2228 110.132 60.2461 110.046C60.277 109.945 60.3083 109.844 60.3393 109.744C60.3626 109.643 60.3819 109.542 60.3975 109.441C60.4208 109.34 60.4361 109.239 60.4441 109.138C60.4518 109.029 60.4558 108.925 60.4558 108.824H60.4092ZM66.8949 111.723C66.9648 111.731 67.0347 111.731 67.1046 111.723C67.1821 111.715 67.256 111.708 67.3259 111.7C67.3958 111.684 67.4657 111.665 67.5356 111.641C67.5974 111.626 67.6633 111.603 67.7332 111.572C67.7954 111.548 67.8537 111.521 67.9079 111.49C67.9622 111.459 68.0168 111.428 68.071 111.397C68.1176 111.358 68.1642 111.316 68.2108 111.269C68.265 111.23 68.3116 111.188 68.3506 111.141C68.3971 111.094 68.4397 111.044 68.4787 110.99C68.5173 110.935 68.5522 110.881 68.5835 110.826C68.6145 110.764 68.6454 110.706 68.6767 110.652C68.6996 110.59 68.7229 110.528 68.7462 110.465C68.7695 110.395 68.7892 110.326 68.8045 110.256C68.8201 110.186 68.8318 110.116 68.8394 110.046C68.8551 109.969 68.8627 109.895 68.8627 109.825C68.8707 109.755 68.8744 109.681 68.8744 109.604V105.039H69.8874V109.604C69.8874 109.713 69.8837 109.817 69.8757 109.918C69.8681 110.019 69.8564 110.12 69.8408 110.221C69.8178 110.322 69.7945 110.423 69.7712 110.524C69.748 110.625 69.7166 110.722 69.6781 110.815C69.6468 110.9 69.6118 110.986 69.5732 111.071C69.5266 111.156 69.48 111.242 69.4335 111.327C69.3869 111.405 69.3326 111.482 69.2704 111.56C69.2161 111.63 69.1579 111.7 69.0957 111.77C69.0258 111.839 68.9559 111.905 68.886 111.968C68.8085 112.03 68.7309 112.084 68.6534 112.131C68.5755 112.185 68.494 112.235 68.4088 112.282C68.3309 112.329 68.2457 112.367 68.1525 112.399C67.9585 112.476 67.7565 112.534 67.5472 112.573C67.3375 112.612 67.1239 112.631 66.9066 112.631C66.6969 112.631 66.4872 112.612 66.2779 112.573C66.0683 112.534 65.8663 112.476 65.6722 112.399C65.5791 112.367 65.4899 112.329 65.4043 112.282C65.3192 112.235 65.2376 112.185 65.1601 112.131C65.0822 112.084 65.0047 112.03 64.9271 111.968C64.8572 111.905 64.7874 111.839 64.7175 111.77C64.6552 111.7 64.5933 111.63 64.5311 111.56C64.4769 111.482 64.4263 111.405 64.3797 111.327C64.3254 111.242 64.2788 111.156 64.2399 111.071C64.1933 110.986 64.1547 110.9 64.1238 110.815C64.0925 110.722 64.0615 110.625 64.0306 110.524C64.0073 110.423 63.9877 110.322 63.9724 110.221C63.9491 110.12 63.9334 110.019 63.9258 109.918C63.9178 109.817 63.9141 109.713 63.9141 109.604V105.039H64.9271V109.592C64.9271 109.67 64.9308 109.744 64.9388 109.813C64.9388 109.883 64.9464 109.957 64.9621 110.035C64.9697 110.105 64.9814 110.175 64.997 110.244C65.0123 110.314 65.032 110.384 65.0553 110.454C65.0786 110.516 65.1019 110.578 65.1252 110.64C65.1561 110.702 65.187 110.761 65.2183 110.815C65.2493 110.869 65.2842 110.924 65.3228 110.978C65.3617 111.032 65.4043 111.083 65.4509 111.129C65.4899 111.176 65.5365 111.222 65.5907 111.269C65.6373 111.308 65.6839 111.347 65.7305 111.386C65.7847 111.424 65.8393 111.459 65.8936 111.49C65.9558 111.521 66.014 111.548 66.0683 111.572C66.1382 111.603 66.204 111.626 66.2663 111.641C66.3362 111.665 66.4061 111.68 66.4756 111.688C66.5455 111.704 66.6154 111.715 66.6852 111.723C66.7551 111.731 66.825 111.731 66.8949 111.723ZM76.5948 106.297C76.5868 106.304 76.5791 106.316 76.5715 106.332C76.5635 106.339 76.5558 106.347 76.5482 106.355C76.5402 106.371 76.5325 106.382 76.5249 106.39C76.5092 106.398 76.4976 106.406 76.49 106.413C76.4819 106.413 76.4703 106.417 76.455 106.425C76.447 106.425 76.4394 106.425 76.4317 106.425C76.4161 106.425 76.4044 106.425 76.3968 106.425C76.3811 106.417 76.3695 106.413 76.3618 106.413C76.3385 106.406 76.3189 106.402 76.3036 106.402C76.2803 106.394 76.261 106.382 76.2454 106.367C76.2221 106.359 76.2028 106.347 76.1871 106.332C76.1715 106.324 76.1562 106.312 76.1405 106.297L75.8377 106.099C75.8067 106.076 75.7718 106.056 75.7328 106.041C75.7019 106.025 75.667 106.01 75.628 105.994C75.5894 105.971 75.5505 105.955 75.5119 105.947C75.4806 105.932 75.4456 105.916 75.4071 105.901C75.3525 105.886 75.3022 105.874 75.2556 105.866C75.201 105.851 75.1508 105.839 75.1042 105.831C75.05 105.823 74.9954 105.819 74.9411 105.819C74.8869 105.812 74.8363 105.812 74.7897 105.819C74.7355 105.812 74.6849 105.812 74.6383 105.819C74.5841 105.819 74.5335 105.823 74.4869 105.831C74.4326 105.839 74.3824 105.851 74.3358 105.866C74.2892 105.874 74.2386 105.886 74.1844 105.901C74.1454 105.916 74.1065 105.932 74.0679 105.947C74.029 105.963 73.994 105.982 73.9631 106.006C73.9241 106.029 73.8855 106.052 73.8466 106.076C73.8157 106.099 73.7843 106.126 73.7534 106.157C73.7225 106.18 73.6952 106.204 73.6719 106.227C73.6486 106.258 73.6253 106.289 73.602 106.32C73.5787 106.351 73.5594 106.382 73.5437 106.413C73.5204 106.452 73.5052 106.487 73.4971 106.518C73.4819 106.557 73.4662 106.596 73.4506 106.635C73.4429 106.673 73.4353 106.708 73.4273 106.739C73.4196 106.778 73.4156 106.817 73.4156 106.856C73.408 106.895 73.404 106.933 73.404 106.972C73.404 107.019 73.408 107.065 73.4156 107.112C73.4156 107.158 73.4236 107.205 73.4389 107.252C73.4546 107.298 73.4702 107.341 73.4855 107.38C73.5088 107.419 73.5321 107.457 73.5554 107.496C73.5867 107.535 73.6176 107.57 73.6486 107.601C73.6795 107.64 73.7108 107.675 73.7418 107.706C73.7807 107.729 73.8193 107.756 73.8582 107.787C73.8892 107.811 73.9281 107.834 73.9747 107.857C74.0213 107.881 74.0679 107.904 74.1145 107.927C74.1611 107.95 74.2077 107.974 74.2543 107.997C74.3009 108.02 74.3475 108.04 74.3937 108.055C74.4483 108.071 74.4985 108.09 74.5451 108.113L75.209 108.335C75.434 108.412 75.6553 108.502 75.8726 108.602C75.9268 108.618 75.9774 108.641 76.024 108.672C76.0783 108.696 76.1289 108.723 76.1755 108.754C76.2221 108.785 76.2686 108.816 76.3152 108.847C76.3618 108.886 76.4044 108.921 76.4434 108.952C76.49 108.99 76.5325 109.033 76.5715 109.08C76.6101 109.119 76.649 109.161 76.6876 109.208C76.7189 109.254 76.7499 109.301 76.7808 109.348C76.8121 109.394 76.839 109.445 76.8623 109.499C76.8856 109.561 76.9089 109.623 76.9322 109.685C76.9555 109.748 76.9712 109.813 76.9788 109.883C76.9945 109.945 77.0061 110.011 77.0138 110.081C77.0138 110.151 77.0138 110.217 77.0138 110.279C77.0138 110.357 77.0101 110.434 77.0021 110.512C76.9945 110.597 76.9868 110.679 76.9788 110.757C76.9635 110.834 76.9439 110.908 76.9206 110.978C76.9053 111.055 76.882 111.133 76.8507 111.211C76.8197 111.281 76.7888 111.347 76.7575 111.408C76.7266 111.478 76.6876 111.545 76.6414 111.606C76.6024 111.669 76.5598 111.731 76.5133 111.793C76.4667 111.847 76.4161 111.902 76.3618 111.956C76.3072 112.01 76.2494 112.061 76.1871 112.107C76.1249 112.162 76.059 112.208 75.9891 112.247C75.9269 112.286 75.8573 112.325 75.7794 112.364C75.7095 112.395 75.6397 112.425 75.5698 112.457C75.4846 112.488 75.3954 112.515 75.3022 112.538C75.2167 112.561 75.1275 112.581 75.0343 112.596C74.9411 112.612 74.848 112.624 74.7548 112.631C74.6616 112.639 74.5724 112.643 74.4869 112.643C74.3708 112.643 74.2543 112.639 74.1378 112.631C74.029 112.616 73.9165 112.596 73.8 112.573C73.6912 112.558 73.5827 112.53 73.4739 112.492C73.3654 112.46 73.2606 112.422 73.1597 112.375C73.0585 112.344 72.9653 112.305 72.8802 112.259C72.787 112.212 72.6978 112.162 72.6123 112.107C72.5267 112.053 72.4456 111.991 72.3677 111.921C72.2825 111.859 72.2046 111.793 72.1347 111.723L72.4259 111.246C72.4339 111.238 72.4416 111.23 72.4492 111.222C72.4572 111.214 72.4648 111.207 72.4725 111.199C72.4801 111.191 72.4881 111.184 72.4958 111.176C72.5034 111.168 72.5151 111.16 72.5307 111.153C72.5384 111.145 72.5464 111.141 72.554 111.141C72.5697 111.141 72.5813 111.141 72.589 111.141C72.6046 111.141 72.6163 111.141 72.6239 111.141C72.6316 111.141 72.6432 111.145 72.6589 111.153C72.6665 111.145 72.6781 111.141 72.6938 111.141C72.7095 111.141 72.7211 111.141 72.7288 111.141C72.7444 111.141 72.7597 111.141 72.7753 111.141C72.783 111.141 72.7946 111.145 72.8103 111.153L73.0083 111.292L73.2525 111.478C73.2758 111.494 73.3031 111.51 73.3341 111.525C73.3574 111.541 73.3847 111.556 73.4156 111.572C73.4389 111.587 73.4662 111.603 73.4971 111.618C73.5204 111.634 73.5477 111.649 73.5787 111.665C73.61 111.68 73.6446 111.692 73.6835 111.7C73.7145 111.715 73.7458 111.731 73.7767 111.746C73.8157 111.754 73.8506 111.766 73.8815 111.781C73.9205 111.789 73.9591 111.797 73.998 111.805C74.0366 111.812 74.0796 111.82 74.1261 111.828C74.1647 111.835 74.2077 111.843 74.2543 111.851C74.2929 111.851 74.3358 111.851 74.3824 111.851C74.4286 111.859 74.4716 111.863 74.5102 111.863C74.5724 111.855 74.6306 111.851 74.6849 111.851C74.7395 111.843 74.7937 111.832 74.848 111.816C74.9022 111.809 74.9568 111.797 75.011 111.781C75.0653 111.766 75.1159 111.746 75.1625 111.723C75.209 111.708 75.2516 111.692 75.2906 111.676C75.3372 111.653 75.3798 111.63 75.4187 111.606C75.4573 111.583 75.4962 111.56 75.5348 111.537C75.5738 111.506 75.6087 111.475 75.6397 111.443C75.6786 111.412 75.7095 111.382 75.7328 111.351C75.7641 111.319 75.7951 111.284 75.826 111.246C75.8493 111.207 75.8726 111.168 75.8959 111.129C75.9116 111.09 75.9309 111.051 75.9541 111.013C75.9698 110.966 75.9851 110.92 76.0007 110.873C76.0084 110.826 76.02 110.78 76.0357 110.733C76.0433 110.687 76.0473 110.64 76.0473 110.593C76.055 110.547 76.059 110.5 76.059 110.454C76.059 110.407 76.055 110.361 76.0473 110.314C76.0473 110.26 76.0397 110.209 76.024 110.163C76.0084 110.116 75.9931 110.073 75.9774 110.035C75.9541 109.988 75.9309 109.945 75.9076 109.907C75.8766 109.868 75.8457 109.833 75.8144 109.802C75.7834 109.763 75.7485 109.732 75.7095 109.709C75.6786 109.678 75.6437 109.65 75.6047 109.627C75.5661 109.596 75.5232 109.573 75.4769 109.557C75.4304 109.526 75.3838 109.499 75.3372 109.476C75.2906 109.445 75.24 109.417 75.1857 109.394C75.1392 109.379 75.0886 109.359 75.0343 109.336C74.9877 109.313 74.9371 109.293 74.8829 109.278L74.2193 109.08C73.998 108.998 73.7767 108.929 73.5554 108.824C73.5088 108.8 73.4622 108.777 73.4156 108.754C73.369 108.723 73.3224 108.692 73.2758 108.661C73.2296 108.637 73.183 108.606 73.1364 108.567C73.0975 108.537 73.0585 108.502 73.0199 108.463C72.9734 108.424 72.9304 108.385 72.8918 108.346C72.8529 108.3 72.8179 108.253 72.787 108.206C72.748 108.16 72.7171 108.11 72.6938 108.055C72.6629 108.008 72.6356 107.958 72.6123 107.904C72.558 107.772 72.5191 107.64 72.4958 107.508C72.4725 107.368 72.4608 107.232 72.4608 107.1C72.4608 106.96 72.4725 106.825 72.4958 106.693C72.5191 106.553 72.558 106.421 72.6123 106.297C72.6356 106.235 72.6629 106.173 72.6938 106.11C72.7247 106.049 72.7597 105.99 72.7986 105.936C72.8376 105.882 72.8802 105.827 72.9268 105.773C72.9653 105.726 73.0083 105.68 73.0549 105.633C73.1091 105.587 73.1674 105.54 73.2296 105.493C73.2838 105.455 73.3421 105.416 73.404 105.377C73.4662 105.346 73.5321 105.315 73.602 105.284C73.6642 105.253 73.7301 105.226 73.8 105.202C73.8775 105.171 73.9554 105.148 74.033 105.132C74.1181 105.109 74.1997 105.09 74.2776 105.074C74.3627 105.059 74.4483 105.047 74.5335 105.039C74.619 105.032 74.7045 105.028 74.7897 105.028C74.8905 105.028 74.9917 105.028 75.0926 105.028C75.1857 105.035 75.2826 105.047 75.3838 105.063C75.4846 105.078 75.5854 105.097 75.6862 105.121C75.7794 105.144 75.8726 105.171 75.9658 105.202C76.0513 105.233 76.1365 105.272 76.2221 105.319C76.2996 105.357 76.3771 105.4 76.455 105.447C76.5325 105.493 76.6064 105.548 76.676 105.61C76.7458 105.664 76.8157 105.722 76.8856 105.784L76.5948 106.297ZM84.5478 105.074V105.936H82.1258V112.585H81.1128V105.936H78.6791V105.074H84.5478ZM87.7266 112.573H86.7136V105.074H88.8794C88.9879 105.074 89.0927 105.074 89.1936 105.074C89.2947 105.082 89.3956 105.09 89.4964 105.097C89.5972 105.113 89.6984 105.128 89.7993 105.144C89.9001 105.16 90.0009 105.179 90.1021 105.202C90.1796 105.226 90.2572 105.249 90.3347 105.272C90.4046 105.303 90.4785 105.334 90.556 105.365C90.6259 105.404 90.6958 105.443 90.7657 105.482C90.8279 105.528 90.8938 105.575 90.9637 105.622C91.0179 105.66 91.0685 105.707 91.1151 105.761C91.1617 105.808 91.2083 105.858 91.2549 105.912C91.2935 105.967 91.3324 106.025 91.3714 106.087C91.4023 106.149 91.4333 106.211 91.4642 106.274C91.4875 106.343 91.5108 106.413 91.5341 106.483C91.5574 106.553 91.573 106.623 91.5807 106.693C91.5963 106.763 91.608 106.836 91.6156 106.914C91.6236 106.984 91.6273 107.058 91.6273 107.135C91.6273 107.197 91.6236 107.259 91.6156 107.321C91.608 107.384 91.6003 107.446 91.5923 107.508C91.577 107.57 91.5614 107.632 91.5457 107.694C91.5304 107.756 91.5108 107.814 91.4875 107.869C91.4722 107.923 91.4525 107.977 91.4296 108.032C91.3983 108.086 91.3674 108.14 91.3364 108.195C91.3131 108.249 91.2818 108.3 91.2432 108.346C91.2119 108.393 91.177 108.439 91.1384 108.486C91.0918 108.533 91.0492 108.579 91.0103 108.626C90.9637 108.665 90.9171 108.707 90.8705 108.754C90.8163 108.792 90.7657 108.827 90.7191 108.859C90.6648 108.897 90.6106 108.929 90.556 108.952C90.4941 108.99 90.4319 109.025 90.3696 109.057C90.3078 109.088 90.2455 109.115 90.1836 109.138C90.1137 109.161 90.0439 109.181 89.974 109.196C89.9117 109.219 89.8458 109.239 89.776 109.254C89.8069 109.27 89.8382 109.289 89.8691 109.313C89.9001 109.336 89.9274 109.359 89.9507 109.382C89.9816 109.414 90.0089 109.441 90.0322 109.464C90.0555 109.495 90.0788 109.526 90.1021 109.557L92.2795 112.538H91.3481C91.3091 112.538 91.2702 112.534 91.2316 112.527C91.1926 112.511 91.1537 112.495 91.1151 112.48C91.0838 112.457 91.0529 112.434 91.0219 112.41C90.991 112.379 90.9677 112.348 90.952 112.317L89.0192 109.685C89.0036 109.67 88.9879 109.658 88.9726 109.65C88.957 109.635 88.9377 109.619 88.9144 109.604C88.8987 109.596 88.8831 109.588 88.8678 109.58C88.8445 109.573 88.8248 109.565 88.8095 109.557C88.7862 109.55 88.7589 109.546 88.728 109.546C88.7047 109.538 88.6774 109.534 88.6465 109.534C88.6232 109.534 88.5999 109.538 88.5766 109.546C88.5456 109.546 88.5183 109.55 88.495 109.557H87.7266V112.573ZM88.7979 108.696C88.8598 108.696 88.926 108.692 88.9959 108.684C89.0578 108.684 89.12 108.676 89.1819 108.661C89.2518 108.653 89.318 108.641 89.3799 108.626C89.4422 108.618 89.5044 108.602 89.5663 108.579C89.6129 108.563 89.6595 108.544 89.7061 108.521C89.7527 108.505 89.7993 108.482 89.8458 108.451C89.8848 108.428 89.9274 108.4 89.974 108.369C90.0126 108.339 90.0515 108.308 90.0905 108.276C90.129 108.245 90.164 108.21 90.1953 108.171C90.2262 108.14 90.2572 108.106 90.2885 108.067C90.3194 108.028 90.3463 107.985 90.3696 107.939C90.3929 107.9 90.4162 107.857 90.4395 107.811C90.4552 107.764 90.4708 107.718 90.4861 107.671C90.5018 107.616 90.5174 107.566 90.5327 107.52C90.5407 107.465 90.5484 107.415 90.556 107.368C90.556 107.314 90.556 107.263 90.556 107.217C90.564 107.116 90.56 107.019 90.5444 106.925C90.5291 106.833 90.5018 106.743 90.4628 106.658C90.4242 106.565 90.3777 106.483 90.3231 106.413C90.2612 106.336 90.1953 106.266 90.1254 106.204C90.0242 106.141 89.9234 106.087 89.8226 106.041C89.7137 105.994 89.6052 105.955 89.4964 105.924C89.3799 105.901 89.2634 105.882 89.1473 105.866C89.0385 105.858 88.926 105.858 88.8095 105.866H87.7266V108.696H88.7979ZM94.3056 105.063H95.3186V112.561H94.3056V105.063ZM102.899 105.889H99.2895V108.381H102.212V109.173H99.2895V111.711H102.899V112.538H98.2761V105.039H102.899V105.889ZM109.199 106.285C109.199 106.293 109.195 106.301 109.187 106.308C109.179 106.324 109.171 106.336 109.164 106.343C109.156 106.351 109.144 106.363 109.129 106.378C109.121 106.386 109.113 106.394 109.105 106.402C109.098 106.402 109.086 106.402 109.071 106.402C109.063 106.409 109.051 106.413 109.036 106.413C109.028 106.413 109.02 106.409 109.012 106.402C108.997 106.402 108.985 106.402 108.977 106.402C108.954 106.394 108.931 106.39 108.907 106.39C108.892 106.382 108.876 106.371 108.861 106.355C108.838 106.347 108.818 106.336 108.803 106.32C108.787 106.312 108.772 106.301 108.756 106.285L108.454 106.087C108.415 106.064 108.38 106.045 108.349 106.029C108.31 106.014 108.275 105.994 108.244 105.971C108.205 105.955 108.166 105.944 108.127 105.936C108.088 105.92 108.053 105.905 108.023 105.889C107.968 105.874 107.918 105.858 107.871 105.843C107.817 105.835 107.762 105.827 107.708 105.819C107.661 105.812 107.611 105.808 107.557 105.808C107.502 105.8 107.448 105.8 107.394 105.808C107.347 105.8 107.297 105.8 107.243 105.808C107.196 105.808 107.145 105.812 107.091 105.819C107.044 105.827 106.998 105.835 106.951 105.843C106.897 105.858 106.846 105.874 106.8 105.889C106.761 105.905 106.722 105.92 106.683 105.936C106.644 105.951 106.606 105.971 106.567 105.994C106.536 106.017 106.501 106.041 106.462 106.064C106.431 106.087 106.4 106.11 106.369 106.134C106.338 106.165 106.311 106.192 106.287 106.215C106.264 106.246 106.241 106.278 106.218 106.308C106.195 106.339 106.175 106.371 106.16 106.402C106.136 106.441 106.117 106.476 106.101 106.506C106.086 106.545 106.074 106.584 106.066 106.623C106.058 106.654 106.051 106.689 106.043 106.728C106.035 106.766 106.027 106.805 106.02 106.844C106.02 106.883 106.02 106.922 106.02 106.96C106.02 107.007 106.02 107.054 106.02 107.1C106.027 107.147 106.039 107.193 106.055 107.24C106.062 107.287 106.078 107.329 106.101 107.368C106.125 107.407 106.148 107.446 106.171 107.485C106.202 107.524 106.233 107.558 106.264 107.589C106.295 107.628 106.326 107.659 106.357 107.683C106.396 107.714 106.431 107.744 106.462 107.776C106.501 107.799 106.54 107.822 106.579 107.846C106.625 107.869 106.672 107.892 106.718 107.916C106.765 107.939 106.816 107.962 106.87 107.985C106.916 108.008 106.963 108.028 107.01 108.043C107.056 108.059 107.106 108.075 107.161 108.09L107.825 108.323C108.046 108.404 108.267 108.486 108.488 108.579C108.535 108.602 108.585 108.63 108.64 108.661C108.686 108.684 108.737 108.711 108.791 108.742C108.838 108.773 108.884 108.804 108.931 108.835C108.977 108.874 109.02 108.909 109.059 108.94C109.105 108.979 109.148 109.018 109.187 109.057C109.226 109.103 109.261 109.15 109.292 109.196C109.33 109.243 109.365 109.289 109.397 109.336C109.428 109.382 109.455 109.433 109.478 109.487C109.501 109.55 109.525 109.611 109.548 109.674C109.563 109.736 109.579 109.802 109.595 109.872C109.61 109.934 109.618 110 109.618 110.07C109.626 110.132 109.63 110.198 109.63 110.268C109.63 110.345 109.626 110.423 109.618 110.5C109.61 110.578 109.598 110.656 109.583 110.733C109.575 110.811 109.56 110.889 109.536 110.966C109.513 111.044 109.49 111.118 109.467 111.188C109.435 111.257 109.404 111.327 109.373 111.397C109.334 111.467 109.295 111.533 109.257 111.595C109.218 111.657 109.175 111.715 109.129 111.77C109.082 111.832 109.032 111.89 108.977 111.944C108.915 111.999 108.853 112.049 108.791 112.096C108.729 112.142 108.667 112.189 108.605 112.235C108.535 112.274 108.465 112.313 108.395 112.352C108.325 112.383 108.256 112.414 108.186 112.445C108.092 112.476 108.003 112.503 107.918 112.527C107.825 112.55 107.735 112.569 107.65 112.585C107.557 112.6 107.463 112.612 107.371 112.62C107.277 112.628 107.184 112.631 107.091 112.631C106.982 112.631 106.87 112.628 106.753 112.62C106.644 112.604 106.532 112.585 106.415 112.561C106.307 112.546 106.198 112.519 106.09 112.48C105.981 112.449 105.872 112.41 105.764 112.364C105.67 112.325 105.581 112.282 105.496 112.235C105.402 112.197 105.313 112.146 105.228 112.084C105.143 112.03 105.061 111.972 104.984 111.909C104.906 111.847 104.832 111.781 104.762 111.711L105.053 111.234C105.061 111.226 105.069 111.218 105.077 111.211C105.084 111.203 105.092 111.195 105.1 111.188C105.108 111.18 105.115 111.172 105.123 111.164C105.131 111.156 105.139 111.149 105.146 111.141C105.162 111.133 105.174 111.129 105.181 111.129C105.189 111.129 105.201 111.129 105.216 111.129C105.224 111.129 105.236 111.129 105.251 111.129C105.259 111.129 105.267 111.133 105.274 111.141C105.29 111.133 105.306 111.129 105.321 111.129C105.329 111.129 105.341 111.129 105.356 111.129C105.372 111.129 105.383 111.129 105.391 111.129C105.406 111.129 105.418 111.133 105.426 111.141L105.624 111.281L105.88 111.467C105.903 111.482 105.927 111.498 105.95 111.513C105.981 111.529 106.008 111.545 106.031 111.56C106.062 111.576 106.09 111.591 106.113 111.606C106.144 111.622 106.175 111.638 106.206 111.653C106.237 111.669 106.268 111.68 106.299 111.688C106.338 111.704 106.373 111.719 106.404 111.735C106.443 111.743 106.478 111.75 106.509 111.758C106.548 111.774 106.583 111.785 106.614 111.793C106.66 111.801 106.703 111.809 106.742 111.816C106.788 111.824 106.831 111.828 106.87 111.828C106.916 111.835 106.963 111.839 107.01 111.839C107.048 111.847 107.091 111.847 107.138 111.839C107.192 111.839 107.246 111.835 107.301 111.828C107.355 111.828 107.409 111.82 107.463 111.805C107.518 111.797 107.572 111.785 107.627 111.77C107.673 111.754 107.724 111.735 107.778 111.711C107.825 111.696 107.867 111.68 107.906 111.665C107.953 111.641 107.995 111.618 108.034 111.595C108.073 111.572 108.112 111.548 108.151 111.525C108.189 111.494 108.224 111.463 108.256 111.432C108.286 111.401 108.317 111.37 108.349 111.339C108.38 111.3 108.407 111.265 108.43 111.234C108.461 111.195 108.484 111.156 108.5 111.118C108.523 111.079 108.543 111.04 108.558 111.001C108.581 110.955 108.597 110.908 108.605 110.861C108.62 110.815 108.632 110.768 108.64 110.722C108.648 110.675 108.655 110.628 108.663 110.582C108.671 110.535 108.674 110.489 108.674 110.442C108.674 110.395 108.674 110.349 108.674 110.302C108.674 110.248 108.671 110.198 108.663 110.151C108.655 110.105 108.64 110.058 108.616 110.011C108.601 109.965 108.581 109.922 108.558 109.883C108.527 109.844 108.496 109.809 108.465 109.778C108.426 109.748 108.387 109.716 108.349 109.685C108.31 109.654 108.271 109.627 108.232 109.604C108.193 109.58 108.151 109.561 108.104 109.546C108.057 109.515 108.011 109.487 107.964 109.464C107.918 109.441 107.871 109.417 107.825 109.394C107.778 109.379 107.728 109.359 107.673 109.336C107.627 109.321 107.58 109.305 107.533 109.289L106.87 109.08C106.637 109.01 106.415 108.929 106.206 108.835C106.152 108.812 106.101 108.785 106.055 108.754C106 108.731 105.95 108.703 105.903 108.672C105.857 108.633 105.81 108.598 105.764 108.567C105.725 108.529 105.682 108.49 105.635 108.451C105.596 108.412 105.558 108.373 105.519 108.335C105.48 108.288 105.441 108.241 105.402 108.195C105.372 108.148 105.341 108.098 105.309 108.043C105.286 107.997 105.263 107.946 105.239 107.892C105.185 107.76 105.146 107.628 105.123 107.496C105.092 107.356 105.077 107.221 105.077 107.089C105.077 106.949 105.092 106.813 105.123 106.681C105.146 106.541 105.185 106.409 105.239 106.285C105.263 106.223 105.29 106.161 105.321 106.099C105.352 106.037 105.387 105.979 105.426 105.924C105.465 105.87 105.503 105.816 105.542 105.761C105.589 105.714 105.635 105.668 105.682 105.622C105.736 105.575 105.791 105.528 105.845 105.482C105.899 105.443 105.958 105.408 106.02 105.377C106.074 105.338 106.132 105.303 106.195 105.272C106.256 105.241 106.322 105.214 106.392 105.191C106.47 105.16 106.548 105.132 106.625 105.109C106.711 105.093 106.792 105.078 106.87 105.063C106.955 105.047 107.04 105.035 107.126 105.028C107.211 105.02 107.297 105.016 107.382 105.016C107.475 105.016 107.572 105.016 107.673 105.016C107.774 105.024 107.875 105.035 107.976 105.051C108.077 105.067 108.174 105.086 108.267 105.109C108.368 105.132 108.465 105.16 108.558 105.191C108.644 105.222 108.729 105.261 108.814 105.307C108.892 105.346 108.97 105.389 109.047 105.435C109.125 105.482 109.199 105.532 109.269 105.587C109.338 105.649 109.408 105.711 109.478 105.773L109.199 106.285ZM111.691 111.921C111.691 111.882 111.691 111.843 111.691 111.805C111.698 111.774 111.706 111.739 111.714 111.7C111.722 111.661 111.733 111.626 111.749 111.595C111.772 111.564 111.795 111.533 111.819 111.502C111.842 111.471 111.873 111.443 111.912 111.42C111.95 111.397 111.989 111.378 112.028 111.362C112.067 111.347 112.106 111.335 112.144 111.327C112.183 111.327 112.226 111.327 112.273 111.327C112.296 111.327 112.319 111.327 112.342 111.327C112.366 111.327 112.389 111.331 112.412 111.339C112.436 111.339 112.459 111.343 112.482 111.351C112.498 111.358 112.517 111.366 112.541 111.374C112.564 111.389 112.583 111.401 112.599 111.408C112.622 111.424 112.641 111.436 112.657 111.443C112.673 111.459 112.688 111.475 112.704 111.49C112.719 111.506 112.735 111.521 112.75 111.537C112.765 111.56 112.777 111.58 112.785 111.595C112.8 111.618 112.812 111.638 112.82 111.653C112.828 111.676 112.835 111.7 112.843 111.723C112.851 111.739 112.859 111.758 112.867 111.781C112.874 111.805 112.878 111.828 112.878 111.851C112.878 111.874 112.878 111.902 112.878 111.933C112.878 111.956 112.878 111.979 112.878 112.003C112.878 112.026 112.874 112.049 112.867 112.072C112.867 112.119 112.867 112.162 112.867 112.201C112.859 112.239 112.855 112.278 112.855 112.317C112.847 112.364 112.839 112.406 112.832 112.445C112.824 112.484 112.816 112.523 112.808 112.561C112.793 112.608 112.777 112.651 112.762 112.689C112.746 112.736 112.731 112.779 112.715 112.818C112.7 112.864 112.684 112.907 112.669 112.946C112.645 112.985 112.626 113.023 112.61 113.062C112.587 113.109 112.564 113.151 112.541 113.19C112.517 113.237 112.49 113.279 112.459 113.318C112.436 113.357 112.408 113.396 112.377 113.435C112.354 113.473 112.327 113.512 112.296 113.551C112.265 113.59 112.23 113.629 112.191 113.668C112.16 113.706 112.125 113.745 112.086 113.784C112.055 113.815 112.02 113.85 111.981 113.889C111.943 113.92 111.904 113.951 111.865 113.982L111.819 113.831L111.76 113.772C111.76 113.765 111.76 113.757 111.76 113.749C111.76 113.741 111.76 113.737 111.76 113.737C111.76 113.73 111.76 113.722 111.76 113.714C111.76 113.706 111.76 113.699 111.76 113.691C111.76 113.683 111.76 113.679 111.76 113.679C111.752 113.671 111.749 113.664 111.749 113.656C111.749 113.648 111.752 113.641 111.76 113.633C111.76 113.633 111.76 113.629 111.76 113.621L111.819 113.551L111.946 113.4L112.11 113.167C112.125 113.151 112.137 113.132 112.144 113.109C112.16 113.085 112.176 113.062 112.191 113.039C112.199 113.016 112.211 112.992 112.226 112.969C112.234 112.946 112.246 112.922 112.261 112.899C112.269 112.876 112.281 112.849 112.296 112.818C112.304 112.794 112.312 112.767 112.319 112.736C112.327 112.713 112.335 112.686 112.342 112.654C112.35 112.631 112.354 112.604 112.354 112.573H112.296C112.249 112.573 112.207 112.569 112.168 112.561C112.129 112.554 112.09 112.542 112.051 112.527C112.013 112.511 111.974 112.492 111.935 112.468C111.904 112.445 111.873 112.418 111.842 112.387C111.819 112.356 111.795 112.321 111.772 112.282C111.756 112.251 111.741 112.212 111.726 112.166C111.71 112.127 111.702 112.088 111.702 112.049C111.694 112.01 111.691 111.968 111.691 111.921ZM119.236 105.063H120.249V112.561H119.236V105.063ZM123.859 105.074H124.022L124.092 105.191L128.447 110.85C128.447 110.757 128.447 110.663 128.447 110.582C128.447 110.512 128.447 110.419 128.447 110.349V105.063H129.331V112.561H128.819C128.804 112.569 128.788 112.573 128.773 112.573C128.757 112.573 128.741 112.573 128.726 112.573C128.71 112.573 128.695 112.573 128.68 112.573C128.664 112.573 128.645 112.569 128.621 112.561C128.606 112.554 128.594 112.546 128.586 112.538C128.571 112.523 128.555 112.511 128.54 112.503C128.524 112.488 128.509 112.476 128.493 112.468C128.486 112.453 128.474 112.437 128.458 112.422L124.115 106.774C124.115 106.86 124.115 106.945 124.115 107.03C124.115 107.116 124.115 107.193 124.115 107.263V112.608H123.23V105.109H123.87L123.859 105.074ZM137.517 111.013C137.533 111.013 137.548 111.017 137.564 111.024C137.572 111.024 137.583 111.028 137.599 111.036C137.615 111.044 137.626 111.051 137.634 111.059C137.65 111.067 137.661 111.075 137.669 111.083L138.065 111.513C137.995 111.607 137.917 111.692 137.832 111.77C137.746 111.847 137.661 111.921 137.576 111.991C137.483 112.061 137.385 112.127 137.285 112.189C137.191 112.251 137.09 112.305 136.982 112.352C136.858 112.406 136.729 112.453 136.598 112.492C136.474 112.53 136.341 112.561 136.202 112.585C136.07 112.608 135.938 112.628 135.806 112.643C135.666 112.651 135.53 112.651 135.398 112.643C135.274 112.651 135.15 112.647 135.026 112.631C134.901 112.624 134.777 112.608 134.653 112.585C134.529 112.561 134.405 112.53 134.28 112.492C134.164 112.453 134.047 112.41 133.931 112.364C133.83 112.317 133.729 112.266 133.628 112.212C133.527 112.158 133.434 112.096 133.349 112.026C133.256 111.964 133.167 111.894 133.081 111.816C132.995 111.746 132.918 111.669 132.848 111.583C132.763 111.498 132.685 111.405 132.615 111.304C132.545 111.211 132.479 111.114 132.417 111.013C132.355 110.912 132.301 110.807 132.254 110.698C132.2 110.59 132.153 110.477 132.115 110.361C132.068 110.236 132.029 110.112 131.998 109.988C131.967 109.856 131.94 109.728 131.917 109.604C131.893 109.472 131.878 109.34 131.87 109.208C131.854 109.076 131.851 108.944 131.858 108.812C131.851 108.68 131.854 108.548 131.87 108.416C131.878 108.284 131.893 108.152 131.917 108.02C131.94 107.888 131.971 107.76 132.01 107.636C132.041 107.512 132.08 107.387 132.126 107.263C132.165 107.147 132.211 107.034 132.266 106.925C132.32 106.817 132.379 106.712 132.44 106.611C132.503 106.51 132.569 106.413 132.638 106.32C132.716 106.219 132.794 106.126 132.871 106.041C132.957 105.955 133.046 105.874 133.139 105.796C133.224 105.726 133.318 105.657 133.419 105.587C133.512 105.524 133.613 105.466 133.721 105.412C133.822 105.35 133.927 105.299 134.036 105.261C134.152 105.214 134.273 105.171 134.397 105.132C134.521 105.093 134.645 105.063 134.769 105.039C134.894 105.016 135.018 105 135.142 104.993C135.274 104.977 135.402 104.973 135.526 104.981C135.651 104.973 135.771 104.977 135.887 104.993C136.012 105 136.132 105.016 136.248 105.039C136.365 105.063 136.481 105.09 136.598 105.121C136.714 105.152 136.827 105.191 136.935 105.237C137.036 105.276 137.137 105.323 137.238 105.377C137.331 105.424 137.424 105.478 137.517 105.54C137.611 105.594 137.7 105.657 137.785 105.726C137.871 105.788 137.952 105.858 138.03 105.936L137.692 106.402C137.685 106.409 137.677 106.417 137.669 106.425C137.669 106.433 137.665 106.441 137.657 106.448C137.65 106.456 137.642 106.464 137.634 106.472C137.626 106.479 137.618 106.483 137.611 106.483C137.603 106.491 137.591 106.495 137.576 106.495C137.568 106.495 137.56 106.495 137.552 106.495C137.537 106.495 137.525 106.495 137.517 106.495C137.502 106.495 137.49 106.491 137.483 106.483C137.459 106.483 137.44 106.479 137.424 106.472C137.401 106.472 137.382 106.468 137.366 106.46C137.343 106.452 137.323 106.441 137.308 106.425C137.293 106.417 137.273 106.406 137.25 106.39C137.226 106.367 137.199 106.347 137.168 106.332C137.137 106.308 137.106 106.289 137.075 106.274C137.052 106.25 137.025 106.231 136.993 106.215C136.962 106.192 136.931 106.173 136.9 106.157C136.854 106.134 136.807 106.11 136.761 106.087C136.722 106.072 136.679 106.052 136.633 106.029C136.586 106.014 136.539 105.998 136.493 105.982C136.446 105.959 136.4 105.944 136.353 105.936C136.283 105.912 136.217 105.897 136.155 105.889C136.085 105.874 136.015 105.862 135.945 105.854C135.883 105.847 135.817 105.839 135.748 105.831C135.678 105.831 135.608 105.831 135.538 105.831C135.445 105.831 135.352 105.835 135.258 105.843C135.165 105.851 135.072 105.862 134.979 105.878C134.894 105.901 134.804 105.924 134.711 105.947C134.626 105.971 134.54 106.002 134.455 106.041C134.377 106.072 134.3 106.11 134.222 106.157C134.145 106.196 134.071 106.239 134.001 106.285C133.931 106.339 133.865 106.394 133.803 106.448C133.741 106.502 133.683 106.561 133.628 106.623C133.566 106.693 133.508 106.766 133.454 106.844C133.399 106.914 133.349 106.988 133.302 107.065C133.256 107.143 133.217 107.225 133.186 107.31C133.147 107.395 133.112 107.481 133.081 107.566C133.05 107.659 133.019 107.76 132.988 107.869C132.965 107.97 132.945 108.071 132.93 108.171C132.914 108.28 132.902 108.385 132.895 108.486C132.887 108.595 132.883 108.7 132.883 108.8C132.883 108.909 132.887 109.014 132.895 109.115C132.902 109.223 132.914 109.332 132.93 109.441C132.953 109.542 132.976 109.643 132.999 109.744C133.023 109.852 133.054 109.953 133.093 110.046C133.124 110.132 133.159 110.217 133.198 110.302C133.236 110.388 133.279 110.469 133.326 110.547C133.372 110.625 133.422 110.698 133.477 110.768C133.531 110.846 133.59 110.92 133.651 110.99C133.706 111.051 133.764 111.11 133.826 111.164C133.888 111.218 133.954 111.269 134.024 111.316C134.094 111.37 134.168 111.416 134.245 111.455C134.315 111.494 134.393 111.529 134.478 111.56C134.556 111.591 134.637 111.622 134.723 111.653C134.808 111.676 134.894 111.696 134.979 111.711C135.064 111.727 135.15 111.739 135.235 111.746C135.321 111.754 135.406 111.758 135.491 111.758C135.546 111.758 135.596 111.762 135.643 111.77C135.697 111.77 135.748 111.77 135.794 111.77C135.849 111.77 135.899 111.77 135.945 111.77C136 111.762 136.054 111.758 136.108 111.758C136.147 111.75 136.186 111.743 136.225 111.735C136.271 111.727 136.314 111.719 136.353 111.711C136.4 111.704 136.442 111.692 136.481 111.676C136.52 111.669 136.559 111.657 136.598 111.641C136.636 111.626 136.675 111.611 136.714 111.595C136.753 111.58 136.788 111.564 136.819 111.548C136.858 111.533 136.892 111.513 136.924 111.49C136.962 111.475 136.997 111.455 137.028 111.432C137.06 111.408 137.094 111.386 137.133 111.362C137.164 111.339 137.195 111.316 137.226 111.292C137.258 111.261 137.289 111.234 137.319 111.211C137.358 111.18 137.389 111.153 137.413 111.129C137.42 111.114 137.428 111.102 137.436 111.094C137.444 111.086 137.452 111.079 137.459 111.071C137.467 111.055 137.475 111.044 137.483 111.036C137.498 111.028 137.51 111.02 137.517 111.013ZM139.916 111.991C139.916 111.944 139.92 111.902 139.928 111.863C139.936 111.816 139.947 111.774 139.963 111.735C139.978 111.696 139.998 111.657 140.021 111.618C140.044 111.58 140.071 111.545 140.103 111.513C140.118 111.498 140.134 111.486 140.149 111.478C140.164 111.463 140.18 111.447 140.196 111.432C140.219 111.424 140.238 111.416 140.254 111.408C140.269 111.393 140.289 111.382 140.312 111.374C140.351 111.358 140.39 111.347 140.428 111.339C140.475 111.331 140.522 111.327 140.568 111.327C140.607 111.327 140.65 111.331 140.696 111.339C140.735 111.347 140.778 111.358 140.824 111.374C140.84 111.382 140.855 111.393 140.871 111.408C140.894 111.416 140.914 111.428 140.929 111.443C140.945 111.451 140.96 111.463 140.976 111.478C140.991 111.486 141.007 111.498 141.022 111.513C141.038 111.529 141.053 111.545 141.069 111.56C141.077 111.576 141.088 111.591 141.104 111.606C141.112 111.622 141.12 111.641 141.127 111.665C141.143 111.68 141.154 111.696 141.162 111.711C141.177 111.75 141.189 111.793 141.197 111.839C141.205 111.878 141.209 111.921 141.209 111.968C141.209 112.014 141.205 112.057 141.197 112.096C141.189 112.142 141.177 112.185 141.162 112.224C141.147 112.247 141.135 112.266 141.127 112.282C141.12 112.297 141.108 112.317 141.092 112.34C141.085 112.356 141.073 112.371 141.057 112.387C141.042 112.402 141.026 112.418 141.011 112.434C141.003 112.449 140.987 112.46 140.964 112.468C140.949 112.484 140.933 112.499 140.918 112.515C140.902 112.523 140.887 112.534 140.871 112.55C140.848 112.558 140.828 112.565 140.813 112.573C140.766 112.589 140.724 112.6 140.685 112.608C140.638 112.616 140.595 112.62 140.557 112.62C140.51 112.62 140.467 112.616 140.428 112.608C140.382 112.6 140.339 112.589 140.301 112.573C140.277 112.565 140.258 112.558 140.242 112.55C140.227 112.534 140.207 112.523 140.184 112.515C140.168 112.499 140.153 112.488 140.138 112.48C140.122 112.464 140.106 112.449 140.091 112.434C140.075 112.418 140.06 112.402 140.044 112.387C140.036 112.371 140.025 112.356 140.009 112.34C140.001 112.317 139.99 112.297 139.974 112.282C139.967 112.266 139.959 112.247 139.951 112.224C139.944 112.208 139.94 112.189 139.94 112.166C139.932 112.15 139.928 112.131 139.928 112.107C139.92 112.084 139.916 112.065 139.916 112.049C139.916 112.026 139.916 112.007 139.916 111.991Z" fill="#979798"/>
</g>
</g>
<defs>
<clipPath id="clip0_4077_444">
<rect width="182" height="77.532" fill="white" transform="translate(1 36.7339)"/>
</clipPath>
</defs>
</svg>
