<svg width="183" height="151" viewBox="0 0 183 151" fill="none" xmlns="http://www.w3.org/2000/svg">
<g clip-path="url(#clip0_4077_429)">
<mask id="mask0_4077_429" style="mask-type:luminance" maskUnits="userSpaceOnUse" x="0" y="55" width="182" height="55">
<path d="M182 55.0181H0V109.95H182V55.0181Z" fill="white"/>
</mask>
<g mask="url(#mask0_4077_429)">
<path d="M112.884 97.9324C102.32 105.719 87.0091 109.873 73.8261 109.873C55.3418 109.873 38.7008 103.036 26.1115 91.6655C25.1223 90.7714 26.0086 89.5528 27.1955 90.2491C40.7818 98.1541 57.5811 102.91 74.9341 102.91C86.6371 102.91 99.5114 100.488 111.349 95.4638C113.137 94.7041 114.633 96.6348 112.884 97.9324Z" fill="#979798"/>
<path d="M117.276 92.9076C115.931 91.1827 108.35 92.0926 104.948 92.4963C103.911 92.623 103.753 91.7206 104.686 91.0719C110.724 86.8227 120.631 88.0492 121.786 89.4735C122.941 90.9057 121.486 100.836 115.812 105.576C114.942 106.304 114.111 105.917 114.498 104.951C115.772 101.77 118.629 94.6406 117.276 92.9076Z" fill="#979798"/>
<path d="M105.185 61.0747V56.9442C105.185 56.319 105.66 55.8997 106.229 55.8997H124.722C125.315 55.8997 125.79 56.327 125.79 56.9442V60.4812C125.782 61.0747 125.284 61.8502 124.397 63.0766L114.815 76.758C118.376 76.671 122.134 77.2011 125.363 79.0211C126.091 79.4326 126.288 80.0339 126.344 80.6274V85.0349C126.344 85.6362 125.679 86.3405 124.983 85.9765C119.293 82.9934 111.737 82.6689 105.446 86.0082C104.805 86.3563 104.132 85.66 104.132 85.0586V80.8727C104.132 80.2001 104.14 79.0527 104.813 78.032L115.915 62.1113H106.253C105.66 62.1113 105.185 61.6919 105.185 61.0747Z" fill="#979798"/>
<path d="M37.7278 86.8466H32.1016C31.5635 86.807 31.1362 86.4034 31.0967 85.8891V57.015C31.0967 56.4374 31.5793 55.9784 32.1807 55.9784H37.4271C37.9731 56.0022 38.4081 56.4216 38.4478 56.9438V60.7183H38.5508C39.9194 57.0704 42.4911 55.3691 45.9571 55.3691C49.4784 55.3691 51.6781 57.0704 53.2607 60.7183C54.6217 57.0704 57.7157 55.3691 61.0311 55.3691C63.389 55.3691 65.9687 56.3424 67.5434 58.5264C69.3237 60.9556 68.9597 64.4848 68.9597 67.5787L68.9521 85.8021C68.9521 86.3797 68.469 86.8466 67.8677 86.8466H62.2497C61.6877 86.807 61.2367 86.356 61.2367 85.8021V70.4986C61.2367 69.28 61.3477 66.2414 61.0787 65.0861C60.659 63.1475 59.4011 62.6015 57.7711 62.6015C56.4101 62.6015 54.9857 63.5115 54.4081 64.9675C53.8304 66.4234 53.8857 68.8606 53.8857 70.4986V85.8021C53.8857 86.3797 53.4031 86.8466 52.8017 86.8466H47.1834C46.6137 86.807 46.1708 86.356 46.1708 85.8021L46.1627 70.4986C46.1627 67.278 46.6931 62.5382 42.6971 62.5382C38.6534 62.5382 38.8118 67.1593 38.8118 70.4986V85.8021C38.8118 86.3797 38.3291 86.8466 37.7278 86.8466Z" fill="#979798"/>
<path d="M141.711 55.3691C150.059 55.3691 154.577 62.5382 154.577 71.6538C154.577 80.4609 149.584 87.4479 141.711 87.4479C133.513 87.4479 129.05 80.2789 129.05 71.3452C129.05 62.3562 133.568 55.3691 141.711 55.3691ZM141.758 61.2643C137.612 61.2643 137.351 66.914 137.351 70.4353C137.351 73.9644 137.295 81.4974 141.711 81.4974C146.071 81.4974 146.276 75.4204 146.276 71.7171C146.276 69.28 146.174 66.368 145.438 64.0575C144.805 62.0476 143.546 61.2643 141.758 61.2643Z" fill="#979798"/>
<path d="M165.402 86.8466H159.8C159.238 86.807 158.787 86.356 158.787 85.8021L158.779 56.9201C158.826 56.3899 159.293 55.9784 159.863 55.9784H165.078C165.568 56.0022 165.972 56.3345 166.083 56.7855V61.2009H166.185C167.76 57.2524 169.968 55.3691 173.853 55.3691C176.377 55.3691 178.838 56.2791 180.421 58.7717C181.893 61.0823 181.893 64.9675 181.893 67.7607V85.9366C181.829 86.443 181.362 86.8466 180.809 86.8466H175.167C174.652 86.807 174.225 86.4272 174.17 85.9366V70.2533C174.17 67.096 174.534 62.4749 170.648 62.4749C169.279 62.4749 168.021 63.3928 167.396 64.7855C166.605 66.55 166.502 68.3067 166.502 70.2533V85.8021C166.494 86.3797 166.003 86.8466 165.402 86.8466Z" fill="#979798"/>
<path d="M90.443 73.0543V71.8357C86.376 71.8357 82.079 72.7061 82.079 77.5013C82.079 79.9306 83.3374 81.5765 85.4977 81.5765C87.08 81.5765 88.4967 80.6032 89.3907 79.0206C90.4983 77.074 90.443 75.2461 90.443 73.0543ZM96.1167 86.7673C95.7447 87.0996 95.2067 87.1234 94.7874 86.9018C92.9197 85.3509 92.5873 84.6308 91.5587 83.1511C88.4727 86.3004 86.2887 87.2421 82.285 87.2421C77.553 87.2421 73.8657 84.3222 73.8657 78.4746C73.8657 73.9089 76.3424 70.7991 79.8637 69.2798C82.918 67.9346 87.183 67.6972 90.443 67.3253V66.5974C90.443 65.2601 90.546 63.6775 89.7627 62.5223C89.074 61.4857 87.7607 61.0584 86.6054 61.0584C84.461 61.0584 82.546 62.1583 82.079 64.4372C81.9844 64.9436 81.6124 65.4421 81.106 65.4658L75.646 64.8803C75.187 64.7774 74.6807 64.4055 74.8074 63.7013C76.0654 57.0861 82.0397 55.092 87.3887 55.092C90.1267 55.092 93.7034 55.82 95.8633 57.8932C98.6013 60.4491 98.34 63.8595 98.34 67.5706V76.3381C98.34 78.9731 99.432 80.1284 100.461 81.5527C100.825 82.0591 100.904 82.6684 100.445 83.0483C99.2977 84.0057 97.256 85.7861 96.1323 86.7831L96.1167 86.7673Z" fill="#979798"/>
<path d="M16.6873 73.0543V71.8357C12.6201 71.8357 8.32343 72.7061 8.32343 77.5013C8.32343 79.9306 9.58156 81.5765 11.7418 81.5765C13.3244 81.5765 14.7408 80.6032 15.6349 79.0206C16.7427 77.074 16.6873 75.2461 16.6873 73.0543ZM22.3609 86.7673C21.989 87.0996 21.4509 87.1234 21.0315 86.9018C19.1641 85.3509 18.8317 84.6308 17.803 83.1511C14.717 86.3004 12.5331 87.2421 8.52916 87.2421C3.79727 87.2421 0.109863 84.3222 0.109863 78.4746C0.109863 73.9089 2.58659 70.7991 6.10783 69.2798C9.16219 67.9346 13.4272 67.6972 16.6873 67.3253V66.5974C16.6873 65.2601 16.7902 63.6775 16.0069 62.5223C15.3184 61.4857 14.0049 61.0584 12.8496 61.0584C10.7052 61.0584 8.7903 62.1583 8.32343 64.4372C8.22846 64.9436 7.85656 65.4421 7.35013 65.4658L1.89026 64.8803C1.43131 64.7774 0.924889 64.4055 1.0515 63.7013C2.30964 57.0861 8.28386 55.092 13.633 55.092C16.3708 55.092 19.9474 55.82 22.1077 57.8932C24.8455 60.4491 24.5844 63.8595 24.5844 67.5706V76.3381C24.5844 78.9731 25.6764 80.1284 26.705 81.5527C27.069 82.0591 27.1482 82.6684 26.6892 83.0483C25.5419 84.0057 23.5003 85.7861 22.3767 86.7831L22.3609 86.7673Z" fill="#979798"/>
</g>
</g>
<defs>
<clipPath id="clip0_4077_429">
<rect width="182" height="54.964" fill="white" transform="translate(0 55.0181)"/>
</clipPath>
</defs>
</svg>
