<svg width="183" height="151" viewBox="0 0 183 151" fill="none" xmlns="http://www.w3.org/2000/svg">
<g clip-path="url(#clip0_4077_448)">
<g clip-path="url(#clip1_4077_448)">
<path d="M99.3285 69.2073H103.412V80.5664C103.412 86.3323 100.235 89.6394 94.6992 89.6394C89.2204 89.6394 86.0718 86.3898 86.0718 80.7246V69.2216H90.1554V80.5952C90.1554 83.9599 91.8087 85.7572 94.7567 85.7572C97.7039 85.7572 99.3285 84.0029 99.3285 80.739V69.2073ZM76.3229 77.3169H67.0918V69.2073H63.0083V89.3374H67.0918V81.156H76.3086V89.3374H80.3924V69.2073H76.3086V77.3169H76.3229ZM178.584 69.2073V89.3087H182.61V69.2073H178.584ZM162.552 80.6671H169.986V77.0005H162.552V72.8739H173.336V69.2216H158.526V89.323H173.724V85.6565H162.552V80.6671ZM146.534 83.0396L141.962 69.1929H138.626L134.054 83.0396L129.611 69.2073H125.268L132.285 89.323H135.664L140.236 76.1091L144.808 89.323H148.217L155.219 69.2073H150.977L146.534 83.0396ZM118.007 69.3223L126.792 89.323H122.507L120.696 85.1389H111.478L111.35 85.4264L109.652 89.323H105.483L114.355 69.2073H117.92L118.007 69.3223ZM118.985 81.0266L116.08 74.283L113.19 81.0266L112.989 81.4867H119.172L118.985 81.0266Z" fill="#979798"/>
<path d="M22.8052 87.195C22.8627 87.1518 22.8771 87.0655 22.8484 86.9937C18.8835 78.4719 13.9373 70.4422 8.11018 63.0675C8.11018 63.0675 3.48026 67.4674 3.81097 71.8816C3.88844 72.8993 4.16579 73.8918 4.62716 74.8022C5.08853 75.7127 5.72488 76.5231 6.49978 77.1874C10.5402 81.1271 20.3177 86.1022 22.5896 87.2381C22.6614 87.2668 22.7477 87.2525 22.8052 87.195ZM21.2954 90.5596C21.2667 90.4733 21.1805 90.4158 21.0798 90.4158L4.80309 90.9765C6.57167 94.1255 9.54805 96.5699 12.6395 95.8222C14.7819 95.2901 19.6131 91.9112 21.2092 90.7608C21.3386 90.6602 21.2954 90.5739 21.2954 90.5596ZM21.5399 89.1073C21.6261 88.9779 21.4824 88.8629 21.4824 88.8629C14.3362 84.0316 0.475112 76.6122 0.475112 76.6122C0.0156826 78.0205 -0.11284 79.5156 0.0995328 80.9815C0.311906 82.4475 0.859453 83.8447 1.69962 85.0646C2.53979 86.2845 3.64995 87.2942 4.94381 88.0154C6.23768 88.7365 7.6804 89.1495 9.15983 89.2224C9.40428 89.2655 18.8367 89.2224 21.3674 89.208C21.4392 89.1936 21.4967 89.1648 21.5399 89.1073ZM22.6183 56.0364C21.9137 56.0939 20.0013 56.5396 20.0013 56.5396C15.6877 57.6468 14.6669 61.5721 14.6669 61.5721C13.876 64.0309 14.6812 66.7485 14.6812 66.7485C16.1191 73.1326 23.1935 83.6434 24.7175 85.8433C24.8182 85.9584 24.9045 85.9153 24.9045 85.9153C24.9908 85.8865 25.0627 85.8146 25.0627 85.714C27.4208 62.2479 22.6183 56.0364 22.6183 56.0364ZM28.0103 85.8865C28.0966 85.9153 28.1973 85.8865 28.2403 85.8003C29.8077 83.5428 36.8389 73.0894 38.2766 66.7341C38.2766 66.7341 39.0532 63.6571 38.3054 61.5578C38.3054 61.5578 37.2414 57.5749 32.9279 56.5252C32.9279 56.5252 31.6913 56.2089 30.3684 56.022C30.3684 56.022 25.5371 62.2336 27.8953 85.6996C27.8809 85.7859 27.9384 85.8577 28.0103 85.8865ZM31.8638 90.4302C31.8255 90.4379 31.7891 90.4533 31.757 90.4756C31.7248 90.4979 31.6976 90.5265 31.6769 90.5596C31.6625 90.6459 31.6769 90.7178 31.7344 90.7752C33.2873 91.8968 38.0179 95.2039 40.2897 95.8366C40.2897 95.8366 44.5026 97.2745 48.1548 90.9909L31.8638 90.4302ZM52.4972 76.5835C52.4972 76.5835 38.6649 84.0173 31.5043 88.8485C31.4324 88.906 31.3893 88.9923 31.4181 89.0786C31.4181 89.0786 31.49 89.208 31.5906 89.208C34.15 89.208 43.8412 89.2224 44.1 89.1792C45.0634 89.1073 46.0124 88.8917 46.9039 88.5322C46.9039 88.5322 50.3548 87.4394 52.1377 83.5141C52.1377 83.5141 53.7338 80.3219 52.4972 76.5835ZM30.1959 87.195C30.2534 87.2381 30.3396 87.2525 30.4116 87.2094C32.7409 86.0446 42.4465 81.1128 46.4582 77.1874C46.4582 77.1874 49.0032 75.1456 49.1326 71.8529C49.4201 67.2949 44.8334 63.0675 44.8334 63.0675C44.8334 63.0675 36.35 73.3483 30.124 86.9362C30.114 86.9819 30.1153 87.0293 30.1279 87.0745C30.1403 87.1196 30.1638 87.1609 30.1959 87.195Z" fill="#979798"/>
</g>
</g>
<defs>
<clipPath id="clip0_4077_448">
<rect width="182.4" height="151" fill="white" transform="translate(0.599609)"/>
</clipPath>
<clipPath id="clip1_4077_448">
<rect width="183" height="39.9563" fill="white" transform="translate(0 56.0217)"/>
</clipPath>
</defs>
</svg>
