<svg width="295" height="295" viewBox="0 0 295 295" fill="none" xmlns="http://www.w3.org/2000/svg">
<path fill-rule="evenodd" clip-rule="evenodd" d="M149.033 26.8242C191.99 26.3093 223.097 58.802 238.012 100.569C255.407 149.284 275.266 214.903 231.307 251.42C187.348 287.938 113.984 288.414 70.398 251.42C32.2582 219.049 19.7311 141.773 36.8775 93.8636C51.3535 53.4155 107.421 27.323 149.033 26.8242Z" fill="#F4EEFF"/>
<path d="M213.645 175.883H84.2987C83.2769 175.873 82.2649 176.082 81.3315 176.496C80.3981 176.91 79.5653 177.519 78.8897 178.282C78.1685 179.063 77.6267 179.99 77.3018 181C76.9769 182.011 76.8768 183.079 77.0083 184.132C77.5194 188.511 78.8982 192.746 81.0651 196.592C81.1966 196.832 81.393 197.03 81.632 197.164C81.871 197.299 82.1431 197.364 82.4173 197.352C83.2971 197.266 84.1833 197.266 85.0631 197.352C88.4731 197.82 93.8233 193.374 95.8223 190.917C97.2136 189.223 98.9611 187.853 100.942 186.903C102.923 185.953 105.088 185.446 107.287 185.418C109.799 185.412 112.271 186.049 114.464 187.268C116.657 188.488 118.498 190.248 119.81 192.38C120.776 193.714 122.013 194.831 123.441 195.658C124.87 196.484 126.457 197.002 128.1 197.177C130.173 196.945 132.18 196.31 134.006 195.306C135.832 194.302 137.441 192.95 138.742 191.327C140.239 189.262 142.252 187.623 144.582 186.57C146.912 185.517 149.477 185.087 152.025 185.324C154.573 185.56 157.015 186.454 159.108 187.917C161.202 189.381 162.876 191.363 163.964 193.667C164.585 194.668 165.448 195.499 166.476 196.081C167.503 196.664 168.661 196.98 169.844 197.001C171.438 196.921 172.993 196.478 174.389 195.708C175.785 194.937 176.985 193.859 177.898 192.555C179.195 190.332 181.056 188.486 183.295 187.203C185.534 185.92 188.073 185.244 190.657 185.243C193.162 185.27 195.621 185.921 197.809 187.137C199.997 188.353 201.843 190.095 203.18 192.204C203.65 192.789 207.295 197.294 210.646 196.943C211.331 196.883 212.02 196.883 212.704 196.943C212.967 196.938 213.225 196.865 213.451 196.732C213.678 196.598 213.866 196.409 213.998 196.182C216.661 191.298 218.056 185.828 218.054 180.271C218.054 179.107 217.59 177.991 216.763 177.168C215.936 176.345 214.814 175.883 213.645 175.883ZM213.645 83.2779C212.48 83.2931 211.367 83.7602 210.544 84.5797C209.72 85.3993 209.251 86.5065 209.235 87.6654V97.2009C209.238 97.4495 209.173 97.6942 209.049 97.91C208.925 98.1258 208.746 98.3051 208.53 98.4294C208.306 98.5577 208.053 98.6253 207.795 98.6253C207.537 98.6253 207.283 98.5577 207.06 98.4294C203.677 96.4805 199.902 95.3018 196.007 94.9779C195.037 94.9621 194.074 95.1404 193.176 95.5023C192.277 95.8642 191.46 96.4022 190.775 97.0844C190.089 97.7666 189.548 98.579 189.185 99.4734C188.821 100.368 188.642 101.326 188.658 102.29V115.453C188.658 115.841 188.812 116.213 189.088 116.487C189.364 116.761 189.738 116.915 190.127 116.915H200.416C201.586 116.915 202.707 117.378 203.534 118.2C204.361 119.023 204.826 120.139 204.826 121.303C204.826 122.466 204.361 123.582 203.534 124.405C202.707 125.228 201.586 125.69 200.416 125.69H190.127C189.738 125.69 189.364 125.844 189.088 126.119C188.812 126.393 188.658 126.765 188.658 127.153V162.721C188.673 163.88 189.142 164.987 189.966 165.806C190.79 166.626 191.902 167.093 193.067 167.108H213.645C214.81 167.093 215.922 166.626 216.746 165.806C217.57 164.987 218.039 163.88 218.054 162.721V87.6654C218.039 86.5065 217.57 85.3993 216.746 84.5797C215.922 83.7602 214.81 83.2931 213.645 83.2779Z" fill="black"/>
<path d="M213.645 175.883H84.2987C83.2769 175.873 82.2649 176.082 81.3315 176.496C80.3981 176.91 79.5653 177.519 78.8897 178.282C78.1685 179.063 77.6267 179.99 77.3018 181C76.9769 182.011 76.8768 183.079 77.0083 184.132C77.5194 188.511 78.8982 192.746 81.0651 196.592C81.1966 196.832 81.393 197.03 81.632 197.164C81.871 197.299 82.1431 197.364 82.4173 197.352C83.2971 197.266 84.1833 197.266 85.0631 197.352C88.4731 197.82 93.8233 193.374 95.8223 190.917C97.2136 189.223 98.9611 187.853 100.942 186.903C102.923 185.953 105.088 185.446 107.287 185.418C109.799 185.412 112.271 186.049 114.464 187.268C116.657 188.488 118.498 190.248 119.81 192.38C120.776 193.714 122.013 194.831 123.441 195.658C124.87 196.484 126.457 197.002 128.1 197.177C130.173 196.945 132.18 196.31 134.006 195.306C135.832 194.302 137.441 192.95 138.742 191.327C140.239 189.262 142.252 187.623 144.582 186.57C146.912 185.517 149.477 185.087 152.025 185.324C154.573 185.56 157.015 186.454 159.108 187.917C161.202 189.381 162.876 191.363 163.964 193.667C164.585 194.668 165.448 195.499 166.476 196.081C167.503 196.664 168.661 196.98 169.844 197.001C171.438 196.921 172.993 196.478 174.389 195.708C175.785 194.937 176.985 193.859 177.898 192.555C179.195 190.332 181.056 188.486 183.295 187.203C185.534 185.92 188.073 185.244 190.657 185.243C193.162 185.27 195.621 185.921 197.809 187.137C199.997 188.353 201.843 190.095 203.18 192.204C203.65 192.789 207.295 197.294 210.646 196.943C211.331 196.883 212.02 196.883 212.704 196.943C212.967 196.938 213.225 196.865 213.451 196.732C213.678 196.598 213.866 196.409 213.998 196.182C216.661 191.298 218.056 185.828 218.054 180.271C218.054 179.107 217.59 177.991 216.763 177.168C215.936 176.345 214.814 175.883 213.645 175.883ZM213.645 83.2779C212.48 83.2931 211.367 83.7602 210.544 84.5797C209.72 85.3993 209.251 86.5065 209.235 87.6654V97.2009C209.238 97.4495 209.173 97.6942 209.049 97.91C208.925 98.1258 208.746 98.3051 208.53 98.4294C208.306 98.5577 208.053 98.6253 207.795 98.6253C207.537 98.6253 207.283 98.5577 207.06 98.4294C203.677 96.4805 199.902 95.3018 196.007 94.9779C195.037 94.9621 194.074 95.1404 193.176 95.5023C192.277 95.8642 191.46 96.4022 190.775 97.0844C190.089 97.7666 189.548 98.579 189.185 99.4734C188.821 100.368 188.642 101.326 188.658 102.29V115.453C188.658 115.841 188.812 116.213 189.088 116.487C189.364 116.761 189.738 116.915 190.127 116.915H200.416C201.586 116.915 202.707 117.378 203.534 118.2C204.361 119.023 204.826 120.139 204.826 121.303C204.826 122.466 204.361 123.582 203.534 124.405C202.707 125.228 201.586 125.69 200.416 125.69H190.127C189.738 125.69 189.364 125.844 189.088 126.119C188.812 126.393 188.658 126.765 188.658 127.153V162.721C188.673 163.88 189.142 164.987 189.966 165.806C190.79 166.626 191.902 167.093 193.067 167.108H213.645C214.81 167.093 215.922 166.626 216.746 165.806C217.57 164.987 218.039 163.88 218.054 162.721V87.6654C218.039 86.5065 217.57 85.3993 216.746 84.5797C215.922 83.7602 214.81 83.2931 213.645 83.2779Z" fill="#580CE4"/>
<path d="M213.645 175.883H84.2987C83.2769 175.873 82.2649 176.082 81.3315 176.496C80.3981 176.91 79.5653 177.519 78.8897 178.282C78.1685 179.063 77.6267 179.99 77.3018 181C76.9769 182.011 76.8768 183.079 77.0083 184.132C77.5194 188.511 78.8982 192.746 81.0651 196.592C81.1966 196.832 81.393 197.03 81.632 197.164C81.871 197.299 82.1431 197.364 82.4173 197.352C83.2971 197.266 84.1833 197.266 85.0631 197.352C88.4731 197.82 93.8233 193.374 95.8223 190.917C97.2136 189.223 98.9611 187.853 100.942 186.903C102.923 185.953 105.088 185.446 107.287 185.418C109.799 185.412 112.271 186.049 114.464 187.268C116.657 188.488 118.498 190.248 119.81 192.38C120.776 193.714 122.013 194.831 123.441 195.658C124.87 196.484 126.457 197.002 128.1 197.177C130.173 196.945 132.18 196.31 134.006 195.306C135.832 194.302 137.441 192.95 138.742 191.327C140.239 189.262 142.252 187.623 144.582 186.57C146.912 185.517 149.477 185.087 152.025 185.324C154.573 185.56 157.015 186.454 159.108 187.917C161.202 189.381 162.876 191.363 163.964 193.667C164.585 194.668 165.448 195.499 166.476 196.081C167.503 196.664 168.661 196.98 169.844 197.001C171.438 196.921 172.993 196.478 174.389 195.708C175.785 194.937 176.985 193.859 177.898 192.555C179.195 190.332 181.056 188.486 183.295 187.203C185.534 185.92 188.073 185.244 190.657 185.243C193.162 185.27 195.621 185.921 197.809 187.137C199.997 188.353 201.843 190.095 203.18 192.204C203.65 192.789 207.295 197.294 210.646 196.943C211.331 196.883 212.02 196.883 212.704 196.943C212.967 196.938 213.225 196.865 213.451 196.732C213.678 196.598 213.866 196.409 213.998 196.182C216.661 191.298 218.056 185.828 218.054 180.271C218.054 179.107 217.59 177.991 216.763 177.168C215.936 176.345 214.814 175.883 213.645 175.883ZM213.645 83.2779C212.48 83.2931 211.367 83.7602 210.544 84.5797C209.72 85.3993 209.251 86.5065 209.235 87.6654V97.2009C209.238 97.4495 209.173 97.6942 209.049 97.91C208.925 98.1258 208.746 98.3051 208.53 98.4294C208.306 98.5577 208.053 98.6253 207.795 98.6253C207.537 98.6253 207.283 98.5577 207.06 98.4294C203.677 96.4805 199.902 95.3018 196.007 94.9779C195.037 94.9621 194.074 95.1404 193.176 95.5023C192.277 95.8642 191.46 96.4022 190.775 97.0844C190.089 97.7666 189.548 98.579 189.185 99.4734C188.821 100.368 188.642 101.326 188.658 102.29V115.453C188.658 115.841 188.812 116.213 189.088 116.487C189.364 116.761 189.738 116.915 190.127 116.915H200.416C201.586 116.915 202.707 117.378 203.534 118.2C204.361 119.023 204.826 120.139 204.826 121.303C204.826 122.466 204.361 123.582 203.534 124.405C202.707 125.228 201.586 125.69 200.416 125.69H190.127C189.738 125.69 189.364 125.844 189.088 126.119C188.812 126.393 188.658 126.765 188.658 127.153V162.721C188.673 163.88 189.142 164.987 189.966 165.806C190.79 166.626 191.902 167.093 193.067 167.108H213.645C214.81 167.093 215.922 166.626 216.746 165.806C217.57 164.987 218.039 163.88 218.054 162.721V87.6654C218.039 86.5065 217.57 85.3993 216.746 84.5797C215.922 83.7602 214.81 83.2931 213.645 83.2779Z" fill="url(#paint0_linear_4395_2281)"/>
<path d="M213.645 175.883H84.2987C83.2769 175.873 82.2649 176.082 81.3315 176.496C80.3981 176.91 79.5653 177.519 78.8897 178.282C78.1685 179.063 77.6267 179.99 77.3018 181C76.9769 182.011 76.8768 183.079 77.0083 184.132C77.5194 188.511 78.8982 192.746 81.0651 196.592C81.1966 196.832 81.393 197.03 81.632 197.164C81.871 197.299 82.1431 197.364 82.4173 197.352C83.2971 197.266 84.1833 197.266 85.0631 197.352C88.4731 197.82 93.8233 193.374 95.8223 190.917C97.2136 189.223 98.9611 187.853 100.942 186.903C102.923 185.953 105.088 185.446 107.287 185.418C109.799 185.412 112.271 186.049 114.464 187.268C116.657 188.488 118.498 190.248 119.81 192.38C120.776 193.714 122.013 194.831 123.441 195.658C124.87 196.484 126.457 197.002 128.1 197.177C130.173 196.945 132.18 196.31 134.006 195.306C135.832 194.302 137.441 192.95 138.742 191.327C140.239 189.262 142.252 187.623 144.582 186.57C146.912 185.517 149.477 185.087 152.025 185.324C154.573 185.56 157.015 186.454 159.108 187.917C161.202 189.381 162.876 191.363 163.964 193.667C164.585 194.668 165.448 195.499 166.476 196.081C167.503 196.664 168.661 196.98 169.844 197.001C171.438 196.921 172.993 196.478 174.389 195.708C175.785 194.937 176.985 193.859 177.898 192.555C179.195 190.332 181.056 188.486 183.295 187.203C185.534 185.92 188.073 185.244 190.657 185.243C193.162 185.27 195.621 185.921 197.809 187.137C199.997 188.353 201.843 190.095 203.18 192.204C203.65 192.789 207.295 197.294 210.646 196.943C211.331 196.883 212.02 196.883 212.704 196.943C212.967 196.938 213.225 196.865 213.451 196.732C213.678 196.598 213.866 196.409 213.998 196.182C216.661 191.298 218.056 185.828 218.054 180.271C218.054 179.107 217.59 177.991 216.763 177.168C215.936 176.345 214.814 175.883 213.645 175.883ZM213.645 83.2779C212.48 83.2931 211.367 83.7602 210.544 84.5797C209.72 85.3993 209.251 86.5065 209.235 87.6654V97.2009C209.238 97.4495 209.173 97.6942 209.049 97.91C208.925 98.1258 208.746 98.3051 208.53 98.4294C208.306 98.5577 208.053 98.6253 207.795 98.6253C207.537 98.6253 207.283 98.5577 207.06 98.4294C203.677 96.4805 199.902 95.3018 196.007 94.9779C195.037 94.9621 194.074 95.1404 193.176 95.5023C192.277 95.8642 191.46 96.4022 190.775 97.0844C190.089 97.7666 189.548 98.579 189.185 99.4734C188.821 100.368 188.642 101.326 188.658 102.29V115.453C188.658 115.841 188.812 116.213 189.088 116.487C189.364 116.761 189.738 116.915 190.127 116.915H200.416C201.586 116.915 202.707 117.378 203.534 118.2C204.361 119.023 204.826 120.139 204.826 121.303C204.826 122.466 204.361 123.582 203.534 124.405C202.707 125.228 201.586 125.69 200.416 125.69H190.127C189.738 125.69 189.364 125.844 189.088 126.119C188.812 126.393 188.658 126.765 188.658 127.153V162.721C188.673 163.88 189.142 164.987 189.966 165.806C190.79 166.626 191.902 167.093 193.067 167.108H213.645C214.81 167.093 215.922 166.626 216.746 165.806C217.57 164.987 218.039 163.88 218.054 162.721V87.6654C218.039 86.5065 217.57 85.3993 216.746 84.5797C215.922 83.7602 214.81 83.2931 213.645 83.2779Z" fill="url(#paint1_linear_4395_2281)"/>
<path d="M213.645 175.883H84.2987C83.2769 175.873 82.2649 176.082 81.3315 176.496C80.3981 176.91 79.5653 177.519 78.8897 178.282C78.1685 179.063 77.6267 179.99 77.3018 181C76.9769 182.011 76.8768 183.079 77.0083 184.132C77.5194 188.511 78.8982 192.746 81.0651 196.592C81.1966 196.832 81.393 197.03 81.632 197.164C81.871 197.299 82.1431 197.364 82.4173 197.352C83.2971 197.266 84.1833 197.266 85.0631 197.352C88.4731 197.82 93.8233 193.374 95.8223 190.917C97.2136 189.223 98.9611 187.853 100.942 186.903C102.923 185.953 105.088 185.446 107.287 185.418C109.799 185.412 112.271 186.049 114.464 187.268C116.657 188.488 118.498 190.248 119.81 192.38C120.776 193.714 122.013 194.831 123.441 195.658C124.87 196.484 126.457 197.002 128.1 197.177C130.173 196.945 132.18 196.31 134.006 195.306C135.832 194.302 137.441 192.95 138.742 191.327C140.239 189.262 142.252 187.623 144.582 186.57C146.912 185.517 149.477 185.087 152.025 185.324C154.573 185.56 157.015 186.454 159.108 187.917C161.202 189.381 162.876 191.363 163.964 193.667C164.585 194.668 165.448 195.499 166.476 196.081C167.503 196.664 168.661 196.98 169.844 197.001C171.438 196.921 172.993 196.478 174.389 195.708C175.785 194.937 176.985 193.859 177.898 192.555C179.195 190.332 181.056 188.486 183.295 187.203C185.534 185.92 188.073 185.244 190.657 185.243C193.162 185.27 195.621 185.921 197.809 187.137C199.997 188.353 201.843 190.095 203.18 192.204C203.65 192.789 207.295 197.294 210.646 196.943C211.331 196.883 212.02 196.883 212.704 196.943C212.967 196.938 213.225 196.865 213.451 196.732C213.678 196.598 213.866 196.409 213.998 196.182C216.661 191.298 218.056 185.828 218.054 180.271C218.054 179.107 217.59 177.991 216.763 177.168C215.936 176.345 214.814 175.883 213.645 175.883ZM213.645 83.2779C212.48 83.2931 211.367 83.7602 210.544 84.5797C209.72 85.3993 209.251 86.5065 209.235 87.6654V97.2009C209.238 97.4495 209.173 97.6942 209.049 97.91C208.925 98.1258 208.746 98.3051 208.53 98.4294C208.306 98.5577 208.053 98.6253 207.795 98.6253C207.537 98.6253 207.283 98.5577 207.06 98.4294C203.677 96.4805 199.902 95.3018 196.007 94.9779C195.037 94.9621 194.074 95.1404 193.176 95.5023C192.277 95.8642 191.46 96.4022 190.775 97.0844C190.089 97.7666 189.548 98.579 189.185 99.4734C188.821 100.368 188.642 101.326 188.658 102.29V115.453C188.658 115.841 188.812 116.213 189.088 116.487C189.364 116.761 189.738 116.915 190.127 116.915H200.416C201.586 116.915 202.707 117.378 203.534 118.2C204.361 119.023 204.826 120.139 204.826 121.303C204.826 122.466 204.361 123.582 203.534 124.405C202.707 125.228 201.586 125.69 200.416 125.69H190.127C189.738 125.69 189.364 125.844 189.088 126.119C188.812 126.393 188.658 126.765 188.658 127.153V162.721C188.673 163.88 189.142 164.987 189.966 165.806C190.79 166.626 191.902 167.093 193.067 167.108H213.645C214.81 167.093 215.922 166.626 216.746 165.806C217.57 164.987 218.039 163.88 218.054 162.721V87.6654C218.039 86.5065 217.57 85.3993 216.746 84.5797C215.922 83.7602 214.81 83.2931 213.645 83.2779Z" fill="url(#paint2_linear_4395_2281)"/>
<path d="M213.645 175.883H84.2987C83.2769 175.873 82.2649 176.082 81.3315 176.496C80.3981 176.91 79.5653 177.519 78.8897 178.282C78.1685 179.063 77.6267 179.99 77.3018 181C76.9769 182.011 76.8768 183.079 77.0083 184.132C77.5194 188.511 78.8982 192.746 81.0651 196.592C81.1966 196.832 81.393 197.03 81.632 197.164C81.871 197.299 82.1431 197.364 82.4173 197.352C83.2971 197.266 84.1833 197.266 85.0631 197.352C88.4731 197.82 93.8233 193.374 95.8223 190.917C97.2136 189.223 98.9611 187.853 100.942 186.903C102.923 185.953 105.088 185.446 107.287 185.418C109.799 185.412 112.271 186.049 114.464 187.268C116.657 188.488 118.498 190.248 119.81 192.38C120.776 193.714 122.013 194.831 123.441 195.658C124.87 196.484 126.457 197.002 128.1 197.177C130.173 196.945 132.18 196.31 134.006 195.306C135.832 194.302 137.441 192.95 138.742 191.327C140.239 189.262 142.252 187.623 144.582 186.57C146.912 185.517 149.477 185.087 152.025 185.324C154.573 185.56 157.015 186.454 159.108 187.917C161.202 189.381 162.876 191.363 163.964 193.667C164.585 194.668 165.448 195.499 166.476 196.081C167.503 196.664 168.661 196.98 169.844 197.001C171.438 196.921 172.993 196.478 174.389 195.708C175.785 194.937 176.985 193.859 177.898 192.555C179.195 190.332 181.056 188.486 183.295 187.203C185.534 185.92 188.073 185.244 190.657 185.243C193.162 185.27 195.621 185.921 197.809 187.137C199.997 188.353 201.843 190.095 203.18 192.204C203.65 192.789 207.295 197.294 210.646 196.943C211.331 196.883 212.02 196.883 212.704 196.943C212.967 196.938 213.225 196.865 213.451 196.732C213.678 196.598 213.866 196.409 213.998 196.182C216.661 191.298 218.056 185.828 218.054 180.271C218.054 179.107 217.59 177.991 216.763 177.168C215.936 176.345 214.814 175.883 213.645 175.883ZM213.645 83.2779C212.48 83.2931 211.367 83.7602 210.544 84.5797C209.72 85.3993 209.251 86.5065 209.235 87.6654V97.2009C209.238 97.4495 209.173 97.6942 209.049 97.91C208.925 98.1258 208.746 98.3051 208.53 98.4294C208.306 98.5577 208.053 98.6253 207.795 98.6253C207.537 98.6253 207.283 98.5577 207.06 98.4294C203.677 96.4805 199.902 95.3018 196.007 94.9779C195.037 94.9621 194.074 95.1404 193.176 95.5023C192.277 95.8642 191.46 96.4022 190.775 97.0844C190.089 97.7666 189.548 98.579 189.185 99.4734C188.821 100.368 188.642 101.326 188.658 102.29V115.453C188.658 115.841 188.812 116.213 189.088 116.487C189.364 116.761 189.738 116.915 190.127 116.915H200.416C201.586 116.915 202.707 117.378 203.534 118.2C204.361 119.023 204.826 120.139 204.826 121.303C204.826 122.466 204.361 123.582 203.534 124.405C202.707 125.228 201.586 125.69 200.416 125.69H190.127C189.738 125.69 189.364 125.844 189.088 126.119C188.812 126.393 188.658 126.765 188.658 127.153V162.721C188.673 163.88 189.142 164.987 189.966 165.806C190.79 166.626 191.902 167.093 193.067 167.108H213.645C214.81 167.093 215.922 166.626 216.746 165.806C217.57 164.987 218.039 163.88 218.054 162.721V87.6654C218.039 86.5065 217.57 85.3993 216.746 84.5797C215.922 83.7602 214.81 83.2931 213.645 83.2779Z" fill="url(#paint3_linear_4395_2281)"/>
<path d="M211.366 206.072C201.79 207.308 195.268 197.24 195.209 197.123C194.689 196.244 193.95 195.516 193.064 195.011C192.178 194.505 191.176 194.239 190.157 194.239C189.137 194.239 188.135 194.505 187.25 195.011C186.364 195.516 185.624 196.244 185.104 197.123C183.47 199.861 181.18 202.146 178.44 203.771C175.7 205.396 172.599 206.308 169.418 206.425C166.584 206.35 163.821 205.526 161.407 204.038C158.993 202.549 157.014 200.448 155.67 197.947C155.226 197.031 154.554 196.245 153.717 195.667C152.88 195.089 151.909 194.739 150.896 194.65C149.884 194.561 148.866 194.737 147.942 195.16C147.018 195.583 146.219 196.239 145.623 197.064C143.483 199.752 140.813 201.97 137.781 203.58C134.749 205.191 131.419 206.159 127.998 206.425C124.827 206.228 121.748 205.282 119.012 203.666C116.276 202.049 113.96 199.807 112.252 197.123C111.755 196.314 111.069 195.638 110.255 195.152C109.44 194.666 108.52 194.385 107.573 194.333C106.626 194.281 105.681 194.459 104.818 194.853C103.955 195.246 103.2 195.843 102.617 196.593C102.617 196.593 93.452 207.603 83.6405 206.425C82.0823 206.222 80.5075 206.648 79.2625 207.608C78.0174 208.569 77.2042 209.986 77.0016 211.548C76.799 213.109 77.2238 214.687 78.1823 215.935C79.1409 217.183 80.5548 217.998 82.113 218.201C83.1893 218.26 84.268 218.26 85.3443 218.201C92.9244 217.841 100.147 214.867 105.79 209.781C106.048 209.549 106.383 209.421 106.73 209.421C107.077 209.421 107.411 209.549 107.67 209.781C113.101 215.013 120.29 218.017 127.822 218.201C135.475 218.082 142.856 215.339 148.737 210.429C149.005 210.193 149.35 210.063 149.706 210.063C150.063 210.063 150.408 210.193 150.676 210.429C153.132 212.902 156.053 214.863 159.27 216.197C162.487 217.531 165.936 218.212 169.418 218.201C176.752 218.192 183.825 215.466 189.275 210.547C189.537 210.298 189.884 210.16 190.245 210.16C190.605 210.16 190.952 210.298 191.214 210.547C194.051 213.319 197.469 215.424 201.219 216.707C204.969 217.99 208.957 218.42 212.894 217.965C213.665 217.865 214.409 217.613 215.084 217.224C215.758 216.835 216.35 216.317 216.824 215.699C217.299 215.082 217.647 214.376 217.85 213.623C218.053 212.871 218.105 212.085 218.005 211.312C217.905 210.539 217.653 209.793 217.265 209.117C216.877 208.441 216.361 207.849 215.744 207.373C215.128 206.897 214.424 206.548 213.672 206.345C212.921 206.142 212.138 206.089 211.366 206.19V206.072ZM144.683 138.716H174.059C174.059 138.716 179.934 138.716 179.934 144.604V164.21C179.934 164.21 179.934 170.098 174.059 170.098H144.683C144.683 170.098 138.808 170.098 138.808 164.21V144.604C138.808 144.604 138.808 138.716 144.683 138.716ZM102.441 140.247C103.905 140.227 105.309 139.66 106.377 138.658C107.511 137.594 108.179 136.123 108.234 134.567C108.289 133.012 107.727 131.497 106.671 130.356C105.746 129.388 105.221 128.105 105.202 126.764C105.187 125.889 105.386 125.023 105.782 124.243C106.179 123.463 106.759 122.792 107.474 122.288C108.189 121.785 109.016 121.465 109.882 121.356C110.749 121.247 111.629 121.353 112.446 121.663C113.263 121.974 113.991 122.481 114.567 123.139C115.143 123.797 115.549 124.586 115.75 125.438C115.952 126.29 115.942 127.178 115.721 128.025C115.5 128.872 115.076 129.652 114.485 130.297C113.936 130.87 113.508 131.549 113.227 132.292C112.946 133.036 112.819 133.828 112.852 134.622C112.885 135.416 113.079 136.196 113.421 136.913C113.762 137.63 114.245 138.27 114.841 138.796C115.436 139.321 116.132 139.719 116.885 139.968C117.638 140.217 118.434 140.31 119.224 140.242C120.014 140.174 120.783 139.946 121.483 139.573C122.183 139.199 122.8 138.688 123.298 138.069C125.196 135.932 126.526 133.349 127.164 130.56C127.802 127.772 127.728 124.867 126.95 122.114C126.171 119.361 124.712 116.85 122.708 114.812C120.703 112.774 118.219 111.276 115.484 110.455V99.5631C115.494 99.2859 115.582 99.0172 115.738 98.7881C115.894 98.5589 116.111 98.3785 116.365 98.2678C116.604 98.1222 116.878 98.0452 117.158 98.0452C117.438 98.0452 117.712 98.1222 117.951 98.2678L153.378 128.825C154.193 129.491 155.206 129.864 156.257 129.885H176.879C177.817 129.885 178.73 129.582 179.482 129.019C180.234 128.457 180.784 127.666 181.05 126.764C181.329 125.866 181.315 124.901 181.008 124.011C180.702 123.122 180.119 122.353 179.347 121.819L117.423 78.7794C116.23 77.921 114.84 77.3792 113.382 77.2046C111.924 77.03 110.446 77.2282 109.085 77.7807C107.724 78.3333 106.525 79.2222 105.599 80.3646C104.674 81.507 104.052 82.8656 103.792 84.3139V111.162C101.307 112.255 99.1193 113.929 97.4126 116.043C95.7059 118.158 94.53 120.652 93.9833 123.316C93.4367 125.98 93.5353 128.737 94.2708 131.355C95.0064 133.973 96.3575 136.376 98.2109 138.363C98.7519 138.948 99.4058 139.416 100.133 139.74C100.86 140.064 101.645 140.237 102.441 140.247Z" fill="#580CE4"/>
<path d="M211.366 206.072C201.79 207.308 195.268 197.24 195.209 197.123C194.689 196.244 193.95 195.516 193.064 195.011C192.178 194.505 191.176 194.239 190.157 194.239C189.137 194.239 188.135 194.505 187.25 195.011C186.364 195.516 185.624 196.244 185.104 197.123C183.47 199.861 181.18 202.146 178.44 203.771C175.7 205.396 172.599 206.308 169.418 206.425C166.584 206.35 163.821 205.526 161.407 204.038C158.993 202.549 157.014 200.448 155.67 197.947C155.226 197.031 154.554 196.245 153.717 195.667C152.88 195.089 151.909 194.739 150.896 194.65C149.884 194.561 148.866 194.737 147.942 195.16C147.018 195.583 146.219 196.239 145.623 197.064C143.483 199.752 140.813 201.97 137.781 203.58C134.749 205.191 131.419 206.159 127.998 206.425C124.827 206.228 121.748 205.282 119.012 203.666C116.276 202.049 113.96 199.807 112.252 197.123C111.755 196.314 111.069 195.638 110.255 195.152C109.44 194.666 108.52 194.385 107.573 194.333C106.626 194.281 105.681 194.459 104.818 194.853C103.955 195.246 103.2 195.843 102.617 196.593C102.617 196.593 93.452 207.603 83.6405 206.425C82.0823 206.222 80.5075 206.648 79.2625 207.608C78.0174 208.569 77.2042 209.986 77.0016 211.548C76.799 213.109 77.2238 214.687 78.1823 215.935C79.1409 217.183 80.5548 217.998 82.113 218.201C83.1893 218.26 84.268 218.26 85.3443 218.201C92.9244 217.841 100.147 214.867 105.79 209.781C106.048 209.549 106.383 209.421 106.73 209.421C107.077 209.421 107.411 209.549 107.67 209.781C113.101 215.013 120.29 218.017 127.822 218.201C135.475 218.082 142.856 215.339 148.737 210.429C149.005 210.193 149.35 210.063 149.706 210.063C150.063 210.063 150.408 210.193 150.676 210.429C153.132 212.902 156.053 214.863 159.27 216.197C162.487 217.531 165.936 218.212 169.418 218.201C176.752 218.192 183.825 215.466 189.275 210.547C189.537 210.298 189.884 210.16 190.245 210.16C190.605 210.16 190.952 210.298 191.214 210.547C194.051 213.319 197.469 215.424 201.219 216.707C204.969 217.99 208.957 218.42 212.894 217.965C213.665 217.865 214.409 217.613 215.084 217.224C215.758 216.835 216.35 216.317 216.824 215.699C217.299 215.082 217.647 214.376 217.85 213.623C218.053 212.871 218.105 212.085 218.005 211.312C217.905 210.539 217.653 209.793 217.265 209.117C216.877 208.441 216.361 207.849 215.744 207.373C215.128 206.897 214.424 206.548 213.672 206.345C212.921 206.142 212.138 206.089 211.366 206.19V206.072ZM144.683 138.716H174.059C174.059 138.716 179.934 138.716 179.934 144.604V164.21C179.934 164.21 179.934 170.098 174.059 170.098H144.683C144.683 170.098 138.808 170.098 138.808 164.21V144.604C138.808 144.604 138.808 138.716 144.683 138.716ZM102.441 140.247C103.905 140.227 105.309 139.66 106.377 138.658C107.511 137.594 108.179 136.123 108.234 134.567C108.289 133.012 107.727 131.497 106.671 130.356C105.746 129.388 105.221 128.105 105.202 126.764C105.187 125.889 105.386 125.023 105.782 124.243C106.179 123.463 106.759 122.792 107.474 122.288C108.189 121.785 109.016 121.465 109.882 121.356C110.749 121.247 111.629 121.353 112.446 121.663C113.263 121.974 113.991 122.481 114.567 123.139C115.143 123.797 115.549 124.586 115.75 125.438C115.952 126.29 115.942 127.178 115.721 128.025C115.5 128.872 115.076 129.652 114.485 130.297C113.936 130.87 113.508 131.549 113.227 132.292C112.946 133.036 112.819 133.828 112.852 134.622C112.885 135.416 113.079 136.196 113.421 136.913C113.762 137.63 114.245 138.27 114.841 138.796C115.436 139.321 116.132 139.719 116.885 139.968C117.638 140.217 118.434 140.31 119.224 140.242C120.014 140.174 120.783 139.946 121.483 139.573C122.183 139.199 122.8 138.688 123.298 138.069C125.196 135.932 126.526 133.349 127.164 130.56C127.802 127.772 127.728 124.867 126.95 122.114C126.171 119.361 124.712 116.85 122.708 114.812C120.703 112.774 118.219 111.276 115.484 110.455V99.5631C115.494 99.2859 115.582 99.0172 115.738 98.7881C115.894 98.5589 116.111 98.3785 116.365 98.2678C116.604 98.1222 116.878 98.0452 117.158 98.0452C117.438 98.0452 117.712 98.1222 117.951 98.2678L153.378 128.825C154.193 129.491 155.206 129.864 156.257 129.885H176.879C177.817 129.885 178.73 129.582 179.482 129.019C180.234 128.457 180.784 127.666 181.05 126.764C181.329 125.866 181.315 124.901 181.008 124.011C180.702 123.122 180.119 122.353 179.347 121.819L117.423 78.7794C116.23 77.921 114.84 77.3792 113.382 77.2046C111.924 77.03 110.446 77.2282 109.085 77.7807C107.724 78.3333 106.525 79.2222 105.599 80.3646C104.674 81.507 104.052 82.8656 103.792 84.3139V111.162C101.307 112.255 99.1193 113.929 97.4126 116.043C95.7059 118.158 94.53 120.652 93.9833 123.316C93.4367 125.98 93.5353 128.737 94.2708 131.355C95.0064 133.973 96.3575 136.376 98.2109 138.363C98.7519 138.948 99.4058 139.416 100.133 139.74C100.86 140.064 101.645 140.237 102.441 140.247Z" fill="url(#paint4_linear_4395_2281)"/>
<path d="M211.366 206.072C201.79 207.308 195.268 197.24 195.209 197.123C194.689 196.244 193.95 195.516 193.064 195.011C192.178 194.505 191.176 194.239 190.157 194.239C189.137 194.239 188.135 194.505 187.25 195.011C186.364 195.516 185.624 196.244 185.104 197.123C183.47 199.861 181.18 202.146 178.44 203.771C175.7 205.396 172.599 206.308 169.418 206.425C166.584 206.35 163.821 205.526 161.407 204.038C158.993 202.549 157.014 200.448 155.67 197.947C155.226 197.031 154.554 196.245 153.717 195.667C152.88 195.089 151.909 194.739 150.896 194.65C149.884 194.561 148.866 194.737 147.942 195.16C147.018 195.583 146.219 196.239 145.623 197.064C143.483 199.752 140.813 201.97 137.781 203.58C134.749 205.191 131.419 206.159 127.998 206.425C124.827 206.228 121.748 205.282 119.012 203.666C116.276 202.049 113.96 199.807 112.252 197.123C111.755 196.314 111.069 195.638 110.255 195.152C109.44 194.666 108.52 194.385 107.573 194.333C106.626 194.281 105.681 194.459 104.818 194.853C103.955 195.246 103.2 195.843 102.617 196.593C102.617 196.593 93.452 207.603 83.6405 206.425C82.0823 206.222 80.5075 206.648 79.2625 207.608C78.0174 208.569 77.2042 209.986 77.0016 211.548C76.799 213.109 77.2238 214.687 78.1823 215.935C79.1409 217.183 80.5548 217.998 82.113 218.201C83.1893 218.26 84.268 218.26 85.3443 218.201C92.9244 217.841 100.147 214.867 105.79 209.781C106.048 209.549 106.383 209.421 106.73 209.421C107.077 209.421 107.411 209.549 107.67 209.781C113.101 215.013 120.29 218.017 127.822 218.201C135.475 218.082 142.856 215.339 148.737 210.429C149.005 210.193 149.35 210.063 149.706 210.063C150.063 210.063 150.408 210.193 150.676 210.429C153.132 212.902 156.053 214.863 159.27 216.197C162.487 217.531 165.936 218.212 169.418 218.201C176.752 218.192 183.825 215.466 189.275 210.547C189.537 210.298 189.884 210.16 190.245 210.16C190.605 210.16 190.952 210.298 191.214 210.547C194.051 213.319 197.469 215.424 201.219 216.707C204.969 217.99 208.957 218.42 212.894 217.965C213.665 217.865 214.409 217.613 215.084 217.224C215.758 216.835 216.35 216.317 216.824 215.699C217.299 215.082 217.647 214.376 217.85 213.623C218.053 212.871 218.105 212.085 218.005 211.312C217.905 210.539 217.653 209.793 217.265 209.117C216.877 208.441 216.361 207.849 215.744 207.373C215.128 206.897 214.424 206.548 213.672 206.345C212.921 206.142 212.138 206.089 211.366 206.19V206.072ZM144.683 138.716H174.059C174.059 138.716 179.934 138.716 179.934 144.604V164.21C179.934 164.21 179.934 170.098 174.059 170.098H144.683C144.683 170.098 138.808 170.098 138.808 164.21V144.604C138.808 144.604 138.808 138.716 144.683 138.716ZM102.441 140.247C103.905 140.227 105.309 139.66 106.377 138.658C107.511 137.594 108.179 136.123 108.234 134.567C108.289 133.012 107.727 131.497 106.671 130.356C105.746 129.388 105.221 128.105 105.202 126.764C105.187 125.889 105.386 125.023 105.782 124.243C106.179 123.463 106.759 122.792 107.474 122.288C108.189 121.785 109.016 121.465 109.882 121.356C110.749 121.247 111.629 121.353 112.446 121.663C113.263 121.974 113.991 122.481 114.567 123.139C115.143 123.797 115.549 124.586 115.75 125.438C115.952 126.29 115.942 127.178 115.721 128.025C115.5 128.872 115.076 129.652 114.485 130.297C113.936 130.87 113.508 131.549 113.227 132.292C112.946 133.036 112.819 133.828 112.852 134.622C112.885 135.416 113.079 136.196 113.421 136.913C113.762 137.63 114.245 138.27 114.841 138.796C115.436 139.321 116.132 139.719 116.885 139.968C117.638 140.217 118.434 140.31 119.224 140.242C120.014 140.174 120.783 139.946 121.483 139.573C122.183 139.199 122.8 138.688 123.298 138.069C125.196 135.932 126.526 133.349 127.164 130.56C127.802 127.772 127.728 124.867 126.95 122.114C126.171 119.361 124.712 116.85 122.708 114.812C120.703 112.774 118.219 111.276 115.484 110.455V99.5631C115.494 99.2859 115.582 99.0172 115.738 98.7881C115.894 98.5589 116.111 98.3785 116.365 98.2678C116.604 98.1222 116.878 98.0452 117.158 98.0452C117.438 98.0452 117.712 98.1222 117.951 98.2678L153.378 128.825C154.193 129.491 155.206 129.864 156.257 129.885H176.879C177.817 129.885 178.73 129.582 179.482 129.019C180.234 128.457 180.784 127.666 181.05 126.764C181.329 125.866 181.315 124.901 181.008 124.011C180.702 123.122 180.119 122.353 179.347 121.819L117.423 78.7794C116.23 77.921 114.84 77.3792 113.382 77.2046C111.924 77.03 110.446 77.2282 109.085 77.7807C107.724 78.3333 106.525 79.2222 105.599 80.3646C104.674 81.507 104.052 82.8656 103.792 84.3139V111.162C101.307 112.255 99.1193 113.929 97.4126 116.043C95.7059 118.158 94.53 120.652 93.9833 123.316C93.4367 125.98 93.5353 128.737 94.2708 131.355C95.0064 133.973 96.3575 136.376 98.2109 138.363C98.7519 138.948 99.4058 139.416 100.133 139.74C100.86 140.064 101.645 140.237 102.441 140.247Z" fill="url(#paint5_linear_4395_2281)"/>
<path d="M211.366 206.072C201.79 207.308 195.268 197.24 195.209 197.123C194.689 196.244 193.95 195.516 193.064 195.011C192.178 194.505 191.176 194.239 190.157 194.239C189.137 194.239 188.135 194.505 187.25 195.011C186.364 195.516 185.624 196.244 185.104 197.123C183.47 199.861 181.18 202.146 178.44 203.771C175.7 205.396 172.599 206.308 169.418 206.425C166.584 206.35 163.821 205.526 161.407 204.038C158.993 202.549 157.014 200.448 155.67 197.947C155.226 197.031 154.554 196.245 153.717 195.667C152.88 195.089 151.909 194.739 150.896 194.65C149.884 194.561 148.866 194.737 147.942 195.16C147.018 195.583 146.219 196.239 145.623 197.064C143.483 199.752 140.813 201.97 137.781 203.58C134.749 205.191 131.419 206.159 127.998 206.425C124.827 206.228 121.748 205.282 119.012 203.666C116.276 202.049 113.96 199.807 112.252 197.123C111.755 196.314 111.069 195.638 110.255 195.152C109.44 194.666 108.52 194.385 107.573 194.333C106.626 194.281 105.681 194.459 104.818 194.853C103.955 195.246 103.2 195.843 102.617 196.593C102.617 196.593 93.452 207.603 83.6405 206.425C82.0823 206.222 80.5075 206.648 79.2625 207.608C78.0174 208.569 77.2042 209.986 77.0016 211.548C76.799 213.109 77.2238 214.687 78.1823 215.935C79.1409 217.183 80.5548 217.998 82.113 218.201C83.1893 218.26 84.268 218.26 85.3443 218.201C92.9244 217.841 100.147 214.867 105.79 209.781C106.048 209.549 106.383 209.421 106.73 209.421C107.077 209.421 107.411 209.549 107.67 209.781C113.101 215.013 120.29 218.017 127.822 218.201C135.475 218.082 142.856 215.339 148.737 210.429C149.005 210.193 149.35 210.063 149.706 210.063C150.063 210.063 150.408 210.193 150.676 210.429C153.132 212.902 156.053 214.863 159.27 216.197C162.487 217.531 165.936 218.212 169.418 218.201C176.752 218.192 183.825 215.466 189.275 210.547C189.537 210.298 189.884 210.16 190.245 210.16C190.605 210.16 190.952 210.298 191.214 210.547C194.051 213.319 197.469 215.424 201.219 216.707C204.969 217.99 208.957 218.42 212.894 217.965C213.665 217.865 214.409 217.613 215.084 217.224C215.758 216.835 216.35 216.317 216.824 215.699C217.299 215.082 217.647 214.376 217.85 213.623C218.053 212.871 218.105 212.085 218.005 211.312C217.905 210.539 217.653 209.793 217.265 209.117C216.877 208.441 216.361 207.849 215.744 207.373C215.128 206.897 214.424 206.548 213.672 206.345C212.921 206.142 212.138 206.089 211.366 206.19V206.072ZM144.683 138.716H174.059C174.059 138.716 179.934 138.716 179.934 144.604V164.21C179.934 164.21 179.934 170.098 174.059 170.098H144.683C144.683 170.098 138.808 170.098 138.808 164.21V144.604C138.808 144.604 138.808 138.716 144.683 138.716ZM102.441 140.247C103.905 140.227 105.309 139.66 106.377 138.658C107.511 137.594 108.179 136.123 108.234 134.567C108.289 133.012 107.727 131.497 106.671 130.356C105.746 129.388 105.221 128.105 105.202 126.764C105.187 125.889 105.386 125.023 105.782 124.243C106.179 123.463 106.759 122.792 107.474 122.288C108.189 121.785 109.016 121.465 109.882 121.356C110.749 121.247 111.629 121.353 112.446 121.663C113.263 121.974 113.991 122.481 114.567 123.139C115.143 123.797 115.549 124.586 115.75 125.438C115.952 126.29 115.942 127.178 115.721 128.025C115.5 128.872 115.076 129.652 114.485 130.297C113.936 130.87 113.508 131.549 113.227 132.292C112.946 133.036 112.819 133.828 112.852 134.622C112.885 135.416 113.079 136.196 113.421 136.913C113.762 137.63 114.245 138.27 114.841 138.796C115.436 139.321 116.132 139.719 116.885 139.968C117.638 140.217 118.434 140.31 119.224 140.242C120.014 140.174 120.783 139.946 121.483 139.573C122.183 139.199 122.8 138.688 123.298 138.069C125.196 135.932 126.526 133.349 127.164 130.56C127.802 127.772 127.728 124.867 126.95 122.114C126.171 119.361 124.712 116.85 122.708 114.812C120.703 112.774 118.219 111.276 115.484 110.455V99.5631C115.494 99.2859 115.582 99.0172 115.738 98.7881C115.894 98.5589 116.111 98.3785 116.365 98.2678C116.604 98.1222 116.878 98.0452 117.158 98.0452C117.438 98.0452 117.712 98.1222 117.951 98.2678L153.378 128.825C154.193 129.491 155.206 129.864 156.257 129.885H176.879C177.817 129.885 178.73 129.582 179.482 129.019C180.234 128.457 180.784 127.666 181.05 126.764C181.329 125.866 181.315 124.901 181.008 124.011C180.702 123.122 180.119 122.353 179.347 121.819L117.423 78.7794C116.23 77.921 114.84 77.3792 113.382 77.2046C111.924 77.03 110.446 77.2282 109.085 77.7807C107.724 78.3333 106.525 79.2222 105.599 80.3646C104.674 81.507 104.052 82.8656 103.792 84.3139V111.162C101.307 112.255 99.1193 113.929 97.4126 116.043C95.7059 118.158 94.53 120.652 93.9833 123.316C93.4367 125.98 93.5353 128.737 94.2708 131.355C95.0064 133.973 96.3575 136.376 98.2109 138.363C98.7519 138.948 99.4058 139.416 100.133 139.74C100.86 140.064 101.645 140.237 102.441 140.247Z" fill="url(#paint6_linear_4395_2281)"/>
<path d="M211.366 206.072C201.79 207.308 195.268 197.24 195.209 197.123C194.689 196.244 193.95 195.516 193.064 195.011C192.178 194.505 191.176 194.239 190.157 194.239C189.137 194.239 188.135 194.505 187.25 195.011C186.364 195.516 185.624 196.244 185.104 197.123C183.47 199.861 181.18 202.146 178.44 203.771C175.7 205.396 172.599 206.308 169.418 206.425C166.584 206.35 163.821 205.526 161.407 204.038C158.993 202.549 157.014 200.448 155.67 197.947C155.226 197.031 154.554 196.245 153.717 195.667C152.88 195.089 151.909 194.739 150.896 194.65C149.884 194.561 148.866 194.737 147.942 195.16C147.018 195.583 146.219 196.239 145.623 197.064C143.483 199.752 140.813 201.97 137.781 203.58C134.749 205.191 131.419 206.159 127.998 206.425C124.827 206.228 121.748 205.282 119.012 203.666C116.276 202.049 113.96 199.807 112.252 197.123C111.755 196.314 111.069 195.638 110.255 195.152C109.44 194.666 108.52 194.385 107.573 194.333C106.626 194.281 105.681 194.459 104.818 194.853C103.955 195.246 103.2 195.843 102.617 196.593C102.617 196.593 93.452 207.603 83.6405 206.425C82.0823 206.222 80.5075 206.648 79.2625 207.608C78.0174 208.569 77.2042 209.986 77.0016 211.548C76.799 213.109 77.2238 214.687 78.1823 215.935C79.1409 217.183 80.5548 217.998 82.113 218.201C83.1893 218.26 84.268 218.26 85.3443 218.201C92.9244 217.841 100.147 214.867 105.79 209.781C106.048 209.549 106.383 209.421 106.73 209.421C107.077 209.421 107.411 209.549 107.67 209.781C113.101 215.013 120.29 218.017 127.822 218.201C135.475 218.082 142.856 215.339 148.737 210.429C149.005 210.193 149.35 210.063 149.706 210.063C150.063 210.063 150.408 210.193 150.676 210.429C153.132 212.902 156.053 214.863 159.27 216.197C162.487 217.531 165.936 218.212 169.418 218.201C176.752 218.192 183.825 215.466 189.275 210.547C189.537 210.298 189.884 210.16 190.245 210.16C190.605 210.16 190.952 210.298 191.214 210.547C194.051 213.319 197.469 215.424 201.219 216.707C204.969 217.99 208.957 218.42 212.894 217.965C213.665 217.865 214.409 217.613 215.084 217.224C215.758 216.835 216.35 216.317 216.824 215.699C217.299 215.082 217.647 214.376 217.85 213.623C218.053 212.871 218.105 212.085 218.005 211.312C217.905 210.539 217.653 209.793 217.265 209.117C216.877 208.441 216.361 207.849 215.744 207.373C215.128 206.897 214.424 206.548 213.672 206.345C212.921 206.142 212.138 206.089 211.366 206.19V206.072ZM144.683 138.716H174.059C174.059 138.716 179.934 138.716 179.934 144.604V164.21C179.934 164.21 179.934 170.098 174.059 170.098H144.683C144.683 170.098 138.808 170.098 138.808 164.21V144.604C138.808 144.604 138.808 138.716 144.683 138.716ZM102.441 140.247C103.905 140.227 105.309 139.66 106.377 138.658C107.511 137.594 108.179 136.123 108.234 134.567C108.289 133.012 107.727 131.497 106.671 130.356C105.746 129.388 105.221 128.105 105.202 126.764C105.187 125.889 105.386 125.023 105.782 124.243C106.179 123.463 106.759 122.792 107.474 122.288C108.189 121.785 109.016 121.465 109.882 121.356C110.749 121.247 111.629 121.353 112.446 121.663C113.263 121.974 113.991 122.481 114.567 123.139C115.143 123.797 115.549 124.586 115.75 125.438C115.952 126.29 115.942 127.178 115.721 128.025C115.5 128.872 115.076 129.652 114.485 130.297C113.936 130.87 113.508 131.549 113.227 132.292C112.946 133.036 112.819 133.828 112.852 134.622C112.885 135.416 113.079 136.196 113.421 136.913C113.762 137.63 114.245 138.27 114.841 138.796C115.436 139.321 116.132 139.719 116.885 139.968C117.638 140.217 118.434 140.31 119.224 140.242C120.014 140.174 120.783 139.946 121.483 139.573C122.183 139.199 122.8 138.688 123.298 138.069C125.196 135.932 126.526 133.349 127.164 130.56C127.802 127.772 127.728 124.867 126.95 122.114C126.171 119.361 124.712 116.85 122.708 114.812C120.703 112.774 118.219 111.276 115.484 110.455V99.5631C115.494 99.2859 115.582 99.0172 115.738 98.7881C115.894 98.5589 116.111 98.3785 116.365 98.2678C116.604 98.1222 116.878 98.0452 117.158 98.0452C117.438 98.0452 117.712 98.1222 117.951 98.2678L153.378 128.825C154.193 129.491 155.206 129.864 156.257 129.885H176.879C177.817 129.885 178.73 129.582 179.482 129.019C180.234 128.457 180.784 127.666 181.05 126.764C181.329 125.866 181.315 124.901 181.008 124.011C180.702 123.122 180.119 122.353 179.347 121.819L117.423 78.7794C116.23 77.921 114.84 77.3792 113.382 77.2046C111.924 77.03 110.446 77.2282 109.085 77.7807C107.724 78.3333 106.525 79.2222 105.599 80.3646C104.674 81.507 104.052 82.8656 103.792 84.3139V111.162C101.307 112.255 99.1193 113.929 97.4126 116.043C95.7059 118.158 94.53 120.652 93.9833 123.316C93.4367 125.98 93.5353 128.737 94.2708 131.355C95.0064 133.973 96.3575 136.376 98.2109 138.363C98.7519 138.948 99.4058 139.416 100.133 139.74C100.86 140.064 101.645 140.237 102.441 140.247Z" fill="url(#paint7_linear_4395_2281)"/>
<defs>
<linearGradient id="paint0_linear_4395_2281" x1="147.503" y1="187.75" x2="147.503" y2="194.909" gradientUnits="userSpaceOnUse">
<stop stop-color="#580CE4" stop-opacity="0"/>
<stop offset="1" stop-color="#3F03AE"/>
</linearGradient>
<linearGradient id="paint1_linear_4395_2281" x1="88.849" y1="168.064" x2="68.3741" y2="178.826" gradientUnits="userSpaceOnUse">
<stop stop-color="#3F03AE" stop-opacity="0"/>
<stop offset="1" stop-color="#3F03AE"/>
</linearGradient>
<linearGradient id="paint2_linear_4395_2281" x1="196.751" y1="177.907" x2="217.821" y2="198.867" gradientUnits="userSpaceOnUse">
<stop stop-color="#3F03AE" stop-opacity="0"/>
<stop offset="1" stop-color="#3F03AE"/>
</linearGradient>
<linearGradient id="paint3_linear_4395_2281" x1="148.057" y1="101.846" x2="148.057" y2="78.1326" gradientUnits="userSpaceOnUse">
<stop stop-color="#3F03AE" stop-opacity="0"/>
<stop offset="1" stop-color="#3F03AE"/>
</linearGradient>
<linearGradient id="paint4_linear_4395_2281" x1="147.503" y1="206.329" x2="147.503" y2="215.181" gradientUnits="userSpaceOnUse">
<stop stop-color="#580CE4" stop-opacity="0"/>
<stop offset="1" stop-color="#3F03AE"/>
</linearGradient>
<linearGradient id="paint5_linear_4395_2281" x1="88.849" y1="181.986" x2="66.7163" y2="191.393" gradientUnits="userSpaceOnUse">
<stop stop-color="#3F03AE" stop-opacity="0"/>
<stop offset="1" stop-color="#3F03AE"/>
</linearGradient>
<linearGradient id="paint6_linear_4395_2281" x1="196.751" y1="194.157" x2="222.201" y2="214.632" gradientUnits="userSpaceOnUse">
<stop stop-color="#3F03AE" stop-opacity="0"/>
<stop offset="1" stop-color="#3F03AE"/>
</linearGradient>
<linearGradient id="paint7_linear_4395_2281" x1="148.057" y1="100.103" x2="148.057" y2="70.7805" gradientUnits="userSpaceOnUse">
<stop stop-color="#3F03AE" stop-opacity="0"/>
<stop offset="1" stop-color="#3F03AE"/>
</linearGradient>
</defs>
</svg>
