<svg width="296" height="295" viewBox="0 0 296 295" fill="none" xmlns="http://www.w3.org/2000/svg">
<path fill-rule="evenodd" clip-rule="evenodd" d="M151.423 60.341C184.946 60.341 224.492 58.1478 239.406 99.9146C256.801 148.63 269.576 203.835 222.644 223.948C178.686 260.465 118.737 274.351 75.1513 237.357C37.0115 204.986 47.1163 145.125 64.2627 97.2159C81.4091 49.3064 109.811 60.8398 151.423 60.341Z" fill="#F4EEFF"/>
<path d="M132.422 86.0416C132.443 88.419 133.016 90.7591 134.097 92.8769C135.177 94.9946 136.736 96.832 138.649 98.2439L97.2236 125.042H85.4672C81.3243 125.042 77.3512 126.688 74.4218 129.617C71.4924 132.546 69.8467 136.52 69.8467 140.662V203.418C69.8467 207.561 71.4924 211.534 74.4218 214.463C77.3512 217.393 81.3243 219.039 85.4672 219.039H210.619C214.775 219.036 218.76 217.384 221.698 214.445C224.636 211.505 226.286 207.519 226.286 203.363V140.662C226.286 136.52 224.64 132.546 221.711 129.617C218.782 126.688 214.808 125.042 210.666 125.042H199.003L157.531 98.2048C159.43 96.792 160.976 94.9586 162.048 92.8484C163.12 90.7382 163.689 88.4084 163.71 86.0416C163.672 83.315 162.932 80.6441 161.562 78.2863C160.192 75.9286 158.238 73.9633 155.888 72.58V62.5757H148.066V78.2197C149.613 78.2197 151.126 78.6784 152.412 79.5379C153.698 80.3974 154.701 81.619 155.293 83.0483C155.885 84.4776 156.04 86.0503 155.738 87.5676C155.436 89.0849 154.691 90.4787 153.597 91.5726C152.503 92.6665 151.11 93.4115 149.592 93.7133C148.075 94.0151 146.502 93.8602 145.073 93.2682C143.644 92.6762 142.422 91.6736 141.563 90.3873C140.703 89.101 140.244 87.5887 140.244 86.0416M148.027 101.482L148.066 101.49L148.199 101.474L184.611 125.042H111.632L148.027 101.482ZM108.957 187.727C108.957 189.802 108.132 191.791 106.666 193.258C105.199 194.725 103.209 195.549 101.135 195.549C99.06 195.549 97.0705 194.725 95.6036 193.258C94.1367 191.791 93.3126 189.802 93.3126 187.727V156.439C93.3126 154.365 94.1367 152.375 95.6036 150.908C97.0705 149.441 99.06 148.617 101.135 148.617C103.209 148.617 105.199 149.441 106.666 150.908C108.132 152.375 108.957 154.365 108.957 156.439V187.727ZM140.244 187.727C140.244 189.802 139.42 191.791 137.953 193.258C136.486 194.725 134.497 195.549 132.422 195.549C130.348 195.549 128.358 194.725 126.891 193.258C125.425 191.791 124.6 189.802 124.6 187.727V156.439C124.6 154.365 125.425 152.375 126.891 150.908C128.358 149.441 130.348 148.617 132.422 148.617C134.497 148.617 136.486 149.441 137.953 150.908C139.42 152.375 140.244 154.365 140.244 156.439V187.727ZM171.532 187.727C171.532 189.802 170.708 191.791 169.241 193.258C167.774 194.725 165.785 195.549 163.71 195.549C161.636 195.549 159.646 194.725 158.179 193.258C156.712 191.791 155.888 189.802 155.888 187.727V156.439C155.888 154.365 156.712 152.375 158.179 150.908C159.646 149.441 161.636 148.617 163.71 148.617C165.785 148.617 167.774 149.441 169.241 150.908C170.708 152.375 171.532 154.365 171.532 156.439V187.727ZM202.82 187.727C202.82 189.802 201.996 191.791 200.529 193.258C199.062 194.725 197.073 195.549 194.998 195.549C192.924 195.549 190.934 194.725 189.467 193.258C188 191.791 187.176 189.802 187.176 187.727V156.439C187.176 154.365 188 152.375 189.467 150.908C190.934 149.441 192.924 148.617 194.998 148.617C197.073 148.617 199.062 149.441 200.529 150.908C201.996 152.375 202.82 154.365 202.82 156.439V187.727Z" fill="#580CE4"/>
<path d="M132.422 86.0416C132.443 88.419 133.016 90.7591 134.097 92.8769C135.177 94.9946 136.736 96.832 138.649 98.2439L97.2236 125.042H85.4672C81.3243 125.042 77.3512 126.688 74.4218 129.617C71.4924 132.546 69.8467 136.52 69.8467 140.662V203.418C69.8467 207.561 71.4924 211.534 74.4218 214.463C77.3512 217.393 81.3243 219.039 85.4672 219.039H210.619C214.775 219.036 218.76 217.384 221.698 214.445C224.636 211.505 226.286 207.519 226.286 203.363V140.662C226.286 136.52 224.64 132.546 221.711 129.617C218.782 126.688 214.808 125.042 210.666 125.042H199.003L157.531 98.2048C159.43 96.792 160.976 94.9586 162.048 92.8484C163.12 90.7382 163.689 88.4084 163.71 86.0416C163.672 83.315 162.932 80.6441 161.562 78.2863C160.192 75.9286 158.238 73.9633 155.888 72.58V62.5757H148.066V78.2197C149.613 78.2197 151.126 78.6784 152.412 79.5379C153.698 80.3974 154.701 81.619 155.293 83.0483C155.885 84.4776 156.04 86.0503 155.738 87.5676C155.436 89.0849 154.691 90.4787 153.597 91.5726C152.503 92.6665 151.11 93.4115 149.592 93.7133C148.075 94.0151 146.502 93.8602 145.073 93.2682C143.644 92.6762 142.422 91.6736 141.563 90.3873C140.703 89.101 140.244 87.5887 140.244 86.0416M148.027 101.482L148.066 101.49L148.199 101.474L184.611 125.042H111.632L148.027 101.482ZM108.957 187.727C108.957 189.802 108.132 191.791 106.666 193.258C105.199 194.725 103.209 195.549 101.135 195.549C99.06 195.549 97.0705 194.725 95.6036 193.258C94.1367 191.791 93.3126 189.802 93.3126 187.727V156.439C93.3126 154.365 94.1367 152.375 95.6036 150.908C97.0705 149.441 99.06 148.617 101.135 148.617C103.209 148.617 105.199 149.441 106.666 150.908C108.132 152.375 108.957 154.365 108.957 156.439V187.727ZM140.244 187.727C140.244 189.802 139.42 191.791 137.953 193.258C136.486 194.725 134.497 195.549 132.422 195.549C130.348 195.549 128.358 194.725 126.891 193.258C125.425 191.791 124.6 189.802 124.6 187.727V156.439C124.6 154.365 125.425 152.375 126.891 150.908C128.358 149.441 130.348 148.617 132.422 148.617C134.497 148.617 136.486 149.441 137.953 150.908C139.42 152.375 140.244 154.365 140.244 156.439V187.727ZM171.532 187.727C171.532 189.802 170.708 191.791 169.241 193.258C167.774 194.725 165.785 195.549 163.71 195.549C161.636 195.549 159.646 194.725 158.179 193.258C156.712 191.791 155.888 189.802 155.888 187.727V156.439C155.888 154.365 156.712 152.375 158.179 150.908C159.646 149.441 161.636 148.617 163.71 148.617C165.785 148.617 167.774 149.441 169.241 150.908C170.708 152.375 171.532 154.365 171.532 156.439V187.727ZM202.82 187.727C202.82 189.802 201.996 191.791 200.529 193.258C199.062 194.725 197.073 195.549 194.998 195.549C192.924 195.549 190.934 194.725 189.467 193.258C188 191.791 187.176 189.802 187.176 187.727V156.439C187.176 154.365 188 152.375 189.467 150.908C190.934 149.441 192.924 148.617 194.998 148.617C197.073 148.617 199.062 149.441 200.529 150.908C201.996 152.375 202.82 154.365 202.82 156.439V187.727Z" fill="url(#paint0_linear_4395_2290)"/>
<path d="M132.422 86.0416C132.443 88.419 133.016 90.7591 134.097 92.8769C135.177 94.9946 136.736 96.832 138.649 98.2439L97.2236 125.042H85.4672C81.3243 125.042 77.3512 126.688 74.4218 129.617C71.4924 132.546 69.8467 136.52 69.8467 140.662V203.418C69.8467 207.561 71.4924 211.534 74.4218 214.463C77.3512 217.393 81.3243 219.039 85.4672 219.039H210.619C214.775 219.036 218.76 217.384 221.698 214.445C224.636 211.505 226.286 207.519 226.286 203.363V140.662C226.286 136.52 224.64 132.546 221.711 129.617C218.782 126.688 214.808 125.042 210.666 125.042H199.003L157.531 98.2048C159.43 96.792 160.976 94.9586 162.048 92.8484C163.12 90.7382 163.689 88.4084 163.71 86.0416C163.672 83.315 162.932 80.6441 161.562 78.2863C160.192 75.9286 158.238 73.9633 155.888 72.58V62.5757H148.066V78.2197C149.613 78.2197 151.126 78.6784 152.412 79.5379C153.698 80.3974 154.701 81.619 155.293 83.0483C155.885 84.4776 156.04 86.0503 155.738 87.5676C155.436 89.0849 154.691 90.4787 153.597 91.5726C152.503 92.6665 151.11 93.4115 149.592 93.7133C148.075 94.0151 146.502 93.8602 145.073 93.2682C143.644 92.6762 142.422 91.6736 141.563 90.3873C140.703 89.101 140.244 87.5887 140.244 86.0416M148.027 101.482L148.066 101.49L148.199 101.474L184.611 125.042H111.632L148.027 101.482ZM108.957 187.727C108.957 189.802 108.132 191.791 106.666 193.258C105.199 194.725 103.209 195.549 101.135 195.549C99.06 195.549 97.0705 194.725 95.6036 193.258C94.1367 191.791 93.3126 189.802 93.3126 187.727V156.439C93.3126 154.365 94.1367 152.375 95.6036 150.908C97.0705 149.441 99.06 148.617 101.135 148.617C103.209 148.617 105.199 149.441 106.666 150.908C108.132 152.375 108.957 154.365 108.957 156.439V187.727ZM140.244 187.727C140.244 189.802 139.42 191.791 137.953 193.258C136.486 194.725 134.497 195.549 132.422 195.549C130.348 195.549 128.358 194.725 126.891 193.258C125.425 191.791 124.6 189.802 124.6 187.727V156.439C124.6 154.365 125.425 152.375 126.891 150.908C128.358 149.441 130.348 148.617 132.422 148.617C134.497 148.617 136.486 149.441 137.953 150.908C139.42 152.375 140.244 154.365 140.244 156.439V187.727ZM171.532 187.727C171.532 189.802 170.708 191.791 169.241 193.258C167.774 194.725 165.785 195.549 163.71 195.549C161.636 195.549 159.646 194.725 158.179 193.258C156.712 191.791 155.888 189.802 155.888 187.727V156.439C155.888 154.365 156.712 152.375 158.179 150.908C159.646 149.441 161.636 148.617 163.71 148.617C165.785 148.617 167.774 149.441 169.241 150.908C170.708 152.375 171.532 154.365 171.532 156.439V187.727ZM202.82 187.727C202.82 189.802 201.996 191.791 200.529 193.258C199.062 194.725 197.073 195.549 194.998 195.549C192.924 195.549 190.934 194.725 189.467 193.258C188 191.791 187.176 189.802 187.176 187.727V156.439C187.176 154.365 188 152.375 189.467 150.908C190.934 149.441 192.924 148.617 194.998 148.617C197.073 148.617 199.062 149.441 200.529 150.908C201.996 152.375 202.82 154.365 202.82 156.439V187.727Z" fill="url(#paint1_linear_4395_2290)"/>
<path d="M132.422 86.0416C132.443 88.419 133.016 90.7591 134.097 92.8769C135.177 94.9946 136.736 96.832 138.649 98.2439L97.2236 125.042H85.4672C81.3243 125.042 77.3512 126.688 74.4218 129.617C71.4924 132.546 69.8467 136.52 69.8467 140.662V203.418C69.8467 207.561 71.4924 211.534 74.4218 214.463C77.3512 217.393 81.3243 219.039 85.4672 219.039H210.619C214.775 219.036 218.76 217.384 221.698 214.445C224.636 211.505 226.286 207.519 226.286 203.363V140.662C226.286 136.52 224.64 132.546 221.711 129.617C218.782 126.688 214.808 125.042 210.666 125.042H199.003L157.531 98.2048C159.43 96.792 160.976 94.9586 162.048 92.8484C163.12 90.7382 163.689 88.4084 163.71 86.0416C163.672 83.315 162.932 80.6441 161.562 78.2863C160.192 75.9286 158.238 73.9633 155.888 72.58V62.5757H148.066V78.2197C149.613 78.2197 151.126 78.6784 152.412 79.5379C153.698 80.3974 154.701 81.619 155.293 83.0483C155.885 84.4776 156.04 86.0503 155.738 87.5676C155.436 89.0849 154.691 90.4787 153.597 91.5726C152.503 92.6665 151.11 93.4115 149.592 93.7133C148.075 94.0151 146.502 93.8602 145.073 93.2682C143.644 92.6762 142.422 91.6736 141.563 90.3873C140.703 89.101 140.244 87.5887 140.244 86.0416M148.027 101.482L148.066 101.49L148.199 101.474L184.611 125.042H111.632L148.027 101.482ZM108.957 187.727C108.957 189.802 108.132 191.791 106.666 193.258C105.199 194.725 103.209 195.549 101.135 195.549C99.06 195.549 97.0705 194.725 95.6036 193.258C94.1367 191.791 93.3126 189.802 93.3126 187.727V156.439C93.3126 154.365 94.1367 152.375 95.6036 150.908C97.0705 149.441 99.06 148.617 101.135 148.617C103.209 148.617 105.199 149.441 106.666 150.908C108.132 152.375 108.957 154.365 108.957 156.439V187.727ZM140.244 187.727C140.244 189.802 139.42 191.791 137.953 193.258C136.486 194.725 134.497 195.549 132.422 195.549C130.348 195.549 128.358 194.725 126.891 193.258C125.425 191.791 124.6 189.802 124.6 187.727V156.439C124.6 154.365 125.425 152.375 126.891 150.908C128.358 149.441 130.348 148.617 132.422 148.617C134.497 148.617 136.486 149.441 137.953 150.908C139.42 152.375 140.244 154.365 140.244 156.439V187.727ZM171.532 187.727C171.532 189.802 170.708 191.791 169.241 193.258C167.774 194.725 165.785 195.549 163.71 195.549C161.636 195.549 159.646 194.725 158.179 193.258C156.712 191.791 155.888 189.802 155.888 187.727V156.439C155.888 154.365 156.712 152.375 158.179 150.908C159.646 149.441 161.636 148.617 163.71 148.617C165.785 148.617 167.774 149.441 169.241 150.908C170.708 152.375 171.532 154.365 171.532 156.439V187.727ZM202.82 187.727C202.82 189.802 201.996 191.791 200.529 193.258C199.062 194.725 197.073 195.549 194.998 195.549C192.924 195.549 190.934 194.725 189.467 193.258C188 191.791 187.176 189.802 187.176 187.727V156.439C187.176 154.365 188 152.375 189.467 150.908C190.934 149.441 192.924 148.617 194.998 148.617C197.073 148.617 199.062 149.441 200.529 150.908C201.996 152.375 202.82 154.365 202.82 156.439V187.727Z" fill="url(#paint2_linear_4395_2290)"/>
<path d="M132.422 86.0416C132.443 88.419 133.016 90.7591 134.097 92.8769C135.177 94.9946 136.736 96.832 138.649 98.2439L97.2236 125.042H85.4672C81.3243 125.042 77.3512 126.688 74.4218 129.617C71.4924 132.546 69.8467 136.52 69.8467 140.662V203.418C69.8467 207.561 71.4924 211.534 74.4218 214.463C77.3512 217.393 81.3243 219.039 85.4672 219.039H210.619C214.775 219.036 218.76 217.384 221.698 214.445C224.636 211.505 226.286 207.519 226.286 203.363V140.662C226.286 136.52 224.64 132.546 221.711 129.617C218.782 126.688 214.808 125.042 210.666 125.042H199.003L157.531 98.2048C159.43 96.792 160.976 94.9586 162.048 92.8484C163.12 90.7382 163.689 88.4084 163.71 86.0416C163.672 83.315 162.932 80.6441 161.562 78.2863C160.192 75.9286 158.238 73.9633 155.888 72.58V62.5757H148.066V78.2197C149.613 78.2197 151.126 78.6784 152.412 79.5379C153.698 80.3974 154.701 81.619 155.293 83.0483C155.885 84.4776 156.04 86.0503 155.738 87.5676C155.436 89.0849 154.691 90.4787 153.597 91.5726C152.503 92.6665 151.11 93.4115 149.592 93.7133C148.075 94.0151 146.502 93.8602 145.073 93.2682C143.644 92.6762 142.422 91.6736 141.563 90.3873C140.703 89.101 140.244 87.5887 140.244 86.0416M148.027 101.482L148.066 101.49L148.199 101.474L184.611 125.042H111.632L148.027 101.482ZM108.957 187.727C108.957 189.802 108.132 191.791 106.666 193.258C105.199 194.725 103.209 195.549 101.135 195.549C99.06 195.549 97.0705 194.725 95.6036 193.258C94.1367 191.791 93.3126 189.802 93.3126 187.727V156.439C93.3126 154.365 94.1367 152.375 95.6036 150.908C97.0705 149.441 99.06 148.617 101.135 148.617C103.209 148.617 105.199 149.441 106.666 150.908C108.132 152.375 108.957 154.365 108.957 156.439V187.727ZM140.244 187.727C140.244 189.802 139.42 191.791 137.953 193.258C136.486 194.725 134.497 195.549 132.422 195.549C130.348 195.549 128.358 194.725 126.891 193.258C125.425 191.791 124.6 189.802 124.6 187.727V156.439C124.6 154.365 125.425 152.375 126.891 150.908C128.358 149.441 130.348 148.617 132.422 148.617C134.497 148.617 136.486 149.441 137.953 150.908C139.42 152.375 140.244 154.365 140.244 156.439V187.727ZM171.532 187.727C171.532 189.802 170.708 191.791 169.241 193.258C167.774 194.725 165.785 195.549 163.71 195.549C161.636 195.549 159.646 194.725 158.179 193.258C156.712 191.791 155.888 189.802 155.888 187.727V156.439C155.888 154.365 156.712 152.375 158.179 150.908C159.646 149.441 161.636 148.617 163.71 148.617C165.785 148.617 167.774 149.441 169.241 150.908C170.708 152.375 171.532 154.365 171.532 156.439V187.727ZM202.82 187.727C202.82 189.802 201.996 191.791 200.529 193.258C199.062 194.725 197.073 195.549 194.998 195.549C192.924 195.549 190.934 194.725 189.467 193.258C188 191.791 187.176 189.802 187.176 187.727V156.439C187.176 154.365 188 152.375 189.467 150.908C190.934 149.441 192.924 148.617 194.998 148.617C197.073 148.617 199.062 149.441 200.529 150.908C201.996 152.375 202.82 154.365 202.82 156.439V187.727Z" fill="url(#paint3_linear_4395_2290)"/>
<defs>
<linearGradient id="paint0_linear_4395_2290" x1="148.066" y1="205.825" x2="148.066" y2="215.641" gradientUnits="userSpaceOnUse">
<stop stop-color="#580CE4" stop-opacity="0"/>
<stop offset="1" stop-color="#3F03AE"/>
</linearGradient>
<linearGradient id="paint1_linear_4395_2290" x1="83.0367" y1="178.832" x2="58.4972" y2="189.261" gradientUnits="userSpaceOnUse">
<stop stop-color="#3F03AE" stop-opacity="0"/>
<stop offset="1" stop-color="#3F03AE"/>
</linearGradient>
<linearGradient id="paint2_linear_4395_2290" x1="202.667" y1="192.328" x2="230.887" y2="215.027" gradientUnits="userSpaceOnUse">
<stop stop-color="#3F03AE" stop-opacity="0"/>
<stop offset="1" stop-color="#3F03AE"/>
</linearGradient>
<linearGradient id="paint3_linear_4395_2290" x1="148.68" y1="88.0355" x2="148.68" y2="55.5206" gradientUnits="userSpaceOnUse">
<stop stop-color="#3F03AE" stop-opacity="0"/>
<stop offset="1" stop-color="#3F03AE"/>
</linearGradient>
</defs>
</svg>
