<svg width="296" height="295" viewBox="0 0 296 295" fill="none" xmlns="http://www.w3.org/2000/svg">
<path fill-rule="evenodd" clip-rule="evenodd" d="M147.634 43.5781C190.591 43.0632 223.231 68.8583 238.145 110.625C255.541 159.34 255.289 194.788 211.33 231.305C171.103 271.534 110.765 268.299 67.1786 231.305C29.0388 198.934 29.9213 158.535 47.0677 110.625C60.4786 60.341 106.022 44.0769 147.634 43.5781Z" fill="#F4EEFF"/>
<path d="M67.4616 157.864C65.2454 157.864 63.389 157.116 61.8924 155.619C60.3958 154.123 59.6449 152.264 59.6397 150.042C59.6345 147.821 60.3854 145.964 61.8924 144.473C63.3994 142.982 65.2558 142.231 67.4616 142.22H94.8385C97.0548 142.22 98.9138 142.971 100.416 144.473C101.917 145.975 102.666 147.831 102.661 150.042C102.655 152.253 101.904 154.112 100.408 155.619C98.9112 157.126 97.0548 157.875 94.8385 157.864H67.4616ZM108.527 210.076C102.009 210.076 96.4681 207.794 91.9053 203.232C87.3425 198.669 85.0611 193.128 85.0611 186.61H75.2836C72.6763 186.61 70.5904 185.632 69.026 183.677C67.4616 181.721 67.0054 179.505 67.6572 177.028L69.4171 169.597H93.8608C99.3362 169.597 103.964 167.707 107.745 163.926C111.525 160.146 113.416 155.518 113.416 150.042C113.416 148.347 113.22 146.783 112.829 145.349C112.438 143.915 111.917 142.481 111.265 141.047H118.696C124.171 141.047 128.799 139.157 132.58 135.376C136.36 131.595 138.25 126.967 138.25 121.492C138.25 116.017 136.36 111.389 132.58 107.608C128.799 103.827 124.171 101.937 118.696 101.937H88.9721L90.1454 97.2439C90.9276 93.5936 92.7214 90.6291 95.5269 88.3503C98.3324 86.0715 101.623 84.9295 105.398 84.9243H184.791C187.399 84.9243 189.484 85.902 191.049 87.8575C192.613 89.813 193.069 92.0292 192.418 94.5062L187.333 116.212H202.391C204.868 116.212 207.214 116.768 209.43 117.878C211.647 118.989 213.472 120.519 214.906 122.47L229.572 141.829C231.006 143.654 231.919 145.644 232.31 147.797C232.701 149.951 232.701 152.133 232.31 154.344L227.03 180.352C226.639 182.177 225.726 183.677 224.292 184.85C222.858 186.023 221.229 186.61 219.403 186.61H210.213C210.213 193.128 207.931 198.669 203.368 203.232C198.806 207.794 193.265 210.076 186.747 210.076C180.228 210.076 174.688 207.794 170.125 203.232C165.562 198.669 163.281 193.128 163.281 186.61H131.993C131.993 193.128 129.711 198.669 125.149 203.232C120.586 207.794 115.045 210.076 108.527 210.076ZM83.1056 129.314C80.8894 129.314 79.0329 128.563 77.5363 127.061C76.0397 125.559 75.2888 123.703 75.2836 121.492C75.2784 119.281 76.0293 117.425 77.5363 115.923C79.0434 114.421 80.8998 113.67 83.1056 113.67H118.304C120.521 113.67 122.38 114.421 123.882 115.923C125.383 117.425 126.132 119.281 126.126 121.492C126.121 123.703 125.37 125.562 123.874 127.069C122.377 128.576 120.521 129.324 118.304 129.314H83.1056ZM108.527 194.432C110.743 194.432 112.602 193.681 114.104 192.179C115.606 190.677 116.354 188.821 116.349 186.61C116.344 184.399 115.593 182.542 114.096 181.041C112.6 179.539 110.743 178.788 108.527 178.788C106.311 178.788 104.454 179.539 102.958 181.041C101.461 182.542 100.71 184.399 100.705 186.61C100.7 188.821 101.451 190.68 102.958 192.187C104.465 193.694 106.321 194.442 108.527 194.432ZM186.747 194.432C188.963 194.432 190.822 193.681 192.324 192.179C193.826 190.677 194.574 188.821 194.569 186.61C194.563 184.399 193.813 182.542 192.316 181.041C190.819 179.539 188.963 178.788 186.747 178.788C184.53 178.788 182.674 179.539 181.177 181.041C179.681 182.542 178.93 184.399 178.925 186.61C178.92 188.821 179.67 190.68 181.177 192.187C182.684 193.694 184.541 194.442 186.747 194.432ZM178.338 155.322H216.079L216.861 151.215L202.391 131.856H183.813L178.338 155.322Z" fill="#580CE4"/>
<path d="M67.4616 157.864C65.2454 157.864 63.389 157.116 61.8924 155.619C60.3958 154.123 59.6449 152.264 59.6397 150.042C59.6345 147.821 60.3854 145.964 61.8924 144.473C63.3994 142.982 65.2558 142.231 67.4616 142.22H94.8385C97.0548 142.22 98.9138 142.971 100.416 144.473C101.917 145.975 102.666 147.831 102.661 150.042C102.655 152.253 101.904 154.112 100.408 155.619C98.9112 157.126 97.0548 157.875 94.8385 157.864H67.4616ZM108.527 210.076C102.009 210.076 96.4681 207.794 91.9053 203.232C87.3425 198.669 85.0611 193.128 85.0611 186.61H75.2836C72.6763 186.61 70.5904 185.632 69.026 183.677C67.4616 181.721 67.0054 179.505 67.6572 177.028L69.4171 169.597H93.8608C99.3362 169.597 103.964 167.707 107.745 163.926C111.525 160.146 113.416 155.518 113.416 150.042C113.416 148.347 113.22 146.783 112.829 145.349C112.438 143.915 111.917 142.481 111.265 141.047H118.696C124.171 141.047 128.799 139.157 132.58 135.376C136.36 131.595 138.25 126.967 138.25 121.492C138.25 116.017 136.36 111.389 132.58 107.608C128.799 103.827 124.171 101.937 118.696 101.937H88.9721L90.1454 97.2439C90.9276 93.5936 92.7214 90.6291 95.5269 88.3503C98.3324 86.0715 101.623 84.9295 105.398 84.9243H184.791C187.399 84.9243 189.484 85.902 191.049 87.8575C192.613 89.813 193.069 92.0292 192.418 94.5062L187.333 116.212H202.391C204.868 116.212 207.214 116.768 209.43 117.878C211.647 118.989 213.472 120.519 214.906 122.47L229.572 141.829C231.006 143.654 231.919 145.644 232.31 147.797C232.701 149.951 232.701 152.133 232.31 154.344L227.03 180.352C226.639 182.177 225.726 183.677 224.292 184.85C222.858 186.023 221.229 186.61 219.403 186.61H210.213C210.213 193.128 207.931 198.669 203.368 203.232C198.806 207.794 193.265 210.076 186.747 210.076C180.228 210.076 174.688 207.794 170.125 203.232C165.562 198.669 163.281 193.128 163.281 186.61H131.993C131.993 193.128 129.711 198.669 125.149 203.232C120.586 207.794 115.045 210.076 108.527 210.076ZM83.1056 129.314C80.8894 129.314 79.0329 128.563 77.5363 127.061C76.0397 125.559 75.2888 123.703 75.2836 121.492C75.2784 119.281 76.0293 117.425 77.5363 115.923C79.0434 114.421 80.8998 113.67 83.1056 113.67H118.304C120.521 113.67 122.38 114.421 123.882 115.923C125.383 117.425 126.132 119.281 126.126 121.492C126.121 123.703 125.37 125.562 123.874 127.069C122.377 128.576 120.521 129.324 118.304 129.314H83.1056ZM108.527 194.432C110.743 194.432 112.602 193.681 114.104 192.179C115.606 190.677 116.354 188.821 116.349 186.61C116.344 184.399 115.593 182.542 114.096 181.041C112.6 179.539 110.743 178.788 108.527 178.788C106.311 178.788 104.454 179.539 102.958 181.041C101.461 182.542 100.71 184.399 100.705 186.61C100.7 188.821 101.451 190.68 102.958 192.187C104.465 193.694 106.321 194.442 108.527 194.432ZM186.747 194.432C188.963 194.432 190.822 193.681 192.324 192.179C193.826 190.677 194.574 188.821 194.569 186.61C194.563 184.399 193.813 182.542 192.316 181.041C190.819 179.539 188.963 178.788 186.747 178.788C184.53 178.788 182.674 179.539 181.177 181.041C179.681 182.542 178.93 184.399 178.925 186.61C178.92 188.821 179.67 190.68 181.177 192.187C182.684 193.694 184.541 194.442 186.747 194.432ZM178.338 155.322H216.079L216.861 151.215L202.391 131.856H183.813L178.338 155.322Z" fill="url(#paint0_linear_4395_2286)"/>
<path d="M67.4616 157.864C65.2454 157.864 63.389 157.116 61.8924 155.619C60.3958 154.123 59.6449 152.264 59.6397 150.042C59.6345 147.821 60.3854 145.964 61.8924 144.473C63.3994 142.982 65.2558 142.231 67.4616 142.22H94.8385C97.0548 142.22 98.9138 142.971 100.416 144.473C101.917 145.975 102.666 147.831 102.661 150.042C102.655 152.253 101.904 154.112 100.408 155.619C98.9112 157.126 97.0548 157.875 94.8385 157.864H67.4616ZM108.527 210.076C102.009 210.076 96.4681 207.794 91.9053 203.232C87.3425 198.669 85.0611 193.128 85.0611 186.61H75.2836C72.6763 186.61 70.5904 185.632 69.026 183.677C67.4616 181.721 67.0054 179.505 67.6572 177.028L69.4171 169.597H93.8608C99.3362 169.597 103.964 167.707 107.745 163.926C111.525 160.146 113.416 155.518 113.416 150.042C113.416 148.347 113.22 146.783 112.829 145.349C112.438 143.915 111.917 142.481 111.265 141.047H118.696C124.171 141.047 128.799 139.157 132.58 135.376C136.36 131.595 138.25 126.967 138.25 121.492C138.25 116.017 136.36 111.389 132.58 107.608C128.799 103.827 124.171 101.937 118.696 101.937H88.9721L90.1454 97.2439C90.9276 93.5936 92.7214 90.6291 95.5269 88.3503C98.3324 86.0715 101.623 84.9295 105.398 84.9243H184.791C187.399 84.9243 189.484 85.902 191.049 87.8575C192.613 89.813 193.069 92.0292 192.418 94.5062L187.333 116.212H202.391C204.868 116.212 207.214 116.768 209.43 117.878C211.647 118.989 213.472 120.519 214.906 122.47L229.572 141.829C231.006 143.654 231.919 145.644 232.31 147.797C232.701 149.951 232.701 152.133 232.31 154.344L227.03 180.352C226.639 182.177 225.726 183.677 224.292 184.85C222.858 186.023 221.229 186.61 219.403 186.61H210.213C210.213 193.128 207.931 198.669 203.368 203.232C198.806 207.794 193.265 210.076 186.747 210.076C180.228 210.076 174.688 207.794 170.125 203.232C165.562 198.669 163.281 193.128 163.281 186.61H131.993C131.993 193.128 129.711 198.669 125.149 203.232C120.586 207.794 115.045 210.076 108.527 210.076ZM83.1056 129.314C80.8894 129.314 79.0329 128.563 77.5363 127.061C76.0397 125.559 75.2888 123.703 75.2836 121.492C75.2784 119.281 76.0293 117.425 77.5363 115.923C79.0434 114.421 80.8998 113.67 83.1056 113.67H118.304C120.521 113.67 122.38 114.421 123.882 115.923C125.383 117.425 126.132 119.281 126.126 121.492C126.121 123.703 125.37 125.562 123.874 127.069C122.377 128.576 120.521 129.324 118.304 129.314H83.1056ZM108.527 194.432C110.743 194.432 112.602 193.681 114.104 192.179C115.606 190.677 116.354 188.821 116.349 186.61C116.344 184.399 115.593 182.542 114.096 181.041C112.6 179.539 110.743 178.788 108.527 178.788C106.311 178.788 104.454 179.539 102.958 181.041C101.461 182.542 100.71 184.399 100.705 186.61C100.7 188.821 101.451 190.68 102.958 192.187C104.465 193.694 106.321 194.442 108.527 194.432ZM186.747 194.432C188.963 194.432 190.822 193.681 192.324 192.179C193.826 190.677 194.574 188.821 194.569 186.61C194.563 184.399 193.813 182.542 192.316 181.041C190.819 179.539 188.963 178.788 186.747 178.788C184.53 178.788 182.674 179.539 181.177 181.041C179.681 182.542 178.93 184.399 178.925 186.61C178.92 188.821 179.67 190.68 181.177 192.187C182.684 193.694 184.541 194.442 186.747 194.432ZM178.338 155.322H216.079L216.861 151.215L202.391 131.856H183.813L178.338 155.322Z" fill="url(#paint1_linear_4395_2286)"/>
<path d="M67.4616 157.864C65.2454 157.864 63.389 157.116 61.8924 155.619C60.3958 154.123 59.6449 152.264 59.6397 150.042C59.6345 147.821 60.3854 145.964 61.8924 144.473C63.3994 142.982 65.2558 142.231 67.4616 142.22H94.8385C97.0548 142.22 98.9138 142.971 100.416 144.473C101.917 145.975 102.666 147.831 102.661 150.042C102.655 152.253 101.904 154.112 100.408 155.619C98.9112 157.126 97.0548 157.875 94.8385 157.864H67.4616ZM108.527 210.076C102.009 210.076 96.4681 207.794 91.9053 203.232C87.3425 198.669 85.0611 193.128 85.0611 186.61H75.2836C72.6763 186.61 70.5904 185.632 69.026 183.677C67.4616 181.721 67.0054 179.505 67.6572 177.028L69.4171 169.597H93.8608C99.3362 169.597 103.964 167.707 107.745 163.926C111.525 160.146 113.416 155.518 113.416 150.042C113.416 148.347 113.22 146.783 112.829 145.349C112.438 143.915 111.917 142.481 111.265 141.047H118.696C124.171 141.047 128.799 139.157 132.58 135.376C136.36 131.595 138.25 126.967 138.25 121.492C138.25 116.017 136.36 111.389 132.58 107.608C128.799 103.827 124.171 101.937 118.696 101.937H88.9721L90.1454 97.2439C90.9276 93.5936 92.7214 90.6291 95.5269 88.3503C98.3324 86.0715 101.623 84.9295 105.398 84.9243H184.791C187.399 84.9243 189.484 85.902 191.049 87.8575C192.613 89.813 193.069 92.0292 192.418 94.5062L187.333 116.212H202.391C204.868 116.212 207.214 116.768 209.43 117.878C211.647 118.989 213.472 120.519 214.906 122.47L229.572 141.829C231.006 143.654 231.919 145.644 232.31 147.797C232.701 149.951 232.701 152.133 232.31 154.344L227.03 180.352C226.639 182.177 225.726 183.677 224.292 184.85C222.858 186.023 221.229 186.61 219.403 186.61H210.213C210.213 193.128 207.931 198.669 203.368 203.232C198.806 207.794 193.265 210.076 186.747 210.076C180.228 210.076 174.688 207.794 170.125 203.232C165.562 198.669 163.281 193.128 163.281 186.61H131.993C131.993 193.128 129.711 198.669 125.149 203.232C120.586 207.794 115.045 210.076 108.527 210.076ZM83.1056 129.314C80.8894 129.314 79.0329 128.563 77.5363 127.061C76.0397 125.559 75.2888 123.703 75.2836 121.492C75.2784 119.281 76.0293 117.425 77.5363 115.923C79.0434 114.421 80.8998 113.67 83.1056 113.67H118.304C120.521 113.67 122.38 114.421 123.882 115.923C125.383 117.425 126.132 119.281 126.126 121.492C126.121 123.703 125.37 125.562 123.874 127.069C122.377 128.576 120.521 129.324 118.304 129.314H83.1056ZM108.527 194.432C110.743 194.432 112.602 193.681 114.104 192.179C115.606 190.677 116.354 188.821 116.349 186.61C116.344 184.399 115.593 182.542 114.096 181.041C112.6 179.539 110.743 178.788 108.527 178.788C106.311 178.788 104.454 179.539 102.958 181.041C101.461 182.542 100.71 184.399 100.705 186.61C100.7 188.821 101.451 190.68 102.958 192.187C104.465 193.694 106.321 194.442 108.527 194.432ZM186.747 194.432C188.963 194.432 190.822 193.681 192.324 192.179C193.826 190.677 194.574 188.821 194.569 186.61C194.563 184.399 193.813 182.542 192.316 181.041C190.819 179.539 188.963 178.788 186.747 178.788C184.53 178.788 182.674 179.539 181.177 181.041C179.681 182.542 178.93 184.399 178.925 186.61C178.92 188.821 179.67 190.68 181.177 192.187C182.684 193.694 184.541 194.442 186.747 194.432ZM178.338 155.322H216.079L216.861 151.215L202.391 131.856H183.813L178.338 155.322Z" fill="url(#paint2_linear_4395_2286)"/>
<path d="M67.4616 157.864C65.2454 157.864 63.389 157.116 61.8924 155.619C60.3958 154.123 59.6449 152.264 59.6397 150.042C59.6345 147.821 60.3854 145.964 61.8924 144.473C63.3994 142.982 65.2558 142.231 67.4616 142.22H94.8385C97.0548 142.22 98.9138 142.971 100.416 144.473C101.917 145.975 102.666 147.831 102.661 150.042C102.655 152.253 101.904 154.112 100.408 155.619C98.9112 157.126 97.0548 157.875 94.8385 157.864H67.4616ZM108.527 210.076C102.009 210.076 96.4681 207.794 91.9053 203.232C87.3425 198.669 85.0611 193.128 85.0611 186.61H75.2836C72.6763 186.61 70.5904 185.632 69.026 183.677C67.4616 181.721 67.0054 179.505 67.6572 177.028L69.4171 169.597H93.8608C99.3362 169.597 103.964 167.707 107.745 163.926C111.525 160.146 113.416 155.518 113.416 150.042C113.416 148.347 113.22 146.783 112.829 145.349C112.438 143.915 111.917 142.481 111.265 141.047H118.696C124.171 141.047 128.799 139.157 132.58 135.376C136.36 131.595 138.25 126.967 138.25 121.492C138.25 116.017 136.36 111.389 132.58 107.608C128.799 103.827 124.171 101.937 118.696 101.937H88.9721L90.1454 97.2439C90.9276 93.5936 92.7214 90.6291 95.5269 88.3503C98.3324 86.0715 101.623 84.9295 105.398 84.9243H184.791C187.399 84.9243 189.484 85.902 191.049 87.8575C192.613 89.813 193.069 92.0292 192.418 94.5062L187.333 116.212H202.391C204.868 116.212 207.214 116.768 209.43 117.878C211.647 118.989 213.472 120.519 214.906 122.47L229.572 141.829C231.006 143.654 231.919 145.644 232.31 147.797C232.701 149.951 232.701 152.133 232.31 154.344L227.03 180.352C226.639 182.177 225.726 183.677 224.292 184.85C222.858 186.023 221.229 186.61 219.403 186.61H210.213C210.213 193.128 207.931 198.669 203.368 203.232C198.806 207.794 193.265 210.076 186.747 210.076C180.228 210.076 174.688 207.794 170.125 203.232C165.562 198.669 163.281 193.128 163.281 186.61H131.993C131.993 193.128 129.711 198.669 125.149 203.232C120.586 207.794 115.045 210.076 108.527 210.076ZM83.1056 129.314C80.8894 129.314 79.0329 128.563 77.5363 127.061C76.0397 125.559 75.2888 123.703 75.2836 121.492C75.2784 119.281 76.0293 117.425 77.5363 115.923C79.0434 114.421 80.8998 113.67 83.1056 113.67H118.304C120.521 113.67 122.38 114.421 123.882 115.923C125.383 117.425 126.132 119.281 126.126 121.492C126.121 123.703 125.37 125.562 123.874 127.069C122.377 128.576 120.521 129.324 118.304 129.314H83.1056ZM108.527 194.432C110.743 194.432 112.602 193.681 114.104 192.179C115.606 190.677 116.354 188.821 116.349 186.61C116.344 184.399 115.593 182.542 114.096 181.041C112.6 179.539 110.743 178.788 108.527 178.788C106.311 178.788 104.454 179.539 102.958 181.041C101.461 182.542 100.71 184.399 100.705 186.61C100.7 188.821 101.451 190.68 102.958 192.187C104.465 193.694 106.321 194.442 108.527 194.432ZM186.747 194.432C188.963 194.432 190.822 193.681 192.324 192.179C193.826 190.677 194.574 188.821 194.569 186.61C194.563 184.399 193.813 182.542 192.316 181.041C190.819 179.539 188.963 178.788 186.747 178.788C184.53 178.788 182.674 179.539 181.177 181.041C179.681 182.542 178.93 184.399 178.925 186.61C178.92 188.821 179.67 190.68 181.177 192.187C182.684 193.694 184.541 194.442 186.747 194.432ZM178.338 155.322H216.079L216.861 151.215L202.391 131.856H183.813L178.338 155.322Z" fill="url(#paint3_linear_4395_2286)"/>
<defs>
<linearGradient id="paint0_linear_4395_2286" x1="146.121" y1="199.507" x2="146.121" y2="207.358" gradientUnits="userSpaceOnUse">
<stop stop-color="#580CE4" stop-opacity="0"/>
<stop offset="1" stop-color="#3F03AE"/>
</linearGradient>
<linearGradient id="paint1_linear_4395_2286" x1="74.2228" y1="177.915" x2="50.4089" y2="191.905" gradientUnits="userSpaceOnUse">
<stop stop-color="#3F03AE" stop-opacity="0"/>
<stop offset="1" stop-color="#3F03AE"/>
</linearGradient>
<linearGradient id="paint2_linear_4395_2286" x1="206.489" y1="188.711" x2="229.47" y2="214.261" gradientUnits="userSpaceOnUse">
<stop stop-color="#3F03AE" stop-opacity="0"/>
<stop offset="1" stop-color="#3F03AE"/>
</linearGradient>
<linearGradient id="paint3_linear_4395_2286" x1="146.8" y1="105.289" x2="146.8" y2="79.281" gradientUnits="userSpaceOnUse">
<stop stop-color="#3F03AE" stop-opacity="0"/>
<stop offset="1" stop-color="#3F03AE"/>
</linearGradient>
</defs>
</svg>
